# https://github.com/mikedh/trimesh
mtllib cap.mtl

o gray_tone1_0
usemtl gray_tone1_0f0f0f
v -0.15249352 0.14174316 -0.33460744
v -0.15249352 0.27506710 -0.25609743
v -0.05449009 0.27506710 -0.23660262
v -0.02444480 0.14174316 -0.30913673
v -0.15249352 0.33775141 -0.13859919
v -0.15249352 0.36531996 0.00000000
v -0.09945424 0.33775141 -0.12804872
v -0.15249352 0.00314397 -0.36217599
v -0.15249352 0.14174316 -0.33460744
v -0.02444480 0.14174316 -0.30913673
v -0.01389433 0.00314397 -0.33460744
v -0.15249352 0.27506710 -0.25609743
v -0.15249352 0.33775141 -0.13859919
v -0.09945424 0.33775141 -0.12804872
v -0.05449009 0.27506710 -0.23660262
v -0.01389433 0.00314397 -0.33460744
v -0.02444480 0.14174316 -0.30913673
v 0.08410910 0.14624249 -0.23660262
v 0.10360391 0.01155063 -0.25609743
v -0.05449009 0.27506710 -0.23660262
v -0.09945424 0.33775141 -0.12804872
v -0.05448870 0.33775141 -0.09800343
v 0.02859448 0.27506710 -0.18108800
v -0.02444480 0.14174316 -0.30913673
v -0.05449009 0.27506710 -0.23660262
v 0.02859448 0.27506710 -0.18108800
v 0.08410910 0.14624249 -0.23660262
v -0.09945424 0.33775141 -0.12804872
v -0.15249352 0.36531996 0.00000000
v -0.05448870 0.33775141 -0.09800343
v 0.02859448 0.27506710 -0.18108800
v -0.05448870 0.33775141 -0.09800343
v -0.02444480 0.33775141 -0.05303928
v 0.08410910 0.27956784 -0.09800343
v 0.08410910 0.14624249 -0.23660262
v 0.02859448 0.27506710 -0.18108800
v 0.08410910 0.27956784 -0.09800343
v 0.15664321 0.16819036 -0.12804872
v -0.05448870 0.33775141 -0.09800343
v -0.15249352 0.36531996 0.00000000
v -0.02444480 0.33775141 -0.05303928
v 0.10360391 0.01155063 -0.25609743
v 0.08410910 0.14624249 -0.23660262
v 0.15664321 0.16819036 -0.12804872
v 0.18211393 0.04309059 -0.13859919
v 0.15664321 0.16819036 -0.12804872
v 0.08410910 0.27956784 -0.09800343
v 0.10360391 0.28347376 0.00000000
v 0.18211393 0.18168839 0.00000000
v -0.02444480 0.33775141 -0.05303928
v -0.15249352 0.36531996 0.00000000
v -0.01389433 0.33775141 0.00000000
v 0.18211393 0.04309059 -0.13859919
v 0.15664321 0.16819036 -0.12804872
v 0.18211393 0.18168839 0.00000000
v 0.20968247 0.06347831 0.00000000
v 0.08410910 0.27956784 -0.09800343
v -0.02444480 0.33775141 -0.05303928
v -0.01389433 0.33775141 0.00000000
v 0.10360391 0.28347376 0.00000000
v -0.01389433 0.33775141 0.00000000
v -0.15249352 0.36531996 0.00000000
v -0.02444480 0.33775141 0.05303928
v 0.20968247 0.06347831 0.00000000
v 0.18211393 0.18168839 0.00000000
v 0.15664321 0.16819036 0.12804872
v 0.18211393 0.04309059 0.13859919
v 0.10360391 0.28347376 0.00000000
v -0.01389433 0.33775141 0.00000000
v -0.02444480 0.33775141 0.05303928
v 0.08410910 0.27956784 0.09800482
v 0.18211393 0.18168839 0.00000000
v 0.10360391 0.28347376 0.00000000
v 0.08410910 0.27956784 0.09800482
v 0.15664321 0.16819036 0.12804872
v 0.18211393 0.04309059 0.13859919
v 0.15664321 0.16819036 0.12804872
v 0.08410910 0.14624249 0.23660262
v 0.10360391 0.01155063 0.25609743
v 0.08410910 0.27956784 0.09800482
v -0.02444480 0.33775141 0.05303928
v -0.05449009 0.33775141 0.09800482
v 0.02859448 0.27506710 0.18108800
v 0.15664321 0.16819036 0.12804872
v 0.08410910 0.27956784 0.09800482
v 0.02859448 0.27506710 0.18108800
v 0.08410910 0.14624249 0.23660262
v -0.02444480 0.33775141 0.05303928
v -0.15249352 0.36531996 0.00000000
v -0.05449009 0.33775141 0.09800482
v 0.08410910 0.14624249 0.23660262
v 0.02859448 0.27506710 0.18108800
v -0.05449009 0.27506710 0.23660262
v -0.02444480 0.14174316 0.30913673
v -0.05449009 0.33775141 0.09800482
v -0.15249352 0.36531996 0.00000000
v -0.09945424 0.33775141 0.12804872
v 0.10360391 0.01155063 0.25609743
v 0.08410910 0.14624249 0.23660262
v -0.02444480 0.14174316 0.30913673
v -0.01389433 0.00314397 0.33460744
v 0.02859448 0.27506710 0.18108800
v -0.05449009 0.33775141 0.09800482
v -0.09945424 0.33775141 0.12804872
v -0.05449009 0.27506710 0.23660262
v -0.02444480 0.14174316 0.30913673
v -0.05449009 0.27506710 0.23660262
v -0.15249352 0.27506710 0.25609743
v -0.15249352 0.14174316 0.33460744
v -0.09945424 0.33775141 0.12804872
v -0.15249352 0.36531996 0.00000000
v -0.15249352 0.33775141 0.13859919
v -0.01389433 0.00314397 0.33460744
v -0.02444480 0.14174316 0.30913673
v -0.15249352 0.14174316 0.33460744
v -0.15249352 0.00314397 0.36217599
v -0.05449009 0.27506710 0.23660262
v -0.09945424 0.33775141 0.12804872
v -0.15249352 0.33775141 0.13859919
v -0.15249352 0.27506710 0.25609743
v -0.15249352 0.00314397 0.36217599
v -0.15249352 0.14174316 0.33460744
v -0.28054223 0.14174316 0.30913673
v -0.29109271 0.00314397 0.33460744
v -0.15249352 0.27506710 0.25609743
v -0.15249352 0.33775141 0.13859919
v -0.20553280 0.33775141 0.12804872
v -0.25049834 0.27506710 0.23660262
v -0.15249352 0.14174316 0.33460744
v -0.15249352 0.27506710 0.25609743
v -0.25049834 0.27506710 0.23660262
v -0.28054223 0.14174316 0.30913673
v -0.15249352 0.33775141 0.13859919
v -0.15249352 0.36531996 0.00000000
v -0.20553280 0.33775141 0.12804872
v -0.29109271 0.00314397 0.33460744
v -0.28054223 0.14174316 0.30913673
v -0.38909614 0.14174316 0.23660262
v -0.40859095 0.00314397 0.25609743
v -0.25049834 0.27506710 0.23660262
v -0.20553280 0.33775141 0.12804872
v -0.25049834 0.33775141 0.09800343
v -0.33358152 0.27506710 0.18108800
v -0.28054223 0.14174316 0.30913673
v -0.25049834 0.27506710 0.23660262
v -0.33358152 0.27506710 0.18108800
v -0.38909614 0.14174316 0.23660262
v -0.20553280 0.33775141 0.12804872
v -0.15249352 0.36531996 0.00000000
v -0.25049834 0.33775141 0.09800343
v -0.38909614 0.14174316 0.23660262
v -0.33358152 0.27506710 0.18108800
v -0.38909614 0.27506710 0.09800343
v -0.46163025 0.14174316 0.12804872
v -0.25049834 0.33775141 0.09800343
v -0.15249352 0.36531996 0.00000000
v -0.28054223 0.33775141 0.05303928
v -0.40859095 0.00314397 0.25609743
v -0.38909614 0.14174316 0.23660262
v -0.46163025 0.14174316 0.12804872
v -0.48710096 0.00314397 0.13859919
v -0.33358152 0.27506710 0.18108800
v -0.25049834 0.33775141 0.09800343
v -0.28054223 0.33775141 0.05303928
v -0.38909614 0.27506710 0.09800343
v -0.46163025 0.14174316 0.12804872
v -0.38909614 0.27506710 0.09800343
v -0.40859095 0.27506710 0.00000000
v -0.48710096 0.14174316 0.00000000
v -0.28054223 0.33775141 0.05303928
v -0.15249352 0.36531996 0.00000000
v -0.29109271 0.33775141 0.00000000
v -0.38909614 0.27506710 0.09800343
v -0.28054223 0.33775141 0.05303928
v -0.29109271 0.33775141 0.00000000
v -0.40859095 0.27506710 0.00000000
v -0.40859095 0.27506710 0.00000000
v -0.29109271 0.33775141 0.00000000
v -0.28054223 0.33775141 -0.05303928
v -0.38909614 0.27506710 -0.09800482
v -0.48710096 0.14174316 0.00000000
v -0.40859095 0.27506710 0.00000000
v -0.38909614 0.27506710 -0.09800482
v -0.46163025 0.14174316 -0.12804872
v -0.29109271 0.33775141 0.00000000
v -0.15249352 0.36531996 0.00000000
v -0.28054223 0.33775141 -0.05303928
v -0.38909614 0.27506710 -0.09800482
v -0.28054223 0.33775141 -0.05303928
v -0.25049695 0.33775141 -0.09800482
v -0.33358152 0.27506710 -0.18108800
v -0.46163025 0.14174316 -0.12804872
v -0.38909614 0.27506710 -0.09800482
v -0.33358152 0.27506710 -0.18108800
v -0.38909614 0.14174316 -0.23660262
v -0.28054223 0.33775141 -0.05303928
v -0.15249352 0.36531996 0.00000000
v -0.25049695 0.33775141 -0.09800482
v -0.48710096 0.00314397 -0.13859919
v -0.46163025 0.14174316 -0.12804872
v -0.38909614 0.14174316 -0.23660262
v -0.40859095 0.00314397 -0.25609743
v -0.38909614 0.14174316 -0.23660262
v -0.33358152 0.27506710 -0.18108800
v -0.25049695 0.27506710 -0.23660262
v -0.28054223 0.14174316 -0.30913673
v -0.25049695 0.33775141 -0.09800482
v -0.15249352 0.36531996 0.00000000
v -0.20553280 0.33775141 -0.12804872
v -0.40859095 0.00314397 -0.25609743
v -0.38909614 0.14174316 -0.23660262
v -0.28054223 0.14174316 -0.30913673
v -0.29109271 0.00314397 -0.33460744
v -0.33358152 0.27506710 -0.18108800
v -0.25049695 0.33775141 -0.09800482
v -0.20553280 0.33775141 -0.12804872
v -0.25049695 0.27506710 -0.23660262
v -0.20553280 0.33775141 -0.12804872
v -0.15249352 0.36531996 0.00000000
v -0.15249352 0.33775141 -0.13859919
v -0.29109271 0.00314397 -0.33460744
v -0.28054223 0.14174316 -0.30913673
v -0.15249352 0.14174316 -0.33460744
v -0.15249352 0.00314397 -0.36217599
v -0.25049695 0.27506710 -0.23660262
v -0.20553280 0.33775141 -0.12804872
v -0.15249352 0.33775141 -0.13859919
v -0.15249352 0.27506710 -0.25609743
v -0.28054223 0.14174316 -0.30913673
v -0.25049695 0.27506710 -0.23660262
v -0.15249352 0.27506710 -0.25609743
v -0.15249352 0.14174316 -0.33460744
v -0.50000000 0.08618953 0.00000000
v -0.48195945 0.07660580 0.09098000
v -0.48710096 0.00314397 0.13859919
v -0.46163025 0.14174316 0.12804872
v -0.48710096 0.14174316 0.00000000
v -0.48710096 0.00314397 -0.13859919
v -0.48170593 0.07690529 -0.09195649
v -0.50000000 0.08618953 0.00000000
v -0.48710096 0.14174316 0.00000000
v -0.46163025 0.14174316 -0.12804872
v -0.15249352 0.13794449 -0.32442753
v -0.02829222 0.13794169 -0.29971318
v -0.05740142 0.26739175 -0.22948587
v -0.15249352 0.26740429 -0.24839564
v -0.15249352 0.32758403 -0.13476848
v -0.10091966 0.32758403 -0.12451053
v -0.15249352 0.35445470 0.00000000
v -0.15249352 0.00102384 -0.35151968
v -0.01788802 0.00101270 -0.32472979
v -0.02829222 0.13794169 -0.29971318
v -0.15249352 0.13794449 -0.32442753
v -0.15249352 0.26740429 -0.24839564
v -0.05740142 0.26739175 -0.22948587
v -0.10091966 0.32758403 -0.12451053
v -0.15249352 0.32758403 -0.13476848
v -0.01788802 0.00101270 -0.32472979
v 0.09640498 0.00936086 -0.24825912
v 0.07716229 0.14236582 -0.22920309
v -0.02829222 0.13794169 -0.29971318
v -0.05740142 0.26739175 -0.22948587
v 0.02342930 0.26730957 -0.17550353
v -0.05711586 0.32757288 -0.09525647
v -0.10091966 0.32758403 -0.12451053
v -0.02829222 0.13794169 -0.29971318
v 0.07716229 0.14236582 -0.22920309
v 0.02342930 0.26730957 -0.17550353
v -0.05740142 0.26739175 -0.22948587
v -0.10091966 0.32758403 -0.12451053
v -0.05711586 0.32757288 -0.09525647
v -0.15249352 0.35445470 0.00000000
v 0.02342930 0.26730957 -0.17550353
v 0.07757043 0.27150525 -0.09479678
v -0.02776568 0.32752273 -0.05148889
v -0.05711586 0.32757288 -0.09525647
v 0.07716229 0.14236582 -0.22920309
v 0.14760691 0.16390832 -0.12380151
v 0.07757043 0.27150525 -0.09479678
v 0.02342930 0.26730957 -0.17550353
v -0.05711586 0.32757288 -0.09525647
v -0.02776568 0.32752273 -0.05148889
v -0.15249352 0.35445470 0.00000000
v 0.09640498 0.00936086 -0.24825912
v 0.17255805 0.04076848 -0.13397587
v 0.14760691 0.16390832 -0.12380151
v 0.07716229 0.14236582 -0.22920309
v 0.14760691 0.16390832 -0.12380151
v 0.17225439 0.17712217 0.00000000
v 0.09656377 0.27519804 0.00000000
v 0.07757043 0.27150525 -0.09479678
v -0.02776568 0.32752273 -0.05148889
v -0.01745341 0.32748512 0.00000000
v -0.15249352 0.35445470 0.00000000
v 0.17255805 0.04076848 -0.13397587
v 0.19908884 0.06106427 0.00000000
v 0.17225439 0.17712217 0.00000000
v 0.14760691 0.16390832 -0.12380151
v 0.07757043 0.27150525 -0.09479678
v 0.09656377 0.27519804 0.00000000
v -0.01745341 0.32748512 0.00000000
v -0.02776568 0.32752273 -0.05148889
v -0.01745341 0.32748512 0.00000000
v -0.02776568 0.32752273 0.05148889
v -0.15249352 0.35445470 0.00000000
v 0.19908884 0.06106427 0.00000000
v 0.17255805 0.04076848 0.13397587
v 0.14760552 0.16390832 0.12380151
v 0.17225439 0.17712217 0.00000000
v 0.09656377 0.27519804 0.00000000
v 0.07757043 0.27150525 0.09479678
v -0.02776568 0.32752273 0.05148889
v -0.01745341 0.32748512 0.00000000
v 0.17225439 0.17712217 0.00000000
v 0.14760552 0.16390832 0.12380151
v 0.07757043 0.27150525 0.09479678
v 0.09656377 0.27519804 0.00000000
v 0.17255805 0.04076848 0.13397587
v 0.09640498 0.00936086 0.24825912
v 0.07716229 0.14236582 0.22920309
v 0.14760552 0.16390832 0.12380151
v 0.07757043 0.27150525 0.09479678
v 0.02342930 0.26730957 0.17550353
v -0.05711586 0.32757288 0.09525647
v -0.02776568 0.32752273 0.05148889
v 0.14760552 0.16390832 0.12380151
v 0.07716229 0.14236582 0.22920309
v 0.02342930 0.26730957 0.17550353
v 0.07757043 0.27150525 0.09479678
v -0.02776568 0.32752273 0.05148889
v -0.05711586 0.32757288 0.09525647
v -0.15249352 0.35445470 0.00000000
v 0.07716229 0.14236582 0.22920309
v -0.02829222 0.13794169 0.29971318
v -0.05740282 0.26739175 0.22948726
v 0.02342930 0.26730957 0.17550353
v -0.05711586 0.32757288 0.09525647
v -0.10091966 0.32758403 0.12451053
v -0.15249352 0.35445470 0.00000000
v 0.09640498 0.00936086 0.24825912
v -0.01788802 0.00101270 0.32472979
v -0.02829222 0.13794169 0.29971318
v 0.07716229 0.14236582 0.22920309
v 0.02342930 0.26730957 0.17550353
v -0.05740282 0.26739175 0.22948726
v -0.10091966 0.32758403 0.12451053
v -0.05711586 0.32757288 0.09525647
v -0.02829222 0.13794169 0.29971318
v -0.15249352 0.13794449 0.32442753
v -0.15249352 0.26740429 0.24839564
v -0.05740282 0.26739175 0.22948726
v -0.10091966 0.32758403 0.12451053
v -0.15249352 0.32758403 0.13476848
v -0.15249352 0.35445470 0.00000000
v -0.01788802 0.00101270 0.32472979
v -0.15249352 0.00102384 0.35151968
v -0.15249352 0.13794449 0.32442753
v -0.02829222 0.13794169 0.29971318
v -0.05740282 0.26739175 0.22948726
v -0.15249352 0.26740429 0.24839564
v -0.15249352 0.32758403 0.13476848
v -0.10091966 0.32758403 0.12451053
v -0.15249352 0.00102384 0.35151968
v -0.28701405 0.00102384 0.32476184
v -0.27664606 0.13794449 0.29973128
v -0.15249352 0.13794449 0.32442753
v -0.15249352 0.26740429 0.24839564
v -0.24755079 0.26740429 0.22948726
v -0.20406738 0.32758403 0.12451053
v -0.15249352 0.32758403 0.13476848
v -0.15249352 0.13794449 0.32442753
v -0.27664606 0.13794449 0.29973128
v -0.24755079 0.26740429 0.22948726
v -0.15249352 0.26740429 0.24839564
v -0.15249352 0.32758403 0.13476848
v -0.20406738 0.32758403 0.12451053
v -0.15249352 0.35445470 0.00000000
v -0.28701405 0.00102384 0.32476184
v -0.40105490 0.00102384 0.24856138
v -0.38189858 0.13794449 0.22940506
v -0.27664606 0.13794449 0.29973128
v -0.24755079 0.26740429 0.22948726
v -0.32813496 0.26740429 0.17564144
v -0.24778899 0.32758403 0.09529547
v -0.20406738 0.32758403 0.12451053
v -0.27664606 0.13794449 0.29973128
v -0.38189858 0.13794449 0.22940506
v -0.32813496 0.26740429 0.17564144
v -0.24755079 0.26740429 0.22948726
v -0.20406738 0.32758403 0.12451053
v -0.24778899 0.32758403 0.09529547
v -0.15249352 0.35445470 0.00000000
v -0.38189858 0.13794449 0.22940506
v -0.45222480 0.13794449 0.12415254
v -0.38198078 0.26740429 0.09505727
v -0.32813496 0.26740429 0.17564144
v -0.24778899 0.32758403 0.09529547
v -0.27700405 0.32758403 0.05157386
v -0.15249352 0.35445470 0.00000000
v -0.40105490 0.00102384 0.24856138
v -0.47770668 0.00103499 0.13356494
v -0.45222480 0.13794449 0.12415254
v -0.38189858 0.13794449 0.22940506
v -0.32813496 0.26740429 0.17564144
v -0.38198078 0.26740429 0.09505727
v -0.27700405 0.32758403 0.05157386
v -0.24778899 0.32758403 0.09529547
v -0.45222480 0.13794449 0.12415254
v -0.47692104 0.13794449 0.00000000
v -0.40088916 0.26740429 0.00000000
v -0.38198078 0.26740429 0.09505727
v -0.27700405 0.32758403 0.05157386
v -0.28726200 0.32758403 0.00000000
v -0.15249352 0.35445470 0.00000000
v -0.38198078 0.26740429 0.09505727
v -0.40088916 0.26740429 0.00000000
v -0.28726200 0.32758403 0.00000000
v -0.27700405 0.32758403 0.05157386
v -0.40088916 0.26740429 0.00000000
v -0.38198078 0.26740429 -0.09505727
v -0.27700405 0.32758403 -0.05157386
v -0.28726200 0.32758403 0.00000000
v -0.47692104 0.13794449 0.00000000
v -0.45222480 0.13794449 -0.12415254
v -0.38198078 0.26740429 -0.09505727
v -0.40088916 0.26740429 0.00000000
v -0.28726200 0.32758403 0.00000000
v -0.27700405 0.32758403 -0.05157386
v -0.15249352 0.35445470 0.00000000
v -0.38198078 0.26740429 -0.09505727
v -0.32813496 0.26740429 -0.17564144
v -0.24778899 0.32758403 -0.09529547
v -0.27700405 0.32758403 -0.05157386
v -0.45222480 0.13794449 -0.12415254
v -0.38189858 0.13794449 -0.22940506
v -0.32813496 0.26740429 -0.17564144
v -0.38198078 0.26740429 -0.09505727
v -0.27700405 0.32758403 -0.05157386
v -0.24778899 0.32758403 -0.09529547
v -0.15249352 0.35445470 0.00000000
v -0.47771504 0.00103499 -0.13354822
v -0.40105490 0.00102384 -0.24856138
v -0.38189858 0.13794449 -0.22940506
v -0.45222480 0.13794449 -0.12415254
v -0.38189858 0.13794449 -0.22940506
v -0.27664606 0.13794449 -0.29973128
v -0.24755079 0.26740429 -0.22948726
v -0.32813496 0.26740429 -0.17564144
v -0.24778899 0.32758403 -0.09529547
v -0.20406738 0.32758403 -0.12451053
v -0.15249352 0.35445470 0.00000000
v -0.40105490 0.00102384 -0.24856138
v -0.28701405 0.00102384 -0.32476184
v -0.27664606 0.13794449 -0.29973128
v -0.38189858 0.13794449 -0.22940506
v -0.32813496 0.26740429 -0.17564144
v -0.24755079 0.26740429 -0.22948726
v -0.20406738 0.32758403 -0.12451053
v -0.24778899 0.32758403 -0.09529547
v -0.20406738 0.32758403 -0.12451053
v -0.15249352 0.32758403 -0.13476848
v -0.15249352 0.35445470 0.00000000
v -0.28701405 0.00102384 -0.32476184
v -0.15249352 0.00102384 -0.35151968
v -0.15249352 0.13794449 -0.32442753
v -0.27664606 0.13794449 -0.29973128
v -0.24755079 0.26740429 -0.22948726
v -0.15249352 0.26740429 -0.24839564
v -0.15249352 0.32758403 -0.13476848
v -0.20406738 0.32758403 -0.12451053
v -0.27664606 0.13794449 -0.29973128
v -0.15249352 0.13794449 -0.32442753
v -0.15249352 0.26740429 -0.24839564
v -0.24755079 0.26740429 -0.22948726
v -0.48934366 0.08407080 -0.00000279
v -0.47692104 0.13794449 0.00000000
v -0.45222480 0.13794449 0.12415254
v -0.47770668 0.00103499 0.13356494
v -0.47150093 0.07452607 0.08890028
v -0.47771504 0.00103499 -0.13354822
v -0.45222480 0.13794449 -0.12415254
v -0.47692104 0.13794449 0.00000000
v -0.48934366 0.08407080 -0.00000279
v -0.47124741 0.07482417 -0.08987676
v -0.01389433 0.00314397 -0.33460744
v 0.10360391 0.01155063 -0.25609743
v 0.09640498 0.00936086 -0.24825912
v -0.01788802 0.00101270 -0.32472979
v 0.10360391 0.01155063 -0.25609743
v 0.18211393 0.04309059 -0.13859919
v 0.17255805 0.04076848 -0.13397587
v 0.09640498 0.00936086 -0.24825912
v 0.18211393 0.04309059 -0.13859919
v 0.20968247 0.06347831 0.00000000
v 0.19908884 0.06106427 0.00000000
v 0.17255805 0.04076848 -0.13397587
v 0.20968247 0.06347831 0.00000000
v 0.18211393 0.04309059 0.13859919
v 0.17255805 0.04076848 0.13397587
v 0.19908884 0.06106427 0.00000000
v 0.18211393 0.04309059 0.13859919
v 0.10360391 0.01155063 0.25609743
v 0.09640498 0.00936086 0.24825912
v 0.17255805 0.04076848 0.13397587
v 0.10360391 0.01155063 0.25609743
v -0.01389433 0.00314397 0.33460744
v -0.01788802 0.00101270 0.32472979
v 0.09640498 0.00936086 0.24825912
v -0.01389433 0.00314397 0.33460744
v -0.15249352 0.00314397 0.36217599
v -0.15249352 0.00102384 0.35151968
v -0.01788802 0.00101270 0.32472979
v -0.15249352 0.00314397 0.36217599
v -0.29109271 0.00314397 0.33460744
v -0.28701405 0.00102384 0.32476184
v -0.15249352 0.00102384 0.35151968
v -0.29109271 0.00314397 0.33460744
v -0.40859095 0.00314397 0.25609743
v -0.40105490 0.00102384 0.24856138
v -0.28701405 0.00102384 0.32476184
v -0.40859095 0.00314397 0.25609743
v -0.48710096 0.00314397 0.13859919
v -0.47770668 0.00103499 0.13356494
v -0.40105490 0.00102384 0.24856138
v -0.48710096 0.00314397 -0.13859919
v -0.40859095 0.00314397 -0.25609743
v -0.40105490 0.00102384 -0.24856138
v -0.47771504 0.00103499 -0.13354822
v -0.40859095 0.00314397 -0.25609743
v -0.29109271 0.00314397 -0.33460744
v -0.28701405 0.00102384 -0.32476184
v -0.40105490 0.00102384 -0.24856138
v -0.29109271 0.00314397 -0.33460744
v -0.15249352 0.00314397 -0.36217599
v -0.15249352 0.00102384 -0.35151968
v -0.28701405 0.00102384 -0.32476184
v -0.15249352 0.00314397 -0.36217599
v -0.01389433 0.00314397 -0.33460744
v -0.01788802 0.00101270 -0.32472979
v -0.15249352 0.00102384 -0.35151968
v -0.48195945 0.07660580 0.09098000
v -0.50000000 0.08618953 0.00000000
v -0.48934366 0.08407080 -0.00000279
v -0.47150093 0.07452607 0.08890028
v -0.48710096 0.00314397 0.13859919
v -0.48195945 0.07660580 0.09098000
v -0.47150093 0.07452607 0.08890028
v -0.47770668 0.00103499 0.13356494
v -0.48170593 0.07690529 -0.09195649
v -0.48710096 0.00314397 -0.13859919
v -0.47771504 0.00103499 -0.13354822
v -0.47124741 0.07482417 -0.08987676
v -0.50000000 0.08618953 0.00000000
v -0.48170593 0.07690529 -0.09195649
v -0.47124741 0.07482417 -0.08987676
v -0.48934366 0.08407080 -0.00000279
vn 0.16893998 0.50013066 -0.84931066
vn 0.16894226 0.50013229 -0.84930925
vn 0.16894408 0.50013359 -0.84930813
vn 0.16894149 0.50013174 -0.84930973
vn 0.03877708 0.98004836 -0.19493988
vn 0.03877708 0.98004836 -0.19493988
vn 0.03877708 0.98004836 -0.19493988
vn 0.19147695 0.19147695 -0.96263864
vn 0.19147953 0.19147953 -0.96263761
vn 0.19148212 0.19148212 -0.96263659
vn 0.19147940 0.19147940 -0.96263767
vn 0.09322312 0.87845281 -0.46864710
vn 0.09322275 0.87845270 -0.46864739
vn 0.09322251 0.87845262 -0.46864759
vn 0.09322296 0.87845276 -0.46864722
vn 0.53571724 0.19189666 -0.82230330
vn 0.53737940 0.19419362 -0.82067790
vn 0.53908990 0.19656354 -0.81899014
vn 0.53732666 0.19412065 -0.82072970
vn 0.26546571 0.87845241 -0.39730255
vn 0.26546726 0.87845321 -0.39729974
vn 0.26546831 0.87845375 -0.39729784
vn 0.26546637 0.87845276 -0.39730135
vn 0.46617625 0.50154745 -0.72878657
vn 0.47207049 0.50788891 -0.72055417
vn 0.47687259 0.51305536 -0.71369933
vn 0.47014970 0.50582237 -0.72325859
vn 0.11042565 0.98004826 -0.16526218
vn 0.11042565 0.98004826 -0.16526218
vn 0.11042565 0.98004826 -0.16526218
vn 0.36986749 0.88105317 -0.29486158
vn 0.37285261 0.88816396 -0.26859954
vn 0.37474606 0.89267429 -0.25039571
vn 0.37119060 0.88420491 -0.28354755
vn 0.66124759 0.54063482 -0.52006309
vn 0.69960980 0.51494771 -0.49535340
vn 0.66997314 0.53502617 -0.51466785
vn 0.63383008 0.55743010 -0.53621929
vn 0.16526274 0.98004831 -0.11042433
vn 0.16526274 0.98004831 -0.11042433
vn 0.16526274 0.98004831 -0.11042433
vn 0.79124563 0.20347622 -0.57665221
vn 0.79604398 0.19799650 -0.57193650
vn 0.79099486 0.20376033 -0.57689589
vn 0.78622854 0.20911828 -0.58147590
vn 0.78501251 0.58560000 -0.20205941
vn 0.80078801 0.57061551 -0.18203434
vn 0.78741514 0.58339186 -0.19907620
vn 0.77301981 0.59625263 -0.21661758
vn 0.19493988 0.98004836 -0.03877708
vn 0.19493988 0.98004836 -0.03877708
vn 0.19493988 0.98004836 -0.03877708
vn 0.95192947 0.21660013 -0.21659796
vn 0.95394700 0.21211556 -0.21211343
vn 0.95168504 0.21713651 -0.21713433
vn 0.94968053 0.22148123 -0.22147901
vn 0.42949919 0.89491041 -0.12110246
vn 0.42277162 0.90083467 -0.09879800
vn 0.41791039 0.90467691 -0.08312996
vn 0.42656178 0.89758777 -0.11127101
vn 0.19493988 0.98004836 0.03877708
vn 0.19493988 0.98004836 0.03877708
vn 0.19493988 0.98004836 0.03877708
vn 0.95178257 0.21730300 0.21653948
vn 0.95158658 0.22192575 0.21267803
vn 0.95180518 0.21671029 0.21703353
vn 0.95195164 0.21242490 0.22059858
vn 0.41639447 0.90139531 0.11875244
vn 0.43162622 0.89642849 0.10057220
vn 0.44204036 0.89267501 0.08792985
vn 0.42320310 0.89925034 0.11067049
vn 0.78575561 0.58468610 0.20181747
vn 0.77904420 0.60089941 0.17891349
vn 0.78478325 0.58716770 0.19836669
vn 0.79001642 0.57318306 0.21756661
vn 0.79120539 0.20396766 0.57653380
vn 0.79286988 0.20968642 0.57217913
vn 0.79110743 0.20363529 0.57678566
vn 0.78952680 0.19833391 0.58078489
vn 0.35746918 0.88873381 0.28699826
vn 0.38127701 0.88284367 0.27425334
vn 0.39729784 0.87845375 0.26546831
vn 0.36789617 0.88624596 0.28146139
vn 0.66386437 0.53714380 0.52034665
vn 0.67090390 0.56612009 0.47895303
vn 0.66559596 0.54377377 0.51116740
vn 0.65870375 0.51871986 0.54501292
vn 0.16526218 0.98004826 0.11042565
vn 0.16526218 0.98004826 0.11042565
vn 0.16526218 0.98004826 0.11042565
vn 0.47014970 0.50582237 0.72325859
vn 0.47687259 0.51305536 0.71369933
vn 0.47207049 0.50788891 0.72055417
vn 0.46617625 0.50154745 0.72878657
vn 0.11042433 0.98004831 0.16526274
vn 0.11042433 0.98004831 0.16526274
vn 0.11042433 0.98004831 0.16526274
vn 0.53732666 0.19412065 0.82072970
vn 0.53908990 0.19656354 0.81899014
vn 0.53737940 0.19419362 0.82067790
vn 0.53571724 0.19189666 0.82230330
vn 0.26546543 0.87845269 0.39730213
vn 0.26546636 0.87845245 0.39730203
vn 0.26546698 0.87845230 0.39730196
vn 0.26546582 0.87845259 0.39730209
vn 0.16894149 0.50013174 0.84930973
vn 0.16894408 0.50013359 0.84930813
vn 0.16894226 0.50013229 0.84930925
vn 0.16893998 0.50013066 0.84931066
vn 0.03877708 0.98004836 0.19493988
vn 0.03877708 0.98004836 0.19493988
vn 0.03877708 0.98004836 0.19493988
vn 0.19147940 0.19147940 0.96263767
vn 0.19148212 0.19148212 0.96263659
vn 0.19147953 0.19147953 0.96263761
vn 0.19147695 0.19147695 0.96263864
vn 0.09322317 0.87845268 0.46864735
vn 0.09322272 0.87845279 0.46864722
vn 0.09322242 0.87845287 0.46864713
vn 0.09322298 0.87845273 0.46864729
vn -0.19147940 0.19147946 0.96263766
vn -0.19148232 0.19147674 0.96263761
vn -0.19147954 0.19147933 0.96263765
vn -0.19147676 0.19148191 0.96263769
vn -0.09322181 0.87845292 0.46864716
vn -0.09322212 0.87845302 0.46864691
vn -0.09322234 0.87845309 0.46864674
vn -0.09322194 0.87845297 0.46864705
vn -0.16894068 0.50013136 0.84931011
vn -0.16894212 0.50013048 0.84931035
vn -0.16894111 0.50013110 0.84931018
vn -0.16893984 0.50013188 0.84930997
vn -0.03877708 0.98004836 0.19493988
vn -0.03877708 0.98004836 0.19493988
vn -0.03877708 0.98004836 0.19493988
vn -0.54529208 0.19148391 0.81608239
vn -0.54529368 0.19148228 0.81608170
vn -0.54529215 0.19148383 0.81608236
vn -0.54529062 0.19148538 0.81608301
vn -0.26546772 0.87845345 0.39729892
vn -0.26546807 0.87845363 0.39729828
vn -0.26546831 0.87845375 0.39729784
vn -0.26546787 0.87845353 0.39729864
vn -0.48109897 0.50012941 0.72000997
vn -0.48109746 0.50013034 0.72001033
vn -0.48109852 0.50012968 0.72001008
vn -0.48109985 0.50012886 0.72000977
vn -0.11042565 0.98004826 0.16526218
vn -0.11042565 0.98004826 0.16526218
vn -0.11042565 0.98004826 0.16526218
vn -0.72000977 0.50012886 0.48109985
vn -0.72001099 0.50013210 0.48109465
vn -0.72001196 0.50013468 0.48109050
vn -0.72001058 0.50013101 0.48109640
vn -0.16526274 0.98004831 0.11042433
vn -0.16526274 0.98004831 0.11042433
vn -0.16526274 0.98004831 0.11042433
vn -0.81608301 0.19148538 0.54529062
vn -0.81608236 0.19148383 0.54529215
vn -0.81608170 0.19148228 0.54529368
vn -0.81608239 0.19148391 0.54529208
vn -0.39730213 0.87845269 0.26546543
vn -0.39730203 0.87845245 0.26546636
vn -0.39730196 0.87845230 0.26546698
vn -0.39730209 0.87845259 0.26546582
vn -0.84930923 0.50013320 0.16893969
vn -0.84930966 0.50013157 0.16894234
vn -0.84931000 0.50013027 0.16894445
vn -0.84930951 0.50013212 0.16894145
vn -0.19493988 0.98004836 0.03877708
vn -0.19493988 0.98004836 0.03877708
vn -0.19493988 0.98004836 0.03877708
vn -0.46864735 0.87845268 0.09322317
vn -0.46864722 0.87845279 0.09322272
vn -0.46864713 0.87845287 0.09322242
vn -0.46864729 0.87845273 0.09322298
vn -0.46864716 0.87845292 -0.09322181
vn -0.46864691 0.87845302 -0.09322212
vn -0.46864674 0.87845309 -0.09322234
vn -0.46864705 0.87845297 -0.09322194
vn -0.84931066 0.50013066 -0.16893998
vn -0.84930999 0.50013144 -0.16894107
vn -0.84930945 0.50013206 -0.16894194
vn -0.84931021 0.50013118 -0.16894070
vn -0.19493988 0.98004836 -0.03877708
vn -0.19493988 0.98004836 -0.03877708
vn -0.19493988 0.98004836 -0.03877708
vn -0.39729892 0.87845345 -0.26546772
vn -0.39729828 0.87845363 -0.26546807
vn -0.39729784 0.87845375 -0.26546831
vn -0.39729864 0.87845353 -0.26546787
vn -0.72000915 0.50013015 -0.48109943
vn -0.72001025 0.50012932 -0.48109864
vn -0.72001114 0.50012866 -0.48109800
vn -0.72000988 0.50012960 -0.48109890
vn -0.16526218 0.98004826 -0.11042565
vn -0.16526218 0.98004826 -0.11042565
vn -0.16526218 0.98004826 -0.11042565
vn -0.81608350 0.19148241 -0.54529095
vn -0.81608234 0.19148395 -0.54529214
vn -0.81608117 0.19148550 -0.54529333
vn -0.81608239 0.19148388 -0.54529208
vn -0.48109985 0.50012886 -0.72000977
vn -0.48109465 0.50013210 -0.72001099
vn -0.48109050 0.50013468 -0.72001196
vn -0.48109640 0.50013101 -0.72001058
vn -0.11042433 0.98004831 -0.16526274
vn -0.11042433 0.98004831 -0.16526274
vn -0.11042433 0.98004831 -0.16526274
vn -0.54529062 0.19148538 -0.81608301
vn -0.54529215 0.19148383 -0.81608236
vn -0.54529368 0.19148228 -0.81608170
vn -0.54529208 0.19148391 -0.81608239
vn -0.26546543 0.87845269 -0.39730213
vn -0.26546636 0.87845245 -0.39730203
vn -0.26546698 0.87845230 -0.39730196
vn -0.26546582 0.87845259 -0.39730209
vn -0.03877708 0.98004836 -0.19493988
vn -0.03877708 0.98004836 -0.19493988
vn -0.03877708 0.98004836 -0.19493988
vn -0.19147676 0.19148191 -0.96263769
vn -0.19147954 0.19147933 -0.96263765
vn -0.19148232 0.19147674 -0.96263761
vn -0.19147940 0.19147946 -0.96263766
vn -0.09322317 0.87845268 -0.46864735
vn -0.09322272 0.87845279 -0.46864722
vn -0.09322242 0.87845287 -0.46864713
vn -0.09322298 0.87845273 -0.46864729
vn -0.16893969 0.50013320 -0.84930923
vn -0.16894234 0.50013157 -0.84930966
vn -0.16894445 0.50013027 -0.84931000
vn -0.16894145 0.50013212 -0.84930951
vn -0.95193634 0.22103079 0.21204387
vn -0.96131308 0.19536989 0.19418489
vn -0.96264131 0.19148124 0.19145922
vn -0.96264011 0.19147236 0.19147417
vn -0.95629915 0.20945982 0.20400617
vn -0.96264011 0.19148147 -0.19146503
vn -0.96185134 0.18629889 -0.20033653
vn -0.95794406 0.20940166 -0.19619917
vn -0.95630119 0.22204427 -0.19022192
vn -0.96054836 0.19507713 -0.19822148
vn -0.16910507 -0.49910919 0.84987852
vn -0.16912600 -0.49909631 0.84988192
vn -0.16909448 -0.49911570 0.84987680
vn -0.16906931 -0.49913119 0.84987271
vn -0.03886221 -0.97995585 0.19538748
vn -0.03886221 -0.97995585 0.19538748
vn -0.03886221 -0.97995585 0.19538748
vn -0.19161578 -0.19048483 0.96280783
vn -0.19163872 -0.19046386 0.96280742
vn -0.19161402 -0.19048643 0.96280787
vn -0.19158985 -0.19050852 0.96280830
vn -0.09276692 -0.87988591 0.46604194
vn -0.09279344 -0.87987903 0.46604964
vn -0.09273219 -0.87989491 0.46603185
vn -0.09269046 -0.87990572 0.46601974
vn -0.53769300 -0.19309087 0.82073269
vn -0.53550026 -0.19519711 0.82166755
vn -0.53780632 -0.19298182 0.82068409
vn -0.54007524 -0.19079443 0.81970496
vn -0.26452293 -0.87977215 0.39500454
vn -0.26468401 -0.87973169 0.39498674
vn -0.26431268 -0.87982492 0.39502775
vn -0.26405914 -0.87988849 0.39505571
vn -0.47007887 -0.50624334 0.72301005
vn -0.46303192 -0.51053073 0.72454110
vn -0.47336205 -0.50422671 0.72227681
vn -0.48160815 -0.49910742 0.72037863
vn -0.11082864 -0.97994967 0.16557673
vn -0.11082864 -0.97994967 0.16557673
vn -0.11082864 -0.97994967 0.16557673
vn -0.36635620 -0.88745590 0.27965186
vn -0.35603682 -0.88991682 0.28510670
vn -0.37940278 -0.88414426 0.27265814
vn -0.39522604 -0.87982156 0.26402726
vn -0.65855698 -0.51787819 0.54598982
vn -0.66375347 -0.53657874 0.52107061
vn -0.67079333 -0.56586358 0.47941080
vn -0.66545554 -0.54315401 0.51200845
vn -0.16608023 -0.97992982 0.11024924
vn -0.16608023 -0.97992982 0.11024924
vn -0.16608023 -0.97992982 0.11024924
vn -0.78987770 -0.19746177 0.58060491
vn -0.79145302 -0.20263486 0.57666388
vn -0.79305153 -0.20799770 0.57254364
vn -0.79139004 -0.20242596 0.57682366
vn -0.78989095 -0.57303126 0.21842038
vn -0.78558258 -0.58467382 0.20252539
vn -0.77880548 -0.60104767 0.17945396
vn -0.78461795 -0.58713731 0.19910917
vn -0.19570267 -0.97990804 0.03847980
vn -0.19570267 -0.97990804 0.03847980
vn -0.19570267 -0.97990804 0.03847980
vn -0.95223988 -0.21117061 0.22055880
vn -0.95210157 -0.21570650 0.21673324
vn -0.95193522 -0.22010272 0.21301205
vn -0.95211722 -0.21524422 0.21712377
vn -0.42072864 -0.90048977 0.11002538
vn -0.41393014 -0.90261579 0.11809563
vn -0.42912857 -0.89769571 0.09995537
vn -0.43949747 -0.89398458 0.08737012
vn -0.19570267 -0.97990804 -0.03847980
vn -0.19570267 -0.97990804 -0.03847980
vn -0.19570267 -0.97990804 -0.03847980
vn -0.95011086 -0.21968090 -0.22142640
vn -0.95221414 -0.21514082 -0.21680098
vn -0.95413574 -0.21089790 -0.21247840
vn -0.95202318 -0.21555741 -0.21722539
vn -0.42409502 -0.89883499 -0.11063031
vn -0.42704843 -0.89616736 -0.12047279
vn -0.42029889 -0.90205752 -0.09818900
vn -0.41542475 -0.90587494 -0.08254012
vn -0.77270572 -0.59634015 -0.21749553
vn -0.78485749 -0.58555509 -0.20279043
vn -0.80075925 -0.57045562 -0.18266088
vn -0.78724215 -0.58336477 -0.19983831
vn -0.78679672 -0.20746273 -0.58130038
vn -0.79146575 -0.20227094 -0.57677416
vn -0.79600007 -0.19715593 -0.57228789
vn -0.79130685 -0.20244886 -0.57692974
vn -0.36956954 -0.88547445 -0.28169726
vn -0.36830572 -0.88234628 -0.29294358
vn -0.37112612 -0.88933321 -0.26711764
vn -0.37292777 -0.89380921 -0.24905819
vn -0.63336581 -0.55705872 -0.53715298
vn -0.66115220 -0.53999811 -0.52084529
vn -0.69968462 -0.51412433 -0.49610242
vn -0.66977643 -0.53444050 -0.51553165
vn -0.16608023 -0.97992982 -0.11024924
vn -0.16608023 -0.97992982 -0.11024924
vn -0.16608023 -0.97992982 -0.11024924
vn -0.46303192 -0.51053073 -0.72454110
vn -0.47008032 -0.50624245 -0.72300973
vn -0.48161170 -0.49910520 -0.72037780
vn -0.47336402 -0.50422550 -0.72227636
vn -0.11082864 -0.97994967 -0.16557673
vn -0.11082864 -0.97994967 -0.16557673
vn -0.11082864 -0.97994967 -0.16557673
vn -0.53550026 -0.19519711 -0.82166755
vn -0.53769300 -0.19309087 -0.82073269
vn -0.54007524 -0.19079443 -0.81970496
vn -0.53780632 -0.19298182 -0.82068409
vn -0.26449349 -0.87980191 -0.39495796
vn -0.26457174 -0.87984250 -0.39481511
vn -0.26439148 -0.87974897 -0.39514415
vn -0.26426828 -0.87968499 -0.39536895
vn -0.16912661 -0.49909082 -0.84988502
vn -0.16910189 -0.49910604 -0.84988100
vn -0.16905964 -0.49913203 -0.84987414
vn -0.16908938 -0.49911373 -0.84987897
vn -0.03886221 -0.97995585 -0.19538748
vn -0.03886221 -0.97995585 -0.19538748
vn -0.03886221 -0.97995585 -0.19538748
vn -0.19163872 -0.19046386 -0.96280742
vn -0.19161578 -0.19048483 -0.96280783
vn -0.19158985 -0.19050852 -0.96280830
vn -0.19161402 -0.19048643 -0.96280787
vn -0.09276091 -0.87989176 -0.46603208
vn -0.09278125 -0.87989825 -0.46601578
vn -0.09273427 -0.87988327 -0.46605343
vn -0.09270226 -0.87987306 -0.46607907
vn 0.19151753 -0.19051126 -0.96282215
vn 0.19152000 -0.19051368 -0.96282118
vn 0.19152279 -0.19051642 -0.96282008
vn 0.19152019 -0.19051387 -0.96282111
vn 0.09269689 -0.87990406 -0.46602160
vn 0.09269912 -0.87990348 -0.46602225
vn 0.09269397 -0.87990482 -0.46602075
vn 0.09269046 -0.87990572 -0.46601974
vn 0.16905585 -0.49913236 -0.84987470
vn 0.16905504 -0.49913178 -0.84987520
vn 0.16905365 -0.49913079 -0.84987606
vn 0.16905463 -0.49913149 -0.84987546
vn 0.03886221 -0.97995585 -0.19538748
vn 0.03886221 -0.97995585 -0.19538748
vn 0.03886221 -0.97995585 -0.19538748
vn 0.54539837 -0.19051601 -0.81623787
vn 0.54539395 -0.19051040 -0.81624214
vn 0.54538895 -0.19050405 -0.81624696
vn 0.54539361 -0.19050996 -0.81624247
vn 0.26398513 -0.87990389 -0.39507089
vn 0.26398390 -0.87990419 -0.39507102
vn 0.26398673 -0.87990348 -0.39507071
vn 0.26398866 -0.87990300 -0.39507050
vn 0.48141074 -0.49912979 -0.72049507
vn 0.48141446 -0.49913365 -0.72048992
vn 0.48142081 -0.49914025 -0.72048110
vn 0.48141634 -0.49913560 -0.72048730
vn 0.11068115 -0.97995579 -0.16563914
vn 0.11068115 -0.97995579 -0.16563914
vn 0.11068115 -0.97995579 -0.16563914
vn 0.72048992 -0.49913365 -0.48141446
vn 0.72049507 -0.49912979 -0.48141074
vn 0.72048730 -0.49913560 -0.48141634
vn 0.72048110 -0.49914025 -0.48142081
vn 0.16563914 -0.97995579 -0.11068115
vn 0.16563914 -0.97995579 -0.11068115
vn 0.16563914 -0.97995579 -0.11068115
vn 0.81664995 -0.18997335 -0.54497063
vn 0.81700612 -0.18950365 -0.54460019
vn 0.81662426 -0.19000720 -0.54499732
vn 0.81624696 -0.19050405 -0.54538895
vn 0.39507123 -0.87990366 -0.26398536
vn 0.39507231 -0.87990335 -0.26398476
vn 0.39506982 -0.87990406 -0.26398613
vn 0.39506812 -0.87990455 -0.26398707
vn 0.84987520 -0.49913178 -0.16905504
vn 0.84987470 -0.49913236 -0.16905585
vn 0.84987546 -0.49913149 -0.16905463
vn 0.84987606 -0.49913079 -0.16905365
vn 0.19538748 -0.97995585 -0.03886221
vn 0.19538748 -0.97995585 -0.03886221
vn 0.19538748 -0.97995585 -0.03886221
vn 0.46602083 -0.87990448 -0.09269674
vn 0.46601938 -0.87990506 -0.09269855
vn 0.46602274 -0.87990372 -0.09269436
vn 0.46602502 -0.87990282 -0.09269151
vn 0.46602160 -0.87990406 0.09269689
vn 0.46602225 -0.87990348 0.09269912
vn 0.46602075 -0.87990482 0.09269397
vn 0.46601974 -0.87990572 0.09269046
vn 0.84987532 -0.49913158 0.16905506
vn 0.84987547 -0.49913100 0.16905601
vn 0.84987524 -0.49913187 0.16905458
vn 0.84987505 -0.49913257 0.16905345
vn 0.19538748 -0.97995585 0.03886221
vn 0.19538748 -0.97995585 0.03886221
vn 0.19538748 -0.97995585 0.03886221
vn 0.39507089 -0.87990389 0.26398513
vn 0.39507102 -0.87990419 0.26398390
vn 0.39507071 -0.87990348 0.26398673
vn 0.39507050 -0.87990300 0.26398866
vn 0.72048927 -0.49913500 0.48141403
vn 0.72049073 -0.49913886 0.48140784
vn 0.72048853 -0.49913304 0.48141716
vn 0.72048677 -0.49912840 0.48142460
vn 0.16563914 -0.97995579 0.11068115
vn 0.16563914 -0.97995579 0.11068115
vn 0.16563914 -0.97995579 0.11068115
vn 0.81665324 -0.18998284 0.54496239
vn 0.81686068 -0.19046325 0.54448359
vn 0.81663833 -0.18994834 0.54499676
vn 0.81641822 -0.18943958 0.54550338
vn 0.48141446 -0.49913365 0.72048992
vn 0.48141074 -0.49912979 0.72049507
vn 0.48141634 -0.49913560 0.72048730
vn 0.48142081 -0.49914025 0.72048110
vn 0.11068115 -0.97995579 0.16563914
vn 0.11068115 -0.97995579 0.16563914
vn 0.11068115 -0.97995579 0.16563914
vn 0.54539395 -0.19051040 0.81624214
vn 0.54539837 -0.19051601 0.81623787
vn 0.54539361 -0.19050996 0.81624247
vn 0.54538895 -0.19050405 0.81624696
vn 0.26398536 -0.87990366 0.39507123
vn 0.26398476 -0.87990335 0.39507231
vn 0.26398613 -0.87990406 0.39506982
vn 0.26398707 -0.87990455 0.39506812
vn 0.03886221 -0.97995585 0.19538748
vn 0.03886221 -0.97995585 0.19538748
vn 0.03886221 -0.97995585 0.19538748
vn 0.19152000 -0.19051368 0.96282118
vn 0.19151753 -0.19051126 0.96282215
vn 0.19152019 -0.19051387 0.96282111
vn 0.19152279 -0.19051642 0.96282008
vn 0.09269674 -0.87990448 0.46602083
vn 0.09269855 -0.87990506 0.46601938
vn 0.09269436 -0.87990372 0.46602274
vn 0.09269151 -0.87990282 0.46602502
vn 0.16905504 -0.49913178 0.84987520
vn 0.16905585 -0.49913236 0.84987470
vn 0.16905463 -0.49913149 0.84987546
vn 0.16905365 -0.49913079 0.84987606
vn 0.95173600 -0.21944770 -0.21457234
vn 0.95657765 -0.20654643 -0.20566420
vn 0.96389564 -0.18834603 -0.18823116
vn 0.96438543 -0.19200056 -0.18192452
vn 0.96258282 -0.19353210 -0.18968300
vn 0.96443674 -0.19202627 0.18162510
vn 0.96156650 -0.19243866 0.19585003
vn 0.95662288 -0.22059549 0.19029005
vn 0.95841930 -0.20651380 0.19693778
vn 0.96319212 -0.18371600 0.19623807
vn 0.16636429 -0.97574873 -0.14225803
vn 0.15667327 -0.97910554 -0.12963726
vn 0.15712521 -0.97895506 -0.13022540
vn 0.16693105 -0.97554393 -0.14299674
vn 0.32668134 -0.94422509 0.04145213
vn 0.27041527 -0.95966633 0.07691629
vn 0.27297927 -0.95906645 0.07532504
vn 0.32983717 -0.94321410 0.03942836
vn 0.27315147 -0.95768195 0.09073895
vn 0.22109547 -0.97024048 0.09874310
vn 0.22343030 -0.96974112 0.09839239
vn 0.27618822 -0.95685590 0.09025990
vn 0.22400618 -0.96921257 -0.10221655
vn 0.27447329 -0.95771581 -0.08628344
vn 0.27223509 -0.95828957 -0.08700090
vn 0.22099610 -0.96980442 -0.10315096
vn 0.27546451 -0.95802865 -0.07937516
vn 0.32615086 -0.94464554 -0.03564285
vn 0.32390160 -0.94534271 -0.03761528
vn 0.27255284 -0.95865356 -0.08184310
vn 0.15808370 -0.97889214 0.12953654
vn 0.16570476 -0.97567599 0.14352104
vn 0.16535449 -0.97582988 0.14287737
vn 0.15764560 -0.97906866 0.12873394
vn 0.03886565 -0.97989904 0.19567148
vn 0.03878383 -0.98003945 0.19498331
vn 0.03878759 -0.98003301 0.19501494
vn 0.03887042 -0.97989084 0.19571162
vn -0.03878450 -0.98003953 0.19498275
vn -0.03878183 -0.98004153 0.19497328
vn -0.03878195 -0.98004143 0.19497371
vn -0.03878465 -0.98003942 0.19498331
vn -0.11044215 -0.98004226 0.16528671
vn -0.11043675 -0.98004403 0.16527985
vn -0.11043699 -0.98004395 0.16528016
vn -0.11044246 -0.98004216 0.16528711
vn -0.16530805 -0.98007577 0.11011239
vn -0.16213230 -0.98080423 0.10833362
vn -0.16228561 -0.98076939 0.10841949
vn -0.16549576 -0.98003227 0.11021752
vn -0.16239953 -0.98077822 -0.10816872
vn -0.16527985 -0.98004403 -0.11043675
vn -0.16514639 -0.98007836 -0.11033165
vn -0.16224226 -0.98081790 -0.10804490
vn -0.11043752 -0.98004395 -0.16527978
vn -0.11044179 -0.98004219 -0.16528740
vn -0.11044159 -0.98004227 -0.16528705
vn -0.11043727 -0.98004406 -0.16527933
vn -0.03878266 -0.98004144 -0.19497354
vn -0.03878383 -0.98003945 -0.19498331
vn -0.03878377 -0.98003954 -0.19498286
vn -0.03878260 -0.98004156 -0.19497297
vn 0.03873659 -0.98003343 -0.19502298
vn 0.03892444 -0.97989296 -0.19569024
vn 0.03891578 -0.97989945 -0.19565949
vn 0.03872555 -0.98004167 -0.19498375
vn -0.20585788 -0.97652501 -0.06341488
vn -0.19461678 -0.97875571 -0.06451024
vn -0.19542552 -0.97859972 -0.06443181
vn -0.20674351 -0.97634352 -0.06332812
vn -0.49843302 -0.44672102 -0.74297029
vn -0.28161945 -0.48303986 -0.82907357
vn -0.26232886 -0.48489933 -0.83429983
vn -0.48221168 -0.45052113 -0.75133388
vn -0.28114308 -0.47264363 0.83520450
vn -0.50045477 -0.43626862 0.74780660
vn -0.48399248 -0.44008892 0.75635509
vn -0.26155761 -0.47451179 0.84049163
vn -0.19556949 -0.97877799 0.06120643
vn -0.20585631 -0.97688111 0.05767570
vn -0.20504558 -0.97703510 0.05795453
vn -0.19462177 -0.97894653 0.06153094
f 2//2 4//4 1//1
f 4//4 2//2 3//3
f 5//5 6//6 7//7
f 9//9 11//11 8//8
f 11//11 9//9 10//10
f 13//13 15//15 12//12
f 15//15 13//13 14//14
f 17//17 19//19 16//16
f 19//19 17//17 18//18
f 21//21 23//23 20//20
f 23//23 21//21 22//22
f 25//25 27//27 24//24
f 27//27 25//25 26//26
f 28//28 29//29 30//30
f 32//32 34//34 31//31
f 34//34 32//32 33//33
f 37//37 38//38 35//35
f 35//35 36//36 37//37
f 39//39 40//40 41//41
f 44//44 45//45 42//42
f 42//42 43//43 44//44
f 48//48 49//49 46//46
f 46//46 47//47 48//48
f 50//50 51//51 52//52
f 55//55 56//56 53//53
f 53//53 54//54 55//55
f 58//58 60//60 57//57
f 60//60 58//58 59//59
f 61//61 62//62 63//63
f 66//66 67//67 64//64
f 64//64 65//65 66//66
f 69//69 71//71 68//68
f 71//71 69//69 70//70
f 74//74 75//75 72//72
f 72//72 73//73 74//74
f 78//78 79//79 76//76
f 76//76 77//77 78//78
f 81//81 83//83 80//80
f 83//83 81//81 82//82
f 86//86 87//87 84//84
f 84//84 85//85 86//86
f 88//88 89//89 90//90
f 93//93 94//94 91//91
f 91//91 92//92 93//93
f 95//95 96//96 97//97
f 100//100 101//101 98//98
f 98//98 99//99 100//100
f 103//103 105//105 102//102
f 105//105 103//103 104//104
f 108//108 109//109 106//106
f 106//106 107//107 108//108
f 110//110 111//111 112//112
f 115//115 116//116 113//113
f 113//113 114//114 115//115
f 118//118 120//120 117//117
f 120//120 118//118 119//119
f 123//123 124//124 121//121
f 121//121 122//122 123//123
f 126//126 128//128 125//125
f 128//128 126//126 127//127
f 131//131 132//132 129//129
f 129//129 130//130 131//131
f 133//133 134//134 135//135
f 138//138 139//139 136//136
f 136//136 137//137 138//138
f 141//141 143//143 140//140
f 143//143 141//141 142//142
f 146//146 147//147 144//144
f 144//144 145//145 146//146
f 148//148 149//149 150//150
f 152//152 154//154 151//151
f 154//154 152//152 153//153
f 155//155 156//156 157//157
f 159//159 161//161 158//158
f 161//161 159//159 160//160
f 163//163 165//165 162//162
f 165//165 163//163 164//164
f 167//167 169//169 166//166
f 169//169 167//167 168//168
f 170//170 171//171 172//172
f 174//174 176//176 173//173
f 176//176 174//174 175//175
f 178//178 180//180 177//177
f 180//180 178//178 179//179
f 182//182 184//184 181//181
f 184//184 182//182 183//183
f 185//185 186//186 187//187
f 189//189 191//191 188//188
f 191//191 189//189 190//190
f 193//193 195//195 192//192
f 195//195 193//193 194//194
f 196//196 197//197 198//198
f 200//200 202//202 199//199
f 202//202 200//200 201//201
f 204//204 206//206 203//203
f 206//206 204//204 205//205
f 207//207 208//208 209//209
f 211//211 213//213 210//210
f 213//213 211//211 212//212
f 215//215 217//217 214//214
f 217//217 215//215 216//216
f 218//218 219//219 220//220
f 222//222 224//224 221//221
f 224//224 222//222 223//223
f 226//226 228//228 225//225
f 228//228 226//226 227//227
f 230//230 232//232 229//229
f 232//232 230//230 231//231
f 234//234 237//237 233//233
f 236//236 234//234 235//235
f 234//234 236//236 237//237
f 239//239 242//242 238//238
f 242//242 240//240 241//241
f 240//240 242//242 239//239
f 245//245 246//246 243//243
f 243//243 244//244 245//245
f 247//247 248//248 249//249
f 252//252 253//253 250//250
f 250//250 251//251 252//252
f 256//256 257//257 254//254
f 254//254 255//255 256//256
f 260//260 261//261 258//258
f 258//258 259//259 260//260
f 264//264 265//265 262//262
f 262//262 263//263 264//264
f 268//268 269//269 266//266
f 266//266 267//267 268//268
f 270//270 271//271 272//272
f 275//275 276//276 273//273
f 273//273 274//274 275//275
f 278//278 280//280 277//277
f 280//280 278//278 279//279
f 281//281 282//282 283//283
f 285//285 287//287 284//284
f 287//287 285//285 286//286
f 289//289 291//291 288//288
f 291//291 289//289 290//290
f 292//292 293//293 294//294
f 296//296 298//298 295//295
f 298//298 296//296 297//297
f 301//301 302//302 299//299
f 299//299 300//300 301//301
f 303//303 304//304 305//305
f 307//307 309//309 306//306
f 309//309 307//307 308//308
f 312//312 313//313 310//310
f 310//310 311//311 312//312
f 315//315 317//317 314//314
f 317//317 315//315 316//316
f 319//319 321//321 318//318
f 321//321 319//319 320//320
f 324//324 325//325 322//322
f 322//322 323//323 324//324
f 327//327 329//329 326//326
f 329//329 327//327 328//328
f 330//330 331//331 332//332
f 334//334 336//336 333//333
f 336//336 334//334 335//335
f 337//337 338//338 339//339
f 341//341 343//343 340//340
f 343//343 341//341 342//342
f 346//346 347//347 344//344
f 344//344 345//345 346//346
f 349//349 351//351 348//348
f 351//351 349//349 350//350
f 352//352 353//353 354//354
f 356//356 358//358 355//355
f 358//358 356//356 357//357
f 361//361 362//362 359//359
f 359//359 360//360 361//361
f 364//364 366//366 363//363
f 366//366 364//364 365//365
f 369//369 370//370 367//367
f 367//367 368//368 369//369
f 372//372 374//374 371//371
f 374//374 372//372 373//373
f 375//375 376//376 377//377
f 379//379 381//381 378//378
f 381//381 379//379 380//380
f 384//384 385//385 382//382
f 382//382 383//383 384//384
f 387//387 389//389 386//386
f 389//389 387//387 388//388
f 390//390 391//391 392//392
f 395//395 396//396 393//393
f 393//393 394//394 395//395
f 397//397 398//398 399//399
f 402//402 403//403 400//400
f 400//400 401//401 402//402
f 406//406 407//407 404//404
f 404//404 405//405 406//406
f 410//410 411//411 408//408
f 408//408 409//409 410//410
f 412//412 413//413 414//414
f 417//417 418//418 415//415
f 415//415 416//416 417//417
f 421//421 422//422 419//419
f 419//419 420//420 421//421
f 425//425 426//426 423//423
f 423//423 424//424 425//425
f 427//427 428//428 429//429
f 432//432 433//433 430//430
f 430//430 431//431 432//432
f 436//436 437//437 434//434
f 434//434 435//435 436//436
f 438//438 439//439 440//440
f 443//443 444//444 441//441
f 441//441 442//442 443//443
f 447//447 448//448 445//445
f 445//445 446//446 447//447
f 449//449 450//450 451//451
f 454//454 455//455 452//452
f 452//452 453//453 454//454
f 458//458 459//459 456//456
f 456//456 457//457 458//458
f 460//460 461//461 462//462
f 465//465 466//466 463//463
f 463//463 464//464 465//465
f 469//469 470//470 467//467
f 467//467 468//468 469//469
f 473//473 474//474 471//471
f 471//471 472//472 473//473
f 479//479 475//475 476//476
f 477//477 478//478 479//479
f 479//479 476//476 477//477
f 484//484 480//480 481//481
f 481//481 482//482 483//483
f 483//483 484//484 481//481
f 487//487 488//488 485//485
f 485//485 486//486 487//487
f 491//491 492//492 489//489
f 489//489 490//490 491//491
f 495//495 496//496 493//493
f 493//493 494//494 495//495
f 499//499 500//500 497//497
f 497//497 498//498 499//499
f 503//503 504//504 501//501
f 501//501 502//502 503//503
f 507//507 508//508 505//505
f 505//505 506//506 507//507
f 511//511 512//512 509//509
f 509//509 510//510 511//511
f 515//515 516//516 513//513
f 513//513 514//514 515//515
f 519//519 520//520 517//517
f 517//517 518//518 519//519
f 523//523 524//524 521//521
f 521//521 522//522 523//523
f 527//527 528//528 525//525
f 525//525 526//526 527//527
f 531//531 532//532 529//529
f 529//529 530//530 531//531
f 535//535 536//536 533//533
f 533//533 534//534 535//535
f 539//539 540//540 537//537
f 537//537 538//538 539//539
f 543//543 544//544 541//541
f 541//541 542//542 543//543
f 546//546 548//548 545//545
f 548//548 546//546 547//547
f 551//551 552//552 549//549
f 549//549 550//550 551//551
f 555//555 556//556 553//553
f 553//553 554//554 555//555

o gray_tone2_1
usemtl gray_tone2_1c1c1c
v 0.17519218 0.07392848 -0.13444669
v 0.20193609 0.09370608 0.00000000
v 0.50000000 0.09484136 0.00000000
v 0.47243143 0.07445364 -0.13859919
v 0.17519218 0.07392848 0.13444809
v 0.09903492 0.04333297 0.24842628
v 0.39392144 0.04291229 0.25609743
v 0.47243002 0.07445364 0.13859919
v 0.09903492 0.04333297 0.24842628
v -0.01494465 0.03517843 0.32458493
v 0.27642179 0.03450702 0.33460744
v 0.39392144 0.04291229 0.25609743
v -0.01494465 0.03517843 -0.32458493
v 0.09903492 0.04333297 -0.24842628
v 0.39392144 0.04291229 -0.25609743
v 0.27642316 0.03450702 -0.33460744
v 0.20193609 0.09370608 0.00000000
v 0.17519218 0.07392848 0.13444809
v 0.47243002 0.07445364 0.13859919
v 0.50000000 0.09484136 0.00000000
v 0.09903492 0.04333297 -0.24842628
v 0.17519218 0.07392848 -0.13444669
v 0.47243143 0.07445364 -0.13859919
v 0.39392144 0.04291229 -0.25609743
v 0.18211393 0.03994523 -0.13859919
v 0.47243143 0.03994523 -0.13859919
v 0.50000000 0.06033434 0.00000000
v 0.20968247 0.06033434 0.00000000
v 0.18211393 0.03994523 0.13859919
v 0.47243002 0.03994523 0.13859919
v 0.39392144 0.00840527 0.25609743
v 0.10360391 0.00840527 0.25609743
v 0.10360391 0.00840527 0.25609743
v 0.39392144 0.00840527 0.25609743
v 0.27642179 0.00000000 0.33460744
v -0.01389433 0.00350336 0.33460744
v -0.01389433 0.00350336 -0.33460744
v 0.27642316 0.00000000 -0.33460744
v 0.39392144 0.00840527 -0.25609743
v 0.10360391 0.00840527 -0.25609743
v 0.20968247 0.06033434 0.00000000
v 0.50000000 0.06033434 0.00000000
v 0.47243002 0.03994523 0.13859919
v 0.18211393 0.03994523 0.13859919
v 0.10360391 0.00840527 -0.25609743
v 0.39392144 0.00840527 -0.25609743
v 0.47243143 0.03994523 -0.13859919
v 0.18211393 0.03994523 -0.13859919
v 0.47243143 0.07445364 -0.13859919
v 0.47243143 0.03994523 -0.13859919
v 0.39392144 0.00840527 -0.25609743
v 0.39392144 0.04291229 -0.25609743
v -0.01494465 0.03517843 -0.32458493
v -0.01389433 0.00350336 -0.33460744
v 0.10360391 0.00840527 -0.25609743
v 0.09903492 0.04333297 -0.24842628
v 0.50000000 0.09484136 0.00000000
v 0.50000000 0.06033434 0.00000000
v 0.47243143 0.03994523 -0.13859919
v 0.47243143 0.07445364 -0.13859919
v 0.09903492 0.04333297 -0.24842628
v 0.10360391 0.00840527 -0.25609743
v 0.18211393 0.03994523 -0.13859919
v 0.17519218 0.07392848 -0.13444669
v -0.01494465 0.03517843 0.32458493
v -0.01389433 0.00350336 0.33460744
v 0.27642179 0.00000000 0.33460744
v 0.27642179 0.03450702 0.33460744
v 0.47243002 0.07445364 0.13859919
v 0.47243002 0.03994523 0.13859919
v 0.50000000 0.06033434 0.00000000
v 0.50000000 0.09484136 0.00000000
v 0.17519218 0.07392848 -0.13444669
v 0.18211393 0.03994523 -0.13859919
v 0.20968247 0.06033434 0.00000000
v 0.20193609 0.09370608 0.00000000
v 0.27642316 0.03450702 -0.33460744
v 0.27642316 0.00000000 -0.33460744
v -0.01389433 0.00350336 -0.33460744
v -0.01494465 0.03517843 -0.32458493
v 0.39392144 0.04291229 0.25609743
v 0.39392144 0.00840527 0.25609743
v 0.47243002 0.03994523 0.13859919
v 0.47243002 0.07445364 0.13859919
v 0.20193609 0.09370608 0.00000000
v 0.20968247 0.06033434 0.00000000
v 0.18211393 0.03994523 0.13859919
v 0.17519218 0.07392848 0.13444809
v 0.27642179 0.03450702 0.33460744
v 0.27642179 0.00000000 0.33460744
v 0.39392144 0.00840527 0.25609743
v 0.39392144 0.04291229 0.25609743
v 0.17519218 0.07392848 0.13444809
v 0.18211393 0.03994523 0.13859919
v 0.10360391 0.00840527 0.25609743
v 0.09903492 0.04333297 0.24842628
v 0.09903492 0.04333297 0.24842628
v 0.10360391 0.00840527 0.25609743
v -0.01389433 0.00350336 0.33460744
v -0.01494465 0.03517843 0.32458493
v 0.39392144 0.04291229 -0.25609743
v 0.39392144 0.00840527 -0.25609743
v 0.27642316 0.00000000 -0.33460744
v 0.27642316 0.03450702 -0.33460744
v -0.49320780 0.00583661 0.00000000
v -0.49320780 0.03953987 0.00000000
v -0.49225362 0.03953987 -0.02173056
v -0.49225362 0.00583661 -0.02173056
v -0.48772920 0.00583661 -0.05900683
v -0.48772920 0.03953987 -0.05900683
v -0.48275765 0.03953987 -0.09628309
v -0.48275765 0.00583661 -0.09628309
v -0.48772920 0.03953987 0.05900683
v -0.48772920 0.00583661 0.05900683
v -0.48275765 0.00583661 0.09628309
v -0.48275765 0.03953987 0.09628309
v -0.48275765 0.00583661 -0.09628309
v -0.48275765 0.03953987 -0.09628309
v -0.48107074 0.03953987 -0.11981618
v -0.48366587 0.00908783 -0.13745137
v -0.48275765 0.03953987 0.09628309
v -0.48275765 0.00583661 0.09628309
v -0.48366587 0.00908783 0.13745137
v -0.48107074 0.03953987 0.11981618
v -0.49225362 0.00583661 0.02173056
v -0.49225362 0.03953987 0.02173056
v -0.49320780 0.03953987 0.00000000
v -0.49320780 0.00583661 0.00000000
v -0.49225362 0.00583661 -0.02173056
v -0.49225362 0.03953987 -0.02173056
v -0.48772920 0.03953987 -0.05900683
v -0.48772920 0.00583661 -0.05900683
v -0.49225362 0.03953987 0.02173056
v -0.49225362 0.00583661 0.02173056
v -0.48772920 0.00583661 0.05900683
v -0.48772920 0.03953987 0.05900683
v -0.48896059 0.00580875 0.00000000
v -0.48800641 0.00580875 -0.02173056
v -0.48800641 0.03951201 -0.02173056
v -0.48896059 0.03951201 0.00000000
v -0.48348060 0.00580875 -0.05900683
v -0.47850904 0.00580875 -0.09628309
v -0.47850904 0.03951201 -0.09628309
v -0.48348060 0.03951201 -0.05900683
v -0.48348060 0.03951201 0.05900683
v -0.47850904 0.03951201 0.09628309
v -0.47850904 0.00580875 0.09628309
v -0.48348060 0.00580875 0.05900683
v -0.47850904 0.00580875 -0.09628309
v -0.47941866 0.00905997 -0.14207050
v -0.47682214 0.03951201 -0.11981618
v -0.47850904 0.03951201 -0.09628309
v -0.47850904 0.03951201 0.09628309
v -0.47682214 0.03951201 0.11981618
v -0.47941866 0.00905997 0.14207050
v -0.47850904 0.00580875 0.09628309
v -0.48800641 0.00580875 0.02173056
v -0.48896059 0.00580875 0.00000000
v -0.48896059 0.03951201 0.00000000
v -0.48800641 0.03951201 0.02173056
v -0.48800641 0.00580875 -0.02173056
v -0.48348060 0.00580875 -0.05900683
v -0.48348060 0.03951201 -0.05900683
v -0.48800641 0.03951201 -0.02173056
v -0.48800641 0.03951201 0.02173056
v -0.48348060 0.03951201 0.05900683
v -0.48348060 0.00580875 0.05900683
v -0.48800641 0.00580875 0.02173056
v -0.48107074 0.03953987 0.11981618
v -0.47682214 0.03951201 0.11981618
v -0.47850904 0.03951201 0.09628309
v -0.48275765 0.03953987 0.09628309
v -0.48772920 0.03953987 -0.05900683
v -0.48348060 0.03951201 -0.05900683
v -0.47850904 0.03951201 -0.09628309
v -0.48275765 0.03953987 -0.09628309
v -0.48275765 0.03953987 0.09628309
v -0.47850904 0.03951201 0.09628309
v -0.48348060 0.03951201 0.05900683
v -0.48772920 0.03953987 0.05900683
v -0.49320780 0.00583661 0.00000000
v -0.48896059 0.00580875 0.00000000
v -0.48800641 0.00580875 0.02173056
v -0.49225362 0.00583661 0.02173056
v -0.48275765 0.00583661 0.09628309
v -0.47850904 0.00580875 0.09628309
v -0.47941866 0.00905997 0.14207050
v -0.48366587 0.00908783 0.13745137
v -0.48772920 0.03953987 0.05900683
v -0.48348060 0.03951201 0.05900683
v -0.48800641 0.03951201 0.02173056
v -0.49225362 0.03953987 0.02173056
v -0.49225362 0.00583661 0.02173056
v -0.48800641 0.00580875 0.02173056
v -0.48348060 0.00580875 0.05900683
v -0.48772920 0.00583661 0.05900683
v -0.49225362 0.00583661 -0.02173056
v -0.48800641 0.00580875 -0.02173056
v -0.48896059 0.00580875 0.00000000
v -0.49320780 0.00583661 0.00000000
v -0.48772920 0.00583661 0.05900683
v -0.48348060 0.00580875 0.05900683
v -0.47850904 0.00580875 0.09628309
v -0.48275765 0.00583661 0.09628309
v -0.49320780 0.03953987 0.00000000
v -0.48896059 0.03951201 0.00000000
v -0.48800641 0.03951201 -0.02173056
v -0.49225362 0.03953987 -0.02173056
v -0.49225362 0.03953987 0.02173056
v -0.48800641 0.03951201 0.02173056
v -0.48896059 0.03951201 0.00000000
v -0.49320780 0.03953987 0.00000000
v -0.48275765 0.00583661 -0.09628309
v -0.47850904 0.00580875 -0.09628309
v -0.48348060 0.00580875 -0.05900683
v -0.48772920 0.00583661 -0.05900683
v -0.48366587 0.00908783 -0.13745137
v -0.47941866 0.00905997 -0.14207050
v -0.47850904 0.00580875 -0.09628309
v -0.48275765 0.00583661 -0.09628309
v -0.49225362 0.03953987 -0.02173056
v -0.48800641 0.03951201 -0.02173056
v -0.48348060 0.03951201 -0.05900683
v -0.48772920 0.03953987 -0.05900683
v -0.48275765 0.03953987 -0.09628309
v -0.47850904 0.03951201 -0.09628309
v -0.47682214 0.03951201 -0.11981618
v -0.48107074 0.03953987 -0.11981618
v -0.48772920 0.00583661 -0.05900683
v -0.48348060 0.00580875 -0.05900683
v -0.48800641 0.00580875 -0.02173056
v -0.49225362 0.00583661 -0.02173056
v -0.18100931 0.35724483 -0.02851579
v -0.18100931 0.36688986 -0.02851579
v -0.15249352 0.36688986 -0.04032830
v -0.15249352 0.35724483 -0.04032830
v -0.11216522 0.35724483 0.00000000
v -0.11216522 0.36688986 0.00000000
v -0.12397773 0.36688986 0.02851579
v -0.12397773 0.35724483 0.02851579
v -0.12397773 0.35724483 0.02851579
v -0.12397773 0.36688986 0.02851579
v -0.15249352 0.36688986 0.04032830
v -0.15249352 0.35724483 0.04032830
v -0.15249352 0.35724483 0.04032830
v -0.15249352 0.36688986 0.04032830
v -0.18100931 0.36688986 0.02851579
v -0.18100931 0.35724483 0.02851579
v -0.18100931 0.35724483 0.02851579
v -0.18100931 0.36688986 0.02851579
v -0.19282182 0.36688986 0.00000000
v -0.19282182 0.35724483 0.00000000
v -0.19282182 0.35724483 0.00000000
v -0.19282182 0.36688986 0.00000000
v -0.18100931 0.36688986 -0.02851579
v -0.18100931 0.35724483 -0.02851579
v -0.15249352 0.35724483 -0.04032830
v -0.15249352 0.36688986 -0.04032830
v -0.12397773 0.36688986 -0.02851579
v -0.12397773 0.35724483 -0.02851579
v -0.12397773 0.35724483 -0.02851579
v -0.12397773 0.36688986 -0.02851579
v -0.11216522 0.36688986 0.00000000
v -0.11216522 0.35724483 0.00000000
v -0.12397773 0.36688986 -0.02851579
v -0.15249352 0.36688986 -0.04032830
v -0.15249352 0.37541911 -0.03210412
v -0.12979205 0.37541911 -0.02270147
v -0.11216522 0.36688986 0.00000000
v -0.12397773 0.36688986 -0.02851579
v -0.12979205 0.37541911 -0.02270147
v -0.12038940 0.37541911 0.00000000
v -0.12397773 0.36688986 0.02851579
v -0.11216522 0.36688986 0.00000000
v -0.12038940 0.37541911 0.00000000
v -0.12979205 0.37541911 0.02270147
v -0.15249352 0.36688986 0.04032830
v -0.12397773 0.36688986 0.02851579
v -0.12979205 0.37541911 0.02270147
v -0.15249352 0.37541911 0.03210412
v -0.18100931 0.36688986 0.02851579
v -0.15249352 0.36688986 0.04032830
v -0.15249352 0.37541911 0.03210412
v -0.17519499 0.37541911 0.02270147
v -0.19282182 0.36688986 0.00000000
v -0.18100931 0.36688986 0.02851579
v -0.17519499 0.37541911 0.02270147
v -0.18459764 0.37541911 0.00000000
v -0.18100931 0.36688986 -0.02851579
v -0.19282182 0.36688986 0.00000000
v -0.18459764 0.37541911 0.00000000
v -0.17519499 0.37541911 -0.02270147
v -0.15249352 0.36688986 -0.04032830
v -0.18100931 0.36688986 -0.02851579
v -0.17519499 0.37541911 -0.02270147
v -0.15249352 0.37541911 -0.03210412
v -0.12979205 0.37541911 -0.02270147
v -0.15249352 0.37541911 -0.03210412
v -0.17519499 0.37541911 -0.02270147
v -0.18459764 0.37541911 0.00000000
v -0.17519499 0.37541911 0.02270147
v -0.15249352 0.37541911 0.03210412
v -0.12979205 0.37541911 0.02270147
v -0.12038940 0.37541911 0.00000000
vn -0.00377106 0.98945346 -0.14480203
vn -0.00377042 0.98945364 -0.14480082
vn -0.00376871 0.98945413 -0.14479754
vn -0.00376933 0.98945395 -0.14479873
vn -0.00528249 0.96667359 0.25595755
vn -0.00528160 0.96667284 0.25596038
vn -0.00527965 0.96667122 0.25596654
vn -0.00528052 0.96667195 0.25596379
vn -0.00130071 0.99451988 0.10453955
vn -0.00130166 0.99452046 0.10453399
vn -0.00130364 0.99452169 0.10452227
vn -0.00130273 0.99452113 0.10452767
vn -0.00130406 0.99452040 -0.10453459
vn -0.00130344 0.99452053 -0.10453332
vn -0.00130039 0.99452119 -0.10452711
vn -0.00130100 0.99452106 -0.10452836
vn -0.00376871 0.98945362 0.14480102
vn -0.00376918 0.98945378 0.14479989
vn -0.00377032 0.98945417 0.14479719
vn -0.00376986 0.98945401 0.14479829
vn -0.00527939 0.96667387 -0.25595656
vn -0.00528043 0.96667340 -0.25595831
vn -0.00528376 0.96667190 -0.25596391
vn -0.00528274 0.96667236 -0.25596219
vn 0.00000000 -0.98935206 0.14554207
vn 0.00000000 -0.98935206 0.14554207
vn 0.00000000 -0.98935206 0.14554207
vn 0.00000000 -0.98935206 0.14554207
vn 0.00000000 -0.96580983 -0.25925157
vn 0.00000000 -0.96580983 -0.25925157
vn 0.00000000 -0.96580983 -0.25925157
vn 0.00000000 -0.96580983 -0.25925157
vn -0.01000827 -0.99636134 -0.08463986
vn 0.00000000 -0.99431789 -0.10645151
vn -0.00201720 -0.99477617 -0.10206028
vn -0.01202761 -0.99670369 -0.08023151
vn -0.00388435 -0.99659168 0.08240102
vn -0.01197311 -0.99219211 0.12414291
vn -0.00812252 -0.99451415 0.10428625
vn 0.00000000 -0.99805650 0.06231544
vn 0.00000000 -0.98935206 -0.14554207
vn 0.00000000 -0.98935206 -0.14554207
vn 0.00000000 -0.98935206 -0.14554207
vn 0.00000000 -0.98935206 -0.14554207
vn 0.00000000 -0.96580983 0.25925157
vn 0.00000000 -0.96580983 0.25925157
vn 0.00000000 -0.96580983 0.25925157
vn 0.00000000 -0.96580983 0.25925157
vn 0.83146903 0.00000000 -0.55557111
vn 0.83146903 0.00000000 -0.55557111
vn 0.83146903 0.00000000 -0.55557111
vn 0.83146903 0.00000000 -0.55557111
vn -0.52662027 -0.26862995 0.80654141
vn -0.52670463 -0.27226474 0.80526651
vn -0.52610729 -0.25114919 0.81248705
vn -0.52597846 -0.24751401 0.81368512
vn 0.98078599 0.00000000 -0.19508675
vn 0.98078599 0.00000000 -0.19508675
vn 0.98078599 0.00000000 -0.19508675
vn 0.98078599 0.00000000 -0.19508675
vn -0.77955989 -0.22993164 0.58259577
vn -0.77955677 -0.22993806 0.58259740
vn -0.77954234 -0.22996786 0.58260495
vn -0.77954518 -0.22996199 0.58260346
vn 0.00072144 0.27952380 0.96013849
vn 0.00364173 0.30178274 0.95336977
vn -0.03172415 0.02193700 0.99925590
vn -0.03437800 0.00000000 0.99940890
vn 0.98078408 0.00000000 0.19509636
vn 0.98078408 0.00000000 0.19509636
vn 0.98078408 0.00000000 0.19509636
vn 0.98078408 0.00000000 0.19509636
vn -0.94991994 -0.22053374 0.22139779
vn -0.94992164 -0.22052828 0.22139591
vn -0.94992999 -0.22050154 0.22138673
vn -0.94992843 -0.22050654 0.22138845
vn -0.03437784 0.00000000 -0.99940891
vn -0.03172401 0.02193690 -0.99925590
vn 0.00364171 0.30178274 -0.95336977
vn 0.00072145 0.27952391 -0.96013846
vn 0.83147364 0.00000000 0.55556420
vn 0.83147364 0.00000000 0.55556420
vn 0.83147364 0.00000000 0.55556420
vn 0.83147364 0.00000000 0.55556420
vn -0.94992873 -0.22050124 -0.22139245
vn -0.94992805 -0.22050468 -0.22139193
vn -0.94992417 -0.22052440 -0.22138894
vn -0.94992480 -0.22052120 -0.22138942
vn 0.55556660 0.00000000 0.83147204
vn 0.55556660 0.00000000 0.83147204
vn 0.55556660 0.00000000 0.83147204
vn 0.55556660 0.00000000 0.83147204
vn -0.77955180 -0.22994531 -0.58260119
vn -0.77955211 -0.22994350 -0.58260149
vn -0.77955402 -0.22993252 -0.58260327
vn -0.77955372 -0.22993421 -0.58260299
vn -0.52597846 -0.24751401 -0.81368512
vn -0.52610729 -0.25114919 -0.81248705
vn -0.52670463 -0.27226474 -0.80526651
vn -0.52662027 -0.26862995 -0.80654141
vn 0.55557107 0.00000000 -0.83146905
vn 0.55557107 0.00000000 -0.83146905
vn 0.55557107 0.00000000 -0.83146905
vn 0.55557107 0.00000000 -0.83146905
vn -0.99903736 0.00000000 -0.04386744
vn -0.99903736 0.00000000 -0.04386744
vn -0.99903736 0.00000000 -0.04386744
vn -0.99903736 0.00000000 -0.04386744
vn -0.99122308 0.00000000 -0.13219984
vn -0.99122308 0.00000000 -0.13219984
vn -0.99122308 0.00000000 -0.13219984
vn -0.99122308 0.00000000 -0.13219984
vn -0.99122308 0.00000000 0.13219984
vn -0.99122308 0.00000000 0.13219984
vn -0.99122308 0.00000000 0.13219984
vn -0.99122308 0.00000000 0.13219984
vn -0.99975674 0.00000000 0.02205595
vn -0.99855842 0.05126859 -0.01589370
vn -0.98956585 0.12541026 -0.07093443
vn -0.99887072 0.04597743 -0.01197295
vn -0.99744068 0.00000000 0.07149892
vn -0.99907729 0.04093817 0.01298602
vn -0.99723293 0.06908435 -0.02745615
vn -0.99913650 0.03746113 0.01796997
vn -0.99903736 0.00000000 0.04386744
vn -0.99903736 0.00000000 0.04386744
vn -0.99903736 0.00000000 0.04386744
vn -0.99903736 0.00000000 0.04386744
vn -0.99271441 0.00000000 -0.12049112
vn -0.99271441 0.00000000 -0.12049112
vn -0.99271441 0.00000000 -0.12049112
vn -0.99271441 0.00000000 -0.12049112
vn -0.99271441 0.00000000 0.12049112
vn -0.99271441 0.00000000 0.12049112
vn -0.99271441 0.00000000 0.12049112
vn -0.99271441 0.00000000 0.12049112
vn 0.99903736 0.00000000 0.04386744
vn 0.99903736 0.00000000 0.04386744
vn 0.99903736 0.00000000 0.04386744
vn 0.99903736 0.00000000 0.04386744
vn 0.99122308 0.00000000 0.13219984
vn 0.99122308 0.00000000 0.13219984
vn 0.99122308 0.00000000 0.13219984
vn 0.99122308 0.00000000 0.13219984
vn 0.99122308 0.00000000 -0.13219984
vn 0.99122308 0.00000000 -0.13219984
vn 0.99122308 0.00000000 -0.13219984
vn 0.99122308 0.00000000 -0.13219984
vn 0.99909900 -0.03989133 0.01448683
vn 0.99744441 -0.06708591 -0.02457890
vn 0.99913160 -0.03785880 0.01740009
vn 0.99744068 0.00000000 0.07149892
vn 0.99858031 -0.05131440 -0.01429001
vn 0.98817014 -0.13602306 -0.07083439
vn 0.99877753 -0.04794172 -0.01204300
vn 0.99980273 0.00000000 0.01986218
vn 0.99903736 0.00000000 -0.04386744
vn 0.99903736 0.00000000 -0.04386744
vn 0.99903736 0.00000000 -0.04386744
vn 0.99903736 0.00000000 -0.04386744
vn 0.99270997 0.00000000 0.12052762
vn 0.99270997 0.00000000 0.12052762
vn 0.99270997 0.00000000 0.12052762
vn 0.99270997 0.00000000 0.12052762
vn 0.99270997 0.00000000 -0.12052762
vn 0.99270997 0.00000000 -0.12052762
vn 0.99270997 0.00000000 -0.12052762
vn 0.99270997 0.00000000 -0.12052762
vn 0.00655698 0.99997839 -0.00047002
vn 0.00655698 0.99997839 -0.00047002
vn 0.00655698 0.99997839 -0.00047002
vn 0.00655698 0.99997839 -0.00047002
vn 0.00655698 0.99997812 0.00087451
vn 0.00655698 0.99997812 0.00087451
vn 0.00655698 0.99997812 0.00087451
vn 0.00655698 0.99997812 0.00087451
vn 0.00655698 0.99997812 -0.00087451
vn 0.00655698 0.99997812 -0.00087451
vn 0.00655698 0.99997812 -0.00087451
vn 0.00655698 0.99997812 -0.00087451
vn -0.00655940 -0.99997845 0.00028802
vn -0.00655940 -0.99997845 0.00028802
vn -0.00655940 -0.99997845 0.00028802
vn -0.00655940 -0.99997845 0.00028802
vn -0.01149705 -0.99740619 0.07105434
vn -0.00654084 -0.99747633 0.07069785
vn -0.07966394 -0.99393706 0.07578110
vn -0.08965434 -0.99303479 0.07644611
vn 0.00655698 0.99997819 -0.00079586
vn 0.00655714 0.99997818 -0.00079589
vn 0.00655913 0.99997817 -0.00079636
vn 0.00655896 0.99997817 -0.00079632
vn -0.00655923 -0.99997817 0.00079636
vn -0.00655939 -0.99997817 0.00079639
vn -0.00655741 -0.99997818 0.00079593
vn -0.00655725 -0.99997818 0.00079589
vn -0.00655940 -0.99997845 -0.00028802
vn -0.00655940 -0.99997845 -0.00028802
vn -0.00655940 -0.99997845 -0.00028802
vn -0.00655940 -0.99997845 -0.00028802
vn -0.00655725 -0.99997812 0.00087454
vn -0.00655725 -0.99997812 0.00087454
vn -0.00655725 -0.99997812 0.00087454
vn -0.00655725 -0.99997812 0.00087454
vn 0.00655913 0.99997845 0.00028801
vn 0.00655913 0.99997845 0.00028801
vn 0.00655913 0.99997845 0.00028801
vn 0.00655913 0.99997845 0.00028801
vn 0.00655913 0.99997845 -0.00028801
vn 0.00655913 0.99997845 -0.00028801
vn 0.00655913 0.99997845 -0.00028801
vn 0.00655913 0.99997845 -0.00028801
vn -0.00655725 -0.99997812 -0.00087454
vn -0.00655725 -0.99997812 -0.00087454
vn -0.00655725 -0.99997812 -0.00087454
vn -0.00655725 -0.99997812 -0.00087454
vn -0.07832076 -0.99450948 -0.06940285
vn -0.08154353 -0.99427979 -0.06898086
vn -0.01160593 -0.99688977 -0.07794929
vn -0.00653697 -0.99688607 -0.07858394
vn 0.00655913 0.99997817 0.00079612
vn 0.00655898 0.99997817 0.00079612
vn 0.00655698 0.99997819 0.00079610
vn 0.00655712 0.99997818 0.00079610
vn 0.00655698 0.99997839 0.00047002
vn 0.00655698 0.99997839 0.00047002
vn 0.00655698 0.99997839 0.00047002
vn 0.00655698 0.99997839 0.00047002
vn -0.00655739 -0.99997818 -0.00079613
vn -0.00655725 -0.99997818 -0.00079613
vn -0.00655925 -0.99997817 -0.00079615
vn -0.00655939 -0.99997817 -0.00079615
vn -0.38270792 0.00000000 -0.92386939
vn -0.38270792 0.00000000 -0.92386939
vn -0.38270792 0.00000000 -0.92386939
vn -0.38270792 0.00000000 -0.92386939
vn 0.92386939 0.00000000 0.38270792
vn 0.92386939 0.00000000 0.38270792
vn 0.92386939 0.00000000 0.38270792
vn 0.92386939 0.00000000 0.38270792
vn 0.38270792 0.00000000 0.92386939
vn 0.38270792 0.00000000 0.92386939
vn 0.38270792 0.00000000 0.92386939
vn 0.38270792 0.00000000 0.92386939
vn -0.38270792 0.00000000 0.92386939
vn -0.38270792 0.00000000 0.92386939
vn -0.38270792 0.00000000 0.92386939
vn -0.38270792 0.00000000 0.92386939
vn -0.92386939 0.00000000 0.38270792
vn -0.92386939 0.00000000 0.38270792
vn -0.92386939 0.00000000 0.38270792
vn -0.92386939 0.00000000 0.38270792
vn -0.92386939 0.00000000 -0.38270792
vn -0.92386939 0.00000000 -0.38270792
vn -0.92386939 0.00000000 -0.38270792
vn -0.92386939 0.00000000 -0.38270792
vn 0.38270792 0.00000000 -0.92386939
vn 0.38270792 0.00000000 -0.92386939
vn 0.38270792 0.00000000 -0.92386939
vn 0.38270792 0.00000000 -0.92386939
vn 0.92386939 0.00000000 -0.38270792
vn 0.92386939 0.00000000 -0.38270792
vn 0.92386939 0.00000000 -0.38270792
vn 0.92386939 0.00000000 -0.38270792
vn 0.28578483 0.66511161 -0.68989389
vn 0.28574502 0.66515841 -0.68986526
vn 0.28572793 0.66517849 -0.68985297
vn 0.28577274 0.66512582 -0.68988519
vn 0.68986526 0.66515841 -0.28574502
vn 0.68989389 0.66511161 -0.28578483
vn 0.68988519 0.66512582 -0.28577274
vn 0.68985297 0.66517849 -0.28572793
vn 0.68989350 0.66512410 0.28575671
vn 0.68984510 0.66517090 0.28576462
vn 0.68985979 0.66515669 0.28576222
vn 0.68991426 0.66510402 0.28575332
vn 0.28574502 0.66515841 0.68986526
vn 0.28578483 0.66511161 0.68989389
vn 0.28577274 0.66512582 0.68988519
vn 0.28572793 0.66517849 0.68985297
vn -0.28575671 0.66512410 0.68989350
vn -0.28576462 0.66517090 0.68984510
vn -0.28576222 0.66515669 0.68985979
vn -0.28575332 0.66510402 0.68991426
vn -0.68984510 0.66517090 0.28576462
vn -0.68989350 0.66512410 0.28575671
vn -0.68991426 0.66510402 0.28575332
vn -0.68985979 0.66515669 0.28576222
vn -0.68989389 0.66511161 -0.28578483
vn -0.68986526 0.66515841 -0.28574502
vn -0.68985297 0.66517849 -0.28572793
vn -0.68988519 0.66512582 -0.28577274
vn -0.28576462 0.66517090 -0.68984510
vn -0.28575671 0.66512410 -0.68989350
vn -0.28575332 0.66510402 -0.68991426
vn -0.28576222 0.66515669 -0.68985979
vn 0.00000000 1.00000000 0.00000000
vn 0.00000000 1.00000000 0.00000000
vn 0.00000000 1.00000000 0.00000000
vn 0.00000000 1.00000000 0.00000000
vn 0.00000000 1.00000000 0.00000000
vn 0.00000000 1.00000000 0.00000000
vn 0.00000000 1.00000000 0.00000000
vn 0.00000000 1.00000000 0.00000000
f 558//558 560//560 557//557
f 560//560 558//558 559//559
f 562//562 564//564 561//561
f 564//564 562//562 563//563
f 566//566 568//568 565//565
f 568//568 566//566 567//567
f 570//570 572//572 569//569
f 572//572 570//570 571//571
f 574//574 576//576 573//573
f 576//576 574//574 575//575
f 578//578 580//580 577//577
f 580//580 578//578 579//579
f 583//583 584//584 581//581
f 581//581 582//582 583//583
f 587//587 588//588 585//585
f 585//585 586//586 587//587
f 591//591 592//592 589//589
f 589//589 590//590 591//591
f 595//595 596//596 593//593
f 593//593 594//594 595//595
f 599//599 600//600 597//597
f 597//597 598//598 599//599
f 603//603 604//604 601//601
f 601//601 602//602 603//603
f 607//607 608//608 605//605
f 605//605 606//606 607//607
f 611//611 612//612 609//609
f 609//609 610//610 611//611
f 615//615 616//616 613//613
f 613//613 614//614 615//615
f 618//618 620//620 617//617
f 620//620 618//618 619//619
f 623//623 624//624 621//621
f 621//621 622//622 623//623
f 627//627 628//628 625//625
f 625//625 626//626 627//627
f 630//630 632//632 629//629
f 632//632 630//630 631//631
f 634//634 636//636 633//633
f 636//636 634//634 635//635
f 639//639 640//640 637//637
f 637//637 638//638 639//639
f 642//642 644//644 641//641
f 644//644 642//642 643//643
f 647//647 648//648 645//645
f 645//645 646//646 647//647
f 650//650 652//652 649//649
f 652//652 650//650 651//651
f 654//654 656//656 653//653
f 656//656 654//654 655//655
f 658//658 660//660 657//657
f 660//660 658//658 659//659
f 662//662 664//664 661//661
f 664//664 662//662 663//663
f 666//666 668//668 665//665
f 668//668 666//666 667//667
f 670//670 672//672 669//669
f 672//672 670//670 671//671
f 674//674 676//676 673//673
f 676//676 674//674 675//675
f 678//678 680//680 677//677
f 680//680 678//678 679//679
f 682//682 684//684 681//681
f 684//684 682//682 683//683
f 686//686 688//688 685//685
f 688//688 686//686 687//687
f 690//690 692//692 689//689
f 692//692 690//690 691//691
f 695//695 696//696 693//693
f 693//693 694//694 695//695
f 699//699 700//700 697//697
f 697//697 698//698 699//699
f 703//703 704//704 701//701
f 701//701 702//702 703//703
f 707//707 708//708 705//705
f 705//705 706//706 707//707
f 711//711 712//712 709//709
f 709//709 710//710 711//711
f 715//715 716//716 713//713
f 713//713 714//714 715//715
f 719//719 720//720 717//717
f 717//717 718//718 719//719
f 723//723 724//724 721//721
f 721//721 722//722 723//723
f 726//726 728//728 725//725
f 728//728 726//726 727//727
f 730//730 732//732 729//729
f 732//732 730//730 731//731
f 734//734 736//736 733//733
f 736//736 734//734 735//735
f 739//739 740//740 737//737
f 737//737 738//738 739//739
f 743//743 744//744 741//741
f 741//741 742//742 743//743
f 746//746 748//748 745//745
f 748//748 746//746 747//747
f 751//751 752//752 749//749
f 749//749 750//750 751//751
f 755//755 756//756 753//753
f 753//753 754//754 755//755
f 759//759 760//760 757//757
f 757//757 758//758 759//759
f 762//762 764//764 761//761
f 764//764 762//762 763//763
f 766//766 768//768 765//765
f 768//768 766//766 767//767
f 771//771 772//772 769//769
f 769//769 770//770 771//771
f 775//775 776//776 773//773
f 773//773 774//774 775//775
f 778//778 780//780 777//777
f 780//780 778//778 779//779
f 782//782 784//784 781//781
f 784//784 782//782 783//783
f 787//787 788//788 785//785
f 785//785 786//786 787//787
f 790//790 792//792 789//789
f 792//792 790//790 791//791
f 795//795 796//796 793//793
f 793//793 794//794 795//795
f 799//799 800//800 797//797
f 797//797 798//798 799//799
f 803//803 804//804 801//801
f 801//801 802//802 803//803
f 806//806 808//808 805//805
f 808//808 806//806 807//807
f 810//810 812//812 809//809
f 812//812 810//810 811//811
f 814//814 816//816 813//813
f 816//816 814//814 815//815
f 819//819 820//820 817//817
f 817//817 818//818 819//819
f 822//822 824//824 821//821
f 824//824 822//822 823//823
f 827//827 828//828 825//825
f 825//825 826//826 827//827
f 831//831 832//832 829//829
f 829//829 830//830 831//831
f 835//835 836//836 833//833
f 833//833 834//834 835//835
f 839//839 840//840 837//837
f 837//837 838//838 839//839
f 842//842 844//844 841//841
f 844//844 842//842 843//843
f 846//846 848//848 845//845
f 848//848 846//846 847//847
f 850//850 852//852 849//849
f 852//852 850//850 851//851
f 854//854 860//860 853//853
f 860//860 858//858 859//859
f 858//858 856//856 857//857
f 856//856 854//854 855//855
f 854//854 858//858 860//860
f 858//858 854//854 856//856

