# https://github.com/mikedh/trimesh
mtllib cowboy.mtl

o Leather_0
usemtl Leather_170804
v 0.07750788 0.13466174 -0.18710733
v 0.07758465 0.30985077 -0.18574112
v 0.15356370 0.32198577 -0.15387050
v 0.15501575 0.13466174 -0.15500215
v 0.15501575 0.13466174 -0.15500215
v 0.15356370 0.32198577 -0.15387050
v 0.21650640 0.33203946 0.00001360
v 0.21922551 0.13466174 0.00001360
v 0.21922551 0.13466174 0.00001360
v 0.21650640 0.33203946 0.00001360
v 0.15356370 0.32198577 0.15389770
v 0.15501575 0.13466174 0.15502936
v 0.07750788 0.13466174 0.18713453
v 0.07758405 0.30985077 0.18576833
v 0.00000000 0.29858561 0.21763897
v 0.00000000 0.13466174 0.21923911
v -0.07750788 0.13466174 0.18713453
v -0.07763362 0.30954670 0.18576833
v -0.15353893 0.32213754 0.15389770
v -0.15501575 0.13466174 0.15502936
v -0.15501575 0.13466174 0.15502936
v -0.15353893 0.32213754 0.15389770
v -0.21642057 0.33256784 0.00001360
v -0.21922551 0.13466174 0.00001360
v 0.07975970 0.27326613 -0.07974610
v 0.03987985 0.27326613 -0.09626506
v 0.00000000 0.27326613 -0.11278404
v -0.03987985 0.27326613 -0.09626506
v -0.07975970 0.27326613 -0.07974610
v -0.11279764 0.27326613 0.00001360
v -0.07975970 0.27326613 0.07977330
v -0.03987985 0.27326613 0.09629227
v 0.00000000 0.27326613 0.11281124
v 0.03987985 0.27326613 0.09629227
v 0.07975970 0.27326613 0.07977330
v 0.11279764 0.27326613 0.00001360
v -0.21922551 0.13466174 0.00001360
v -0.21642057 0.33256784 0.00001360
v -0.15353893 0.32213754 -0.15387050
v -0.15501575 0.13466174 -0.15500215
v -0.07750788 0.13466174 -0.18710733
v -0.07763362 0.30954670 -0.18574112
v 0.00000000 0.29858561 -0.21761177
v 0.00000000 0.13466174 -0.21921191
v -0.15501575 0.13466174 0.15502936
v -0.21922551 0.13466174 0.00001360
v -0.22600817 0.11085715 0.00001360
v -0.15981198 0.11085715 0.15982558
v 0.07750788 0.13466174 0.18713453
v 0.00000000 0.13466174 0.21923911
v 0.00000000 0.11085715 0.22602177
v 0.07990599 0.11085715 0.19292338
v -0.21922551 0.13466174 0.00001360
v -0.15501575 0.13466174 -0.15500215
v -0.15981198 0.11085715 -0.15979837
v -0.22600817 0.11085715 0.00001360
v 0.15501575 0.13466174 -0.15500215
v 0.21922551 0.13466174 0.00001360
v 0.22600817 0.11085715 0.00001360
v 0.15981198 0.11085715 -0.15979837
v -0.07750788 0.13466174 0.18713453
v -0.15501575 0.13466174 0.15502936
v -0.15981198 0.11085715 0.15982558
v -0.07990599 0.11085715 0.19292338
v -0.07750788 0.13466174 -0.18710733
v 0.00000000 0.13466174 -0.21921191
v 0.00000000 0.11085715 -0.22599457
v -0.07990599 0.11085715 -0.19289617
v 0.07750788 0.13466174 -0.18710733
v 0.15501575 0.13466174 -0.15500215
v 0.15981198 0.11085715 -0.15979837
v 0.07990599 0.11085715 -0.19289617
v 0.21922551 0.13466174 0.00001360
v 0.15501575 0.13466174 0.15502936
v 0.15981198 0.11085715 0.15982558
v 0.22600817 0.11085715 0.00001360
v 0.07990599 0.11085715 0.19292338
v 0.00000000 0.11085715 0.22602177
v 0.00000000 0.09201200 0.23906660
v 0.08451783 0.09201200 0.20405794
v 0.15981198 0.11085715 -0.15979837
v 0.22600817 0.11085715 0.00001360
v 0.23905300 0.09201200 0.00001360
v 0.16903627 0.09201200 -0.16902267
v -0.22600817 0.11085715 0.00001360
v -0.15981198 0.11085715 -0.15979837
v -0.16903627 0.09201200 -0.16902267
v -0.23905300 0.09201200 0.00001360
v -0.07990599 0.11085715 0.19292338
v -0.15981198 0.11085715 0.15982558
v -0.16903627 0.09201200 0.16904987
v -0.08451783 0.09201200 0.20405794
v 0.22600817 0.11085715 0.00001360
v 0.15981198 0.11085715 0.15982558
v 0.16903627 0.09201200 0.16904987
v 0.23905300 0.09201200 0.00001360
v 0.07990599 0.11085715 -0.19289617
v 0.15981198 0.11085715 -0.15979837
v 0.16903627 0.09201200 -0.16902267
v 0.08451783 0.09201200 -0.20403073
v -0.07990599 0.11085715 -0.19289617
v 0.00000000 0.11085715 -0.22599457
v 0.00000000 0.09201200 -0.23903939
v -0.08451783 0.09201200 -0.20403073
v -0.15981198 0.11085715 0.15982558
v -0.22600817 0.11085715 0.00001360
v -0.23905300 0.09201200 0.00001360
v -0.16903627 0.09201200 0.16904987
v -0.08451783 0.09201200 -0.20403073
v 0.00000000 0.09201200 -0.23903939
v 0.00000000 0.03051712 -0.32729311
v -0.11572048 0.00968554 -0.27935993
v -0.16903627 0.09201200 0.16904987
v -0.23905300 0.09201200 0.00001360
v -0.32730671 0.03051712 0.00001360
v -0.23144095 0.03051712 0.23145455
v 0.08451783 0.09201200 0.20405794
v 0.00000000 0.09201200 0.23906660
v 0.00000000 0.03051712 0.31794006
v 0.11572048 0.00968554 0.27938714
v 0.16903627 0.09201200 -0.16902267
v 0.23905300 0.09201200 0.00001360
v 0.32730671 0.03051712 0.00001360
v 0.23144095 0.03051712 -0.23142735
v -0.23905300 0.09201200 0.00001360
v -0.16903627 0.09201200 -0.16902267
v -0.23144095 0.03051712 -0.23142735
v -0.32730671 0.03051712 0.00001360
v -0.08451783 0.09201200 0.20405794
v -0.16903627 0.09201200 0.16904987
v -0.23144095 0.03051712 0.23145455
v -0.11572048 0.00968554 0.27938714
v 0.23905300 0.09201200 0.00001360
v 0.16903627 0.09201200 0.16904987
v 0.23144095 0.03051712 0.23145455
v 0.32730671 0.03051712 0.00001360
v 0.08451783 0.09201200 -0.20403073
v 0.16903627 0.09201200 -0.16902267
v 0.23144095 0.03051712 -0.23142735
v 0.11572048 0.00968554 -0.27935993
v -0.11572048 0.00968554 0.27938714
v -0.23144095 0.03051712 0.23145455
v -0.26033978 0.12405794 0.35277948
v -0.13016959 0.05645625 0.45842571
v 0.32730671 0.03051712 0.00001360
v 0.23144095 0.03051712 0.23145455
v 0.26033978 0.12405794 0.35277948
v 0.36817618 0.12405794 0.00001360
v 0.11572048 0.00968554 -0.27935993
v 0.23144095 0.03051712 -0.23142735
v 0.26033978 0.12405794 -0.35275227
v 0.13016959 0.05645625 -0.45839851
v -0.11572048 0.00968554 -0.27935993
v 0.00000000 0.03051712 -0.32729311
v 0.00000000 0.03051712 -0.49887260
v -0.13016959 0.05645625 -0.45839851
v -0.23144095 0.03051712 0.23145455
v -0.32730671 0.03051712 0.00001360
v -0.36817618 0.12405794 0.00001360
v -0.26033978 0.12405794 0.35277948
v 0.11572048 0.00968554 0.27938714
v 0.00000000 0.03051712 0.31794006
v 0.00000000 0.03051712 0.49889980
v 0.13016959 0.05645625 0.45842571
v 0.23144095 0.03051712 -0.23142735
v 0.32730671 0.03051712 0.00001360
v 0.36817618 0.12405794 0.00001360
v 0.26033978 0.12405794 -0.35275227
v -0.32730671 0.03051712 0.00001360
v -0.23144095 0.03051712 -0.23142735
v -0.26033978 0.12405794 -0.35275227
v -0.36817618 0.12405794 0.00001360
v 0.00000000 0.03051712 0.31794006
v -0.11572048 0.00968554 0.27938714
v -0.13016959 0.05645625 0.45842571
v 0.00000000 0.03051712 0.49889980
v 0.00000000 0.09201200 0.23906660
v -0.08451783 0.09201200 0.20405794
v -0.11572048 0.00968554 0.27938714
v 0.00000000 0.03051712 0.31794006
v 0.00000000 0.11085715 0.22602177
v 0.00000000 0.09201200 0.23906660
v 0.00000000 0.13466174 0.21923911
v 0.00000000 0.11085715 0.22602177
v 0.00000000 0.13466174 0.21923911
v 0.00000000 0.29858561 0.21763897
v -0.07763362 0.30954670 0.18576833
v -0.07750788 0.13466174 0.18713453
v 0.23144095 0.03051712 0.23145455
v 0.11572048 0.00968554 0.27938714
v 0.13016959 0.05645625 0.45842571
v 0.26033978 0.12405794 0.35277948
v 0.16903627 0.09201200 0.16904987
v 0.08451783 0.09201200 0.20405794
v 0.11572048 0.00968554 0.27938714
v 0.23144095 0.03051712 0.23145455
v 0.15981198 0.11085715 0.15982558
v 0.16903627 0.09201200 0.16904987
v 0.15501575 0.13466174 0.15502936
v 0.15981198 0.11085715 0.15982558
v 0.15501575 0.13466174 0.15502936
v 0.15356370 0.32198577 0.15389770
v 0.07758405 0.30985077 0.18576833
v 0.07750788 0.13466174 0.18713453
v 0.00000000 0.03051712 -0.32729311
v 0.11572048 0.00968554 -0.27935993
v 0.13016959 0.05645625 -0.45839851
v 0.00000000 0.03051712 -0.49887260
v 0.00000000 0.09201200 -0.23903939
v 0.08451783 0.09201200 -0.20403073
v 0.11572048 0.00968554 -0.27935993
v 0.00000000 0.03051712 -0.32729311
v 0.00000000 0.11085715 -0.22599457
v 0.00000000 0.09201200 -0.23903939
v 0.00000000 0.13466174 -0.21921191
v 0.00000000 0.11085715 -0.22599457
v 0.00000000 0.13466174 -0.21921191
v 0.00000000 0.29858561 -0.21761177
v 0.07758465 0.30985077 -0.18574112
v 0.07750788 0.13466174 -0.18710733
v -0.23144095 0.03051712 -0.23142735
v -0.11572048 0.00968554 -0.27935993
v -0.13016959 0.05645625 -0.45839851
v -0.26033978 0.12405794 -0.35275227
v -0.16903627 0.09201200 -0.16902267
v -0.08451783 0.09201200 -0.20403073
v -0.11572048 0.00968554 -0.27935993
v -0.23144095 0.03051712 -0.23142735
v -0.15981198 0.11085715 -0.15979837
v -0.16903627 0.09201200 -0.16902267
v -0.15501575 0.13466174 -0.15500215
v -0.15981198 0.11085715 -0.15979837
v -0.15501575 0.13466174 -0.15500215
v -0.15353893 0.32213754 -0.15387050
v -0.07763362 0.30954670 -0.18574112
v -0.07750788 0.13466174 -0.18710733
v -0.00000060 0.29858561 -0.19324376
v 0.06133469 0.30849179 -0.16494159
v 0.07758465 0.30985077 -0.18574112
v 0.00000000 0.29858561 -0.21761177
v 0.12124392 0.31926850 -0.13664001
v 0.17087460 0.32819598 0.00001360
v 0.21650640 0.33203946 0.00001360
v 0.15356370 0.32198577 -0.15387050
v 0.17087460 0.32819598 0.00001360
v 0.12124392 0.31926850 0.13666721
v 0.15356370 0.32198577 0.15389770
v 0.21650640 0.33203946 0.00001360
v 0.12124392 0.31926850 0.13666721
v 0.06133469 0.30849179 0.16496879
v 0.07758405 0.30985077 0.18576833
v 0.15356370 0.32198577 0.15389770
v -0.00000060 0.29858561 0.19327096
v -0.06138607 0.30813695 0.16496879
v -0.07763362 0.30954670 0.18576833
v 0.00000000 0.29858561 0.21763897
v -0.12123727 0.31931808 0.13666721
v -0.17081959 0.32858044 0.00001360
v -0.21642057 0.33256784 0.00001360
v -0.15353893 0.32213754 0.15389770
v -0.17081959 0.32858044 0.00001360
v -0.12123727 0.31931808 -0.13664001
v -0.15353893 0.32213754 -0.15387050
v -0.21642057 0.33256784 0.00001360
v -0.12123727 0.31931808 -0.13664001
v -0.06138607 0.30813695 -0.16494159
v -0.07763362 0.30954670 -0.18574112
v -0.15353893 0.32213754 -0.15387050
v -0.06138607 0.30813695 0.16496879
v -0.12123727 0.31931808 0.13666721
v -0.15353893 0.32213754 0.15389770
v -0.07763362 0.30954670 0.18576833
v 0.06133469 0.30849179 0.16496879
v -0.00000060 0.29858561 0.19327096
v 0.00000000 0.29858561 0.21763897
v 0.07758405 0.30985077 0.18576833
v 0.06133469 0.30849179 -0.16494159
v 0.12124392 0.31926850 -0.13664001
v 0.15356370 0.32198577 -0.15387050
v 0.07758465 0.30985077 -0.18574112
v -0.06138607 0.30813695 -0.16494159
v -0.00000060 0.29858561 -0.19324376
v 0.00000000 0.29858561 -0.21761177
v -0.07763362 0.30954670 -0.18574112
v 0.00000000 0.27326613 -0.11278404
v 0.03987985 0.27326613 -0.09626506
v 0.06133469 0.30849179 -0.16494159
v -0.00000060 0.29858561 -0.19324376
v 0.07975970 0.27326613 -0.07974610
v 0.11279764 0.27326613 0.00001360
v 0.17087460 0.32819598 0.00001360
v 0.12124392 0.31926850 -0.13664001
v 0.11279764 0.27326613 0.00001360
v 0.07975970 0.27326613 0.07977330
v 0.12124392 0.31926850 0.13666721
v 0.17087460 0.32819598 0.00001360
v 0.07975970 0.27326613 0.07977330
v 0.03987985 0.27326613 0.09629227
v 0.06133469 0.30849179 0.16496879
v 0.12124392 0.31926850 0.13666721
v 0.00000000 0.27326613 0.11281124
v -0.03987985 0.27326613 0.09629227
v -0.06138607 0.30813695 0.16496879
v -0.00000060 0.29858561 0.19327096
v -0.07975970 0.27326613 0.07977330
v -0.11279764 0.27326613 0.00001360
v -0.17081959 0.32858044 0.00001360
v -0.12123727 0.31931808 0.13666721
v -0.11279764 0.27326613 0.00001360
v -0.07975970 0.27326613 -0.07974610
v -0.12123727 0.31931808 -0.13664001
v -0.17081959 0.32858044 0.00001360
v -0.07975970 0.27326613 -0.07974610
v -0.03987985 0.27326613 -0.09626506
v -0.06138607 0.30813695 -0.16494159
v -0.12123727 0.31931808 -0.13664001
v -0.03987985 0.27326613 0.09629227
v -0.07975970 0.27326613 0.07977330
v -0.12123727 0.31931808 0.13666721
v -0.06138607 0.30813695 0.16496879
v 0.03987985 0.27326613 0.09629227
v 0.00000000 0.27326613 0.11281124
v -0.00000060 0.29858561 0.19327096
v 0.06133469 0.30849179 0.16496879
v 0.03987985 0.27326613 -0.09626506
v 0.07975970 0.27326613 -0.07974610
v 0.12124392 0.31926850 -0.13664001
v 0.06133469 0.30849179 -0.16494159
v -0.03987985 0.27326613 -0.09626506
v 0.00000000 0.27326613 -0.11278404
v -0.00000060 0.29858561 -0.19324376
v -0.06138607 0.30813695 -0.16494159
v 0.07420662 0.13351074 -0.17913559
v 0.14892285 0.13337170 -0.14892134
v 0.14921543 0.25504363 -0.14894250
v 0.07607155 0.24249934 -0.17973589
v 0.14892285 0.13337170 -0.14892134
v 0.21061843 0.13336445 0.00001360
v 0.21009975 0.26491233 0.00001360
v 0.14921543 0.25504363 -0.14894250
v 0.21061843 0.13336445 0.00001360
v 0.14892285 0.13337170 0.14894854
v 0.14921543 0.25504363 0.14896970
v 0.21009975 0.26491233 0.00001360
v 0.07420662 0.13351074 0.17916280
v 0.00000000 0.13337896 0.21062961
v 0.00000605 0.23216939 0.21064473
v 0.07607155 0.24249934 0.17976309
v -0.07420662 0.13351074 0.17916280
v -0.14892225 0.13337110 0.14894914
v -0.14920637 0.25518871 0.14896366
v -0.07612475 0.24220615 0.17975160
v -0.14892225 0.13337110 0.14894914
v -0.21061843 0.13336264 0.00001360
v -0.21002722 0.26542616 0.00001360
v -0.14920637 0.25518871 0.14896366
v 0.08243165 0.26516926 -0.08149918
v 0.11642957 0.26535543 0.00001360
v 0.08243165 0.26516926 0.08152639
v 0.04104777 0.26480896 0.09799096
v 0.00001028 0.26476604 0.11468766
v -0.04104535 0.26480654 0.09798128
v -0.08244495 0.26517167 0.08151733
v -0.11644226 0.26536149 0.00001360
v -0.08244495 0.26517167 -0.08149012
v -0.04104535 0.26480654 -0.09795408
v 0.00001028 0.26476604 -0.11466045
v 0.04104777 0.26480896 -0.09796375
v -0.21061843 0.13336264 0.00001360
v -0.14892225 0.13337110 -0.14892194
v -0.14920637 0.25518871 -0.14893645
v -0.21002722 0.26542616 0.00001360
v -0.07420662 0.13351074 -0.17913559
v 0.00000000 0.13337896 -0.21060241
v 0.00000605 0.23216939 -0.21061753
v -0.07612475 0.24220615 -0.17972439
v -0.14892225 0.13337110 0.14894914
v -0.15429517 0.10699672 0.15430877
v -0.21820629 0.10699672 0.00001360
v -0.21061843 0.13336264 0.00001360
v 0.07420662 0.13351074 0.17916280
v 0.07685500 0.10736245 0.18555796
v 0.00000000 0.10699672 0.21821990
v 0.00000000 0.13337896 0.21062961
v -0.21061843 0.13336264 0.00001360
v -0.21820629 0.10699672 0.00001360
v -0.15429517 0.10699672 -0.15428157
v -0.14892225 0.13337110 -0.14892194
v 0.14892285 0.13337170 -0.14892134
v 0.15429517 0.10699672 -0.15428157
v 0.21820629 0.10699672 0.00001360
v 0.21061843 0.13336445 0.00001360
v -0.07420662 0.13351074 0.17916280
v -0.07685500 0.10736245 0.18555796
v -0.15429517 0.10699672 0.15430877
v -0.14892225 0.13337110 0.14894914
v -0.07420662 0.13351074 -0.17913559
v -0.07685500 0.10736245 -0.18553075
v 0.00000000 0.10699672 -0.21819269
v 0.00000000 0.13337896 -0.21060241
v 0.07420662 0.13351074 -0.17913559
v 0.07685500 0.10736245 -0.18553075
v 0.15429517 0.10699672 -0.15428157
v 0.14892285 0.13337170 -0.14892134
v 0.21061843 0.13336445 0.00001360
v 0.21820629 0.10699672 0.00001360
v 0.15429517 0.10699672 0.15430877
v 0.14892285 0.13337170 0.14894854
v 0.07685500 0.10736245 0.18555796
v 0.08202119 0.08642265 0.19786951
v 0.00000000 0.08602670 0.23274639
v 0.00000000 0.10699672 0.21821990
v 0.15429517 0.10699672 -0.15428157
v 0.16490683 0.08579215 -0.16454684
v 0.23309067 0.08567004 0.00001360
v 0.21820629 0.10699672 0.00001360
v -0.21820629 0.10699672 0.00001360
v -0.23309067 0.08567004 0.00001360
v -0.16490683 0.08579215 -0.16454684
v -0.15429517 0.10699672 -0.15428157
v -0.07685500 0.10736245 0.18555796
v -0.08202119 0.08642265 0.19786951
v -0.16490683 0.08579215 0.16457404
v -0.15429517 0.10699672 0.15430877
v 0.21820629 0.10699672 0.00001360
v 0.23309067 0.08567004 0.00001360
v 0.16490683 0.08579215 0.16457404
v 0.15429517 0.10699672 0.15430877
v 0.07685500 0.10736245 -0.18553075
v 0.08197645 0.08638578 -0.19789430
v 0.16490683 0.08579215 -0.16454684
v 0.15429517 0.10699672 -0.15428157
v -0.07685500 0.10736245 -0.18553075
v -0.08197645 0.08638578 -0.19789430
v 0.00000000 0.08591245 -0.23282921
v 0.00000000 0.10699672 -0.21819269
v -0.15429517 0.10699672 0.15430877
v -0.16490683 0.08579215 0.16457404
v -0.23309067 0.08567004 0.00001360
v -0.21820629 0.10699672 0.00001360
v -0.08197645 0.08638578 -0.19789430
v -0.11612066 0.00119271 -0.27749319
v 0.00000000 0.00000000 -0.32570569
v 0.00000000 0.08591245 -0.23282921
v -0.16490683 0.08579215 0.16457404
v -0.23454090 0.02238337 0.23140195
v -0.33047074 0.02240755 0.00001360
v -0.23309067 0.08567004 0.00001360
v 0.08202119 0.08642265 0.19786951
v 0.11619078 0.00119573 0.27752160
v 0.00000000 0.00005924 0.31606125
v 0.00000000 0.08602670 0.23274639
v 0.16490683 0.08579215 -0.16454684
v 0.23454090 0.02238337 -0.23137474
v 0.33047074 0.02240755 0.00001360
v 0.23309067 0.08567004 0.00001360
v -0.23309067 0.08567004 0.00001360
v -0.33047074 0.02240755 0.00001360
v -0.23454090 0.02238337 -0.23137474
v -0.16490683 0.08579215 -0.16454684
v -0.08202119 0.08642265 0.19786951
v -0.11619078 0.00119573 0.27752160
v -0.23454090 0.02238337 0.23140195
v -0.16490683 0.08579215 0.16457404
v 0.23309067 0.08567004 0.00001360
v 0.33047074 0.02240755 0.00001360
v 0.23454090 0.02238337 0.23140195
v 0.16490683 0.08579215 0.16457404
v 0.08197645 0.08638578 -0.19789430
v 0.11612066 0.00119271 -0.27749319
v 0.23454090 0.02238337 -0.23137474
v 0.16490683 0.08579215 -0.16454684
v -0.11619078 0.00119573 0.27752160
v -0.13224066 0.04819253 0.46021690
v -0.26566313 0.11772262 0.35548104
v -0.23454090 0.02238337 0.23140195
v 0.33047074 0.02240755 0.00001360
v 0.37564375 0.11958514 0.00001360
v 0.26566313 0.11772262 0.35548104
v 0.23454090 0.02238337 0.23140195
v 0.11612066 0.00119271 -0.27749319
v 0.13227028 0.04820341 -0.46020418
v 0.26566313 0.11772262 -0.35545384
v 0.23454090 0.02238337 -0.23137474
v -0.11612066 0.00119271 -0.27749319
v -0.13227028 0.04820341 -0.46020418
v 0.00000000 0.02188525 -0.50000000
v 0.00000000 0.00000000 -0.32570569
v -0.23454090 0.02238337 0.23140195
v -0.26566313 0.11772262 0.35548104
v -0.37564375 0.11958514 0.00001360
v -0.33047074 0.02240755 0.00001360
v 0.11619078 0.00119573 0.27752160
v 0.13224066 0.04819253 0.46021690
v 0.00000000 0.02188223 0.50000000
v 0.00000000 0.00005924 0.31606125
v 0.23454090 0.02238337 -0.23137474
v 0.26566313 0.11772262 -0.35545384
v 0.37564375 0.11958514 0.00001360
v 0.33047074 0.02240755 0.00001360
v -0.33047074 0.02240755 0.00001360
v -0.37564375 0.11958514 0.00001360
v -0.26566313 0.11772262 -0.35545384
v -0.23454090 0.02238337 -0.23137474
v 0.00000000 0.00005924 0.31606125
v 0.00000000 0.02188223 0.50000000
v -0.13224066 0.04819253 0.46021690
v -0.11619078 0.00119573 0.27752160
v 0.00000000 0.08602670 0.23274639
v 0.00000000 0.00005924 0.31606125
v -0.11619078 0.00119573 0.27752160
v -0.08202119 0.08642265 0.19786951
v 0.00000000 0.10699672 0.21821990
v 0.00000000 0.08602670 0.23274639
v -0.08202119 0.08642265 0.19786951
v -0.07685500 0.10736245 0.18555796
v 0.00000000 0.13337896 0.21062961
v 0.00000000 0.10699672 0.21821990
v -0.07685500 0.10736245 0.18555796
v -0.07420662 0.13351074 0.17916280
v 0.00000000 0.13337896 0.21062961
v -0.07420662 0.13351074 0.17916280
v -0.07612475 0.24220615 0.17975160
v 0.00000605 0.23216939 0.21064473
v 0.23454090 0.02238337 0.23140195
v 0.26566313 0.11772262 0.35548104
v 0.13224066 0.04819253 0.46021690
v 0.11619078 0.00119573 0.27752160
v 0.16490683 0.08579215 0.16457404
v 0.23454090 0.02238337 0.23140195
v 0.11619078 0.00119573 0.27752160
v 0.08202119 0.08642265 0.19786951
v 0.15429517 0.10699672 0.15430877
v 0.16490683 0.08579215 0.16457404
v 0.08202119 0.08642265 0.19786951
v 0.07685500 0.10736245 0.18555796
v 0.14892285 0.13337170 0.14894854
v 0.15429517 0.10699672 0.15430877
v 0.07685500 0.10736245 0.18555796
v 0.07420662 0.13351074 0.17916280
v 0.14892285 0.13337170 0.14894854
v 0.07420662 0.13351074 0.17916280
v 0.07607155 0.24249934 0.17976309
v 0.14921543 0.25504363 0.14896970
v 0.00000000 0.00000000 -0.32570569
v 0.00000000 0.02188525 -0.50000000
v 0.13227028 0.04820341 -0.46020418
v 0.11612066 0.00119271 -0.27749319
v 0.00000000 0.08591245 -0.23282921
v 0.00000000 0.00000000 -0.32570569
v 0.11612066 0.00119271 -0.27749319
v 0.08197645 0.08638578 -0.19789430
v 0.00000000 0.10699672 -0.21819269
v 0.00000000 0.08591245 -0.23282921
v 0.08197645 0.08638578 -0.19789430
v 0.07685500 0.10736245 -0.18553075
v 0.00000000 0.13337896 -0.21060241
v 0.00000000 0.10699672 -0.21819269
v 0.07685500 0.10736245 -0.18553075
v 0.07420662 0.13351074 -0.17913559
v 0.00000000 0.13337896 -0.21060241
v 0.07420662 0.13351074 -0.17913559
v 0.07607155 0.24249934 -0.17973589
v 0.00000605 0.23216939 -0.21061753
v -0.23454090 0.02238337 -0.23137474
v -0.26566313 0.11772262 -0.35545384
v -0.13227028 0.04820341 -0.46020418
v -0.11612066 0.00119271 -0.27749319
v -0.16490683 0.08579215 -0.16454684
v -0.23454090 0.02238337 -0.23137474
v -0.11612066 0.00119271 -0.27749319
v -0.08197645 0.08638578 -0.19789430
v -0.15429517 0.10699672 -0.15428157
v -0.16490683 0.08579215 -0.16454684
v -0.08197645 0.08638578 -0.19789430
v -0.07685500 0.10736245 -0.18553075
v -0.14892225 0.13337110 -0.14892194
v -0.15429517 0.10699672 -0.15428157
v -0.07685500 0.10736245 -0.18553075
v -0.07420662 0.13351074 -0.17913559
v -0.14892225 0.13337110 -0.14892194
v -0.07420662 0.13351074 -0.17913559
v -0.07612475 0.24220615 -0.17972439
v -0.14920637 0.25518871 -0.14893645
v 0.00001693 0.28994167 -0.19426962
v 0.00000605 0.23216939 -0.21061753
v 0.07607155 0.24249934 -0.17973589
v 0.06311256 0.30010173 -0.16643232
v 0.12344375 0.31088809 -0.13748089
v 0.14921543 0.25504363 -0.14894250
v 0.21009975 0.26491233 0.00001360
v 0.17370009 0.31996247 0.00001360
v 0.17370009 0.31996247 0.00001360
v 0.21009975 0.26491233 0.00001360
v 0.14921543 0.25504363 0.14896970
v 0.12344375 0.31088809 0.13750810
v 0.12344375 0.31088809 0.13750810
v 0.14921543 0.25504363 0.14896970
v 0.07607155 0.24249934 0.17976309
v 0.06311256 0.30010173 0.16645952
v 0.00001693 0.28994167 0.19429682
v 0.00000605 0.23216939 0.21064473
v -0.07612475 0.24220615 0.17975160
v -0.06316153 0.29974568 0.16645287
v -0.12346975 0.31094434 0.13748996
v -0.14920637 0.25518871 0.14896366
v -0.21002722 0.26542616 0.00001360
v -0.17367109 0.32035601 0.00001360
v -0.17367109 0.32035601 0.00001360
v -0.21002722 0.26542616 0.00001360
v -0.14920637 0.25518871 -0.14893645
v -0.12346975 0.31094434 -0.13746275
v -0.12346975 0.31094434 -0.13746275
v -0.14920637 0.25518871 -0.14893645
v -0.07612475 0.24220615 -0.17972439
v -0.06316153 0.29974568 -0.16642567
v -0.06316153 0.29974568 0.16645287
v -0.07612475 0.24220615 0.17975160
v -0.14920637 0.25518871 0.14896366
v -0.12346975 0.31094434 0.13748996
v 0.06311256 0.30010173 0.16645952
v 0.07607155 0.24249934 0.17976309
v 0.00000605 0.23216939 0.21064473
v 0.00001693 0.28994167 0.19429682
v 0.06311256 0.30010173 -0.16643232
v 0.07607155 0.24249934 -0.17973589
v 0.14921543 0.25504363 -0.14894250
v 0.12344375 0.31088809 -0.13748089
v -0.06316153 0.29974568 -0.16642567
v -0.07612475 0.24220615 -0.17972439
v 0.00000605 0.23216939 -0.21061753
v 0.00001693 0.28994167 -0.19426962
v 0.00001028 0.26476604 -0.11466045
v 0.00001693 0.28994167 -0.19426962
v 0.06311256 0.30010173 -0.16643232
v 0.04104777 0.26480896 -0.09796375
v 0.08243165 0.26516926 -0.08149918
v 0.12344375 0.31088809 -0.13748089
v 0.17370009 0.31996247 0.00001360
v 0.11642957 0.26535543 0.00001360
v 0.11642957 0.26535543 0.00001360
v 0.17370009 0.31996247 0.00001360
v 0.12344375 0.31088809 0.13750810
v 0.08243165 0.26516926 0.08152639
v 0.08243165 0.26516926 0.08152639
v 0.12344375 0.31088809 0.13750810
v 0.06311256 0.30010173 0.16645952
v 0.04104777 0.26480896 0.09799096
v 0.00001028 0.26476604 0.11468766
v 0.00001693 0.28994167 0.19429682
v -0.06316153 0.29974568 0.16645287
v -0.04104535 0.26480654 0.09798128
v -0.08244495 0.26517167 0.08151733
v -0.12346975 0.31094434 0.13748996
v -0.17367109 0.32035601 0.00001360
v -0.11644226 0.26536149 0.00001360
v -0.11644226 0.26536149 0.00001360
v -0.17367109 0.32035601 0.00001360
v -0.12346975 0.31094434 -0.13746275
v -0.08244495 0.26517167 -0.08149012
v -0.08244495 0.26517167 -0.08149012
v -0.12346975 0.31094434 -0.13746275
v -0.06316153 0.29974568 -0.16642567
v -0.04104535 0.26480654 -0.09795408
v -0.04104535 0.26480654 0.09798128
v -0.06316153 0.29974568 0.16645287
v -0.12346975 0.31094434 0.13748996
v -0.08244495 0.26517167 0.08151733
v 0.04104777 0.26480896 0.09799096
v 0.06311256 0.30010173 0.16645952
v 0.00001693 0.28994167 0.19429682
v 0.00001028 0.26476604 0.11468766
v 0.04104777 0.26480896 -0.09796375
v 0.06311256 0.30010173 -0.16643232
v 0.12344375 0.31088809 -0.13748089
v 0.08243165 0.26516926 -0.08149918
v -0.04104535 0.26480654 -0.09795408
v -0.06316153 0.29974568 -0.16642567
v 0.00001693 0.28994167 -0.19426962
v 0.00001028 0.26476604 -0.11466045
v 0.13016959 0.05645625 -0.45839851
v 0.26033978 0.12405794 -0.35275227
v 0.26566313 0.11772262 -0.35545384
v 0.13227028 0.04820341 -0.46020418
v 0.26033978 0.12405794 -0.35275227
v 0.36817618 0.12405794 0.00001360
v 0.37564375 0.11958514 0.00001360
v 0.26566313 0.11772262 -0.35545384
v 0.36817618 0.12405794 0.00001360
v 0.26033978 0.12405794 0.35277948
v 0.26566313 0.11772262 0.35548104
v 0.37564375 0.11958514 0.00001360
v 0.13016959 0.05645625 0.45842571
v 0.00000000 0.03051712 0.49889980
v 0.00000000 0.02188223 0.50000000
v 0.13224066 0.04819253 0.46021690
v -0.13016959 0.05645625 0.45842571
v -0.26033978 0.12405794 0.35277948
v -0.26566313 0.11772262 0.35548104
v -0.13224066 0.04819253 0.46021690
v -0.26033978 0.12405794 0.35277948
v -0.36817618 0.12405794 0.00001360
v -0.37564375 0.11958514 0.00001360
v -0.26566313 0.11772262 0.35548104
v -0.36817618 0.12405794 0.00001360
v -0.26033978 0.12405794 -0.35275227
v -0.26566313 0.11772262 -0.35545384
v -0.37564375 0.11958514 0.00001360
v -0.13016959 0.05645625 -0.45839851
v 0.00000000 0.03051712 -0.49887260
v 0.00000000 0.02188525 -0.50000000
v -0.13227028 0.04820341 -0.46020418
v 0.00000000 0.03051712 0.49889980
v -0.13016959 0.05645625 0.45842571
v -0.13224066 0.04819253 0.46021690
v 0.00000000 0.02188223 0.50000000
v 0.26033978 0.12405794 0.35277948
v 0.13016959 0.05645625 0.45842571
v 0.13224066 0.04819253 0.46021690
v 0.26566313 0.11772262 0.35548104
v 0.00000000 0.03051712 -0.49887260
v 0.13016959 0.05645625 -0.45839851
v 0.13227028 0.04820341 -0.46020418
v 0.00000000 0.02188525 -0.50000000
v -0.26033978 0.12405794 -0.35275227
v -0.13016959 0.05645625 -0.45839851
v -0.13227028 0.04820341 -0.46020418
v -0.26566313 0.11772262 -0.35545384
v 0.14921543 0.25504363 -0.14894250
v 0.07607155 0.24249934 -0.17973589
v 0.00000605 0.23216939 -0.21061753
v -0.07612475 0.24220615 -0.17972439
v -0.14920637 0.25518871 -0.14893645
v -0.21002722 0.26542616 0.00001360
v -0.14920637 0.25518871 0.14896366
v -0.07612475 0.24220615 0.17975160
v 0.00000605 0.23216939 0.21064473
v 0.07607155 0.24249934 0.17976309
v 0.14921543 0.25504363 0.14896970
v 0.21009975 0.26491233 0.00001360
vn 0.38267764 0.00703694 -0.92385513
vn 0.38486769 0.00816625 -0.92293563
vn 0.38563633 0.00856291 -0.92261113
vn 0.38350755 0.00746473 -0.92350757
vn 0.92447809 0.01127211 -0.38106849
vn 0.92530958 0.00946274 -0.37909449
vn 0.92461071 0.01098460 -0.38075501
vn 0.92380444 0.01272650 -0.38265310
vn 0.92447054 0.01098587 0.38109517
vn 0.92520056 0.01274573 0.37926438
vn 0.92459313 0.01128032 0.38078905
vn 0.92383781 0.00947291 0.38266692
vn 0.38159153 0.00842659 0.92429265
vn 0.37909205 0.00705133 0.92533210
vn 0.38008400 0.00759690 0.92492077
vn 0.38266550 0.00901808 0.92384295
vn -0.38358900 0.00815289 0.92346793
vn -0.38614680 0.00692825 0.92241132
vn -0.38511903 0.00742054 0.92283707
vn -0.38267299 0.00859103 0.92384391
vn -0.92383680 0.00958731 0.38266650
vn -0.92465223 0.01153821 0.38063780
vn -0.92530527 0.01311443 0.37899626
vn -0.92451843 0.01121680 0.38097226
vn 0.00000000 1.00000000 0.00000000
vn 0.00000000 1.00000000 0.00000000
vn 0.00000000 1.00000000 0.00000000
vn 0.00000000 1.00000000 0.00000000
vn 0.00000000 1.00000000 0.00000000
vn 0.00000000 1.00000000 0.00000000
vn 0.00000000 1.00000000 0.00000000
vn 0.00000000 1.00000000 0.00000000
vn 0.00000000 1.00000000 0.00000000
vn 0.00000000 1.00000000 0.00000000
vn 0.00000000 1.00000000 0.00000000
vn 0.00000000 1.00000000 0.00000000
vn -0.92380007 0.01309309 -0.38265128
vn -0.92467188 0.01121563 -0.38059970
vn -0.92542654 0.00957653 -0.37880602
vn -0.92452683 0.01152917 -0.38094253
vn -0.38267184 0.00694205 -0.92385825
vn -0.37990935 0.00838414 -0.92498572
vn -0.37866273 0.00903416 -0.92549064
vn -0.38153041 0.00753818 -0.92432555
vn -0.89343974 0.25457706 0.37007560
vn -0.89344189 0.25456990 0.37007533
vn -0.89344209 0.25456923 0.37007531
vn -0.89343997 0.25457629 0.37007557
vn 0.37007988 0.25455373 0.89344462
vn 0.37007344 0.25456943 0.89344281
vn 0.37007466 0.25456617 0.89344323
vn 0.37007960 0.25455443 0.89344453
vn -0.89344168 0.25456911 -0.37007640
vn -0.89344034 0.25457627 -0.37007469
vn -0.89344022 0.25457694 -0.37007453
vn -0.89344153 0.25456987 -0.37007622
vn 0.89344034 0.25457627 -0.37007469
vn 0.89344168 0.25456911 -0.37007640
vn 0.89344153 0.25456987 -0.37007622
vn 0.89344022 0.25457694 -0.37007453
vn -0.37007506 0.25455443 0.89344641
vn -0.37007849 0.25457738 0.89343845
vn -0.37007768 0.25457262 0.89344015
vn -0.37007495 0.25455373 0.89344666
vn -0.37007506 0.25455443 -0.89344641
vn -0.37007767 0.25456607 -0.89344202
vn -0.37007818 0.25456891 -0.89344099
vn -0.37007495 0.25455373 -0.89344666
vn 0.37007988 0.25455373 -0.89344462
vn 0.37007331 0.25457247 -0.89344200
vn 0.37007173 0.25457662 -0.89344147
vn 0.37007960 0.25455443 -0.89344453
vn 0.89344189 0.25456990 0.37007533
vn 0.89343974 0.25457706 0.37007560
vn 0.89343997 0.25457629 0.37007557
vn 0.89344209 0.25456923 0.37007531
vn 0.32239295 0.53876719 0.77832686
vn 0.32239576 0.53876627 0.77832633
vn 0.32239567 0.53876645 0.77832625
vn 0.32239262 0.53876783 0.77832656
vn 0.77832299 0.53877439 -0.32239025
vn 0.77832706 0.53876677 -0.32239317
vn 0.77832665 0.53876753 -0.32239288
vn 0.77832269 0.53877496 -0.32239003
vn -0.77832706 0.53876677 -0.32239317
vn -0.77832299 0.53877439 -0.32239025
vn -0.77832269 0.53877496 -0.32239003
vn -0.77832665 0.53876753 -0.32239288
vn -0.32239207 0.53876783 0.77832678
vn -0.32238876 0.53877469 0.77832341
vn -0.32238873 0.53877337 0.77832433
vn -0.32239205 0.53876719 0.77832723
vn 0.77832702 0.53876757 0.32239192
vn 0.77832208 0.53877519 0.32239111
vn 0.77832258 0.53877443 0.32239119
vn 0.77832739 0.53876700 0.32239198
vn 0.32239295 0.53876719 -0.77832686
vn 0.32238739 0.53877329 -0.77832494
vn 0.32238687 0.53877428 -0.77832447
vn 0.32239262 0.53876783 -0.77832656
vn -0.32239207 0.53876783 -0.77832678
vn -0.32239549 0.53876646 -0.77832632
vn -0.32239548 0.53876632 -0.77832641
vn -0.32239205 0.53876719 -0.77832723
vn -0.77832208 0.53877519 0.32239111
vn -0.77832702 0.53876757 0.32239192
vn -0.77832739 0.53876700 0.32239198
vn -0.77832258 0.53877443 0.32239119
vn -0.27190203 0.70368685 -0.65642524
vn -0.31861215 0.73873668 -0.59393132
vn -0.35888745 0.76580614 -0.53361106
vn -0.32012032 0.73980579 -0.59178575
vn -0.55631317 0.79838407 0.23043119
vn -0.55631216 0.79838473 0.23043133
vn -0.55631185 0.79838494 0.23043138
vn -0.55631271 0.79838437 0.23043126
vn 0.27190203 0.70368685 0.65642524
vn 0.30130715 0.72618093 0.61796057
vn 0.32766660 0.74509279 0.58092283
vn 0.30150489 0.72632734 0.61769199
vn 0.55631317 0.79838407 -0.23043119
vn 0.55631216 0.79838473 -0.23043133
vn 0.55631185 0.79838494 -0.23043138
vn 0.55631271 0.79838437 -0.23043126
vn -0.55631194 0.79838507 -0.23043068
vn -0.55631256 0.79838441 -0.23043150
vn -0.55631275 0.79838420 -0.23043175
vn -0.55631223 0.79838477 -0.23043106
vn -0.27189641 0.70368685 0.65642757
vn -0.19467854 0.73873611 0.64526679
vn -0.12354753 0.76580524 0.63109297
vn -0.19209511 0.73980515 0.64481610
vn 0.55631194 0.79838507 0.23043068
vn 0.55631256 0.79838441 0.23043150
vn 0.55631275 0.79838420 0.23043175
vn 0.55631223 0.79838477 0.23043106
vn 0.27189641 0.70368685 -0.65642757
vn 0.19467854 0.73873611 -0.64526679
vn 0.12354753 0.76580524 -0.63109297
vn 0.19209511 0.73980515 -0.64481610
vn 0.26181315 0.93874011 -0.22410017
vn 0.46757107 0.83021834 -0.30350420
vn 0.64474702 0.67191217 -0.36446580
vn 0.49308408 0.81180929 -0.31278389
vn -0.85671608 0.37431282 -0.35486259
vn -0.80565194 0.53176526 -0.26105682
vn -0.79278343 0.55925264 -0.24234462
vn -0.84322438 0.42806421 -0.32516715
vn -0.26181315 0.93874011 0.22410017
vn -0.46757107 0.83021834 0.30350420
vn -0.64474702 0.67191217 0.36446580
vn -0.49308408 0.81180929 0.31278389
vn -0.06698709 0.96402290 0.25724033
vn 0.03710607 0.98668184 0.15837323
vn 0.19542940 0.98071777 0.00000000
vn 0.09381181 0.99027025 0.10278222
vn 0.80565194 0.53176526 -0.26105682
vn 0.85671608 0.37431282 -0.35486259
vn 0.84322438 0.42806421 -0.32516715
vn 0.79278343 0.55925264 -0.24234462
vn 0.08711979 0.96211088 -0.25836563
vn -0.02371533 0.98679526 -0.16022700
vn -0.19542940 0.98071777 0.00000000
vn -0.09122088 0.99095263 -0.09844609
vn -0.72785400 0.61590143 0.30148629
vn -0.85852550 0.43129545 0.27734131
vn -0.88238855 0.38552953 0.26973585
vn -0.78711529 0.54260833 0.29330141
vn 0.85852550 0.43129545 0.27734131
vn 0.72785400 0.61590143 0.30148629
vn 0.78711529 0.54260833 0.29330141
vn 0.88238855 0.38552953 0.26973585
vn -0.17716863 0.98418051 0.00000000
vn 0.01128353 0.99488697 -0.10036235
vn 0.25717570 0.93986182 -0.22476746
vn 0.09796113 0.98455907 -0.14507606
vn -0.24680916 0.76423339 0.59584609
vn -0.29859010 0.72941008 0.61547127
vn -0.33563984 0.70197526 0.62815335
vn -0.29888734 0.72919855 0.61557764
vn -0.32239549 0.53876646 0.77832632
vn -0.32239548 0.53876632 0.77832641
vn -0.37007767 0.25456607 0.89344202
vn -0.37007818 0.25456891 0.89344099
vn -0.38153041 0.00753818 0.92432555
vn -0.37866273 0.00903416 0.92549064
vn -0.37990935 0.00838414 0.92498572
vn -0.38267184 0.00694205 0.92385825
vn -0.35429845 0.77949085 -0.51659135
vn -0.46991499 0.81371987 -0.34211091
vn -0.55793078 0.81284625 -0.16731474
vn -0.48515311 0.81567238 -0.31512701
vn 0.23042907 0.79838356 0.55631479
vn 0.19282576 0.74512837 0.63843710
vn 0.16266423 0.69891637 0.69645980
vn 0.19173615 0.74351009 0.64064810
vn 0.32238739 0.53877329 0.77832494
vn 0.32238687 0.53877428 0.77832447
vn 0.37007331 0.25457247 0.89344200
vn 0.37007173 0.25457662 0.89344147
vn 0.38350682 0.00746568 0.92350787
vn 0.38563373 0.00856290 0.92261222
vn 0.38486576 0.00816658 0.92293643
vn 0.38267763 0.00703825 0.92385512
vn 0.17716863 0.98418051 0.00000000
vn -0.02198385 0.99413039 0.10593143
vn -0.25717570 0.93986182 0.22476746
vn -0.09796113 0.98455907 0.14507606
vn 0.23043332 0.79838456 -0.55631159
vn 0.31509290 0.74512914 -0.58779165
vn 0.37744918 0.69891684 -0.60749269
vn 0.31742692 0.74351077 -0.58858464
vn 0.32239576 0.53876627 -0.77832633
vn 0.32239567 0.53876645 -0.77832625
vn 0.37007344 0.25456943 -0.89344281
vn 0.37007466 0.25456617 -0.89344323
vn 0.38266550 0.00901808 -0.92384295
vn 0.38008230 0.00759596 -0.92492148
vn 0.37908969 0.00705003 -0.92533308
vn 0.38159082 0.00842620 -0.92429294
vn 0.35429845 0.77949085 0.51659135
vn 0.46991499 0.81371987 0.34211091
vn 0.55793078 0.81284625 0.16731474
vn 0.48515311 0.81567238 0.31512701
vn -0.23042907 0.79838356 -0.55631479
vn -0.19282576 0.74512837 -0.63843710
vn -0.16266423 0.69891637 -0.69645980
vn -0.19173615 0.74351009 -0.64064810
vn -0.32238876 0.53877469 -0.77832341
vn -0.32238873 0.53877337 -0.77832433
vn -0.37007849 0.25457738 -0.89343845
vn -0.37007768 0.25457262 -0.89344015
vn -0.38267299 0.00859103 -0.92384391
vn -0.38511903 0.00742054 -0.92283707
vn -0.38614680 0.00692825 -0.92241132
vn -0.38358900 0.00815289 -0.92346793
vn -0.15944068 0.98720751 -0.00000396
vn -0.13371970 0.99054714 -0.03058428
vn -0.12906476 0.99097935 -0.03608627
vn -0.15133883 0.98843465 -0.00966940
vn -0.09908312 0.99465665 -0.02899458
vn -0.08576498 0.99584719 -0.03054082
vn -0.08389133 0.99600010 -0.03075777
vn -0.09623421 0.99492661 -0.02932596
vn -0.08388080 0.99587508 0.03459545
vn -0.09510798 0.99510890 0.02669727
vn -0.09712547 0.99495113 0.02527612
vn -0.08636001 0.99572217 0.03285288
vn -0.13306977 0.98663811 0.09400897
vn -0.13794612 0.98885065 0.05608267
vn -0.13941959 0.98924262 0.04428557
vn -0.13507941 0.98771399 0.07857875
vn 0.15374778 0.98811013 -0.00000381
vn 0.13099027 0.99101465 0.02704634
vn 0.12687519 0.99140518 0.03191320
vn 0.14657560 0.98916255 0.00854607
vn 0.10282843 0.99424418 0.03008025
vn 0.08900812 0.99552677 0.03168592
vn 0.08706432 0.99569146 0.03191110
vn 0.09987319 0.99453492 0.03042428
vn 0.08705255 0.99555689 -0.03589322
vn 0.09870547 0.99473119 -0.02769656
vn 0.10079824 0.99456126 -0.02622240
vn 0.08962498 0.99539216 -0.03408547
vn 0.13803119 0.98561856 -0.09748558
vn 0.14311023 0.98799333 -0.05821211
vn 0.14464202 0.98841449 -0.04599446
vn 0.14012537 0.98677272 -0.08151368
vn 0.15757498 0.98590269 0.05626728
vn 0.13474020 0.98788926 0.07694077
vn 0.12971208 0.98819927 0.08146763
vn 0.15090645 0.98658144 0.06232427
vn -0.13935988 0.98925315 0.04423824
vn -0.14299037 0.98969670 0.00736138
vn -0.14369112 0.98962259 0.00000356
vn -0.14035757 0.98950652 0.03430155
vn -0.15191989 0.98690516 -0.05420840
vn -0.12987522 0.98875279 -0.07416426
vn -0.12502209 0.98904083 -0.07853477
vn -0.14548008 0.98753677 -0.06005564
vn 0.13598847 0.98993730 -0.03913153
vn 0.13918501 0.99024503 -0.00650518
vn 0.13980471 0.99017910 0.00000347
vn 0.13686489 0.99012507 -0.03033722
vn -0.12338765 0.94659531 0.29788051
vn -0.20826815 0.92201323 0.32636787
vn -0.30707010 0.88233586 0.35663902
vn -0.25058447 0.90652811 0.33972667
vn -0.56155138 0.79407492 0.23260496
vn -0.64165979 0.73802533 0.20878538
vn -0.67353098 0.71211972 0.19809475
vn -0.61864658 0.75537993 0.21604994
vn -0.66089857 0.69876356 -0.27375641
vn -0.63026173 0.74907203 -0.20411085
vn -0.61526277 0.76905723 -0.17321287
vn -0.64063979 0.73364695 -0.22658953
vn -0.21348540 0.82993594 -0.51539336
vn -0.26236903 0.85563111 -0.44615905
vn -0.32344620 0.87917624 -0.34990242
vn -0.28939955 0.86731058 -0.40499416
vn 0.12338696 0.94659593 -0.29787885
vn 0.20557234 0.92292630 -0.32549510
vn 0.30136186 0.88497074 -0.35497579
vn 0.24648410 0.90812663 -0.33845475
vn 0.56196896 0.79372875 -0.23277793
vn 0.64388325 0.73621348 -0.20833645
vn 0.67644734 0.70955954 -0.19734300
vn 0.62046764 0.75396636 -0.21576526
vn 0.66344960 0.69592556 0.27481309
vn 0.63234189 0.74746931 0.20355189
vn 0.61700070 0.76797786 0.17181426
vn 0.64286792 0.73172718 0.22648658
vn 0.21364927 0.82964795 0.51578898
vn 0.26419758 0.85612378 0.44413028
vn 0.32722017 0.87997492 0.34434155
vn 0.29205935 0.86801814 0.40155427
vn 0.16741260 0.89923501 -0.40416508
vn 0.24897593 0.87632963 -0.41238012
vn 0.35418869 0.83622770 -0.41865690
vn 0.29726905 0.85945746 -0.41588939
vn -0.16882351 0.89743215 -0.40757105
vn -0.21619431 0.90796227 -0.35897708
vn -0.28080028 0.91550566 -0.28809824
vn -0.24632746 0.91249763 -0.32660504
vn -0.16882343 0.89743215 0.40757108
vn -0.24767434 0.87524724 0.41545120
vn -0.34965262 0.83667864 0.42155888
vn -0.29449033 0.85897685 0.41884868
vn 0.16741268 0.89923501 0.40416505
vn 0.21323525 0.90942237 0.35704577
vn 0.27570078 0.91691601 0.28853788
vn 0.24232294 0.91386353 0.32578066
vn -0.38035385 0.00499025 0.92482758
vn -0.37489204 0.00106271 0.92706787
vn -0.38358120 0.00731738 0.92347816
vn -0.38969672 0.01174017 0.92086841
vn -0.92386676 0.00228814 0.38270744
vn -0.92487411 -0.00120216 0.38027154
vn -0.92556987 -0.00364942 0.37855923
vn -0.92461163 -0.00028679 0.38091109
vn -0.92386315 -0.00364269 -0.38270565
vn -0.92491170 -0.00029751 -0.38018187
vn -0.92571148 0.00229179 -0.37822349
vn -0.92463271 -0.00119297 -0.38085815
vn -0.39038517 0.01175034 -0.92057664
vn -0.38456691 0.00698876 -0.92307066
vn -0.37618745 0.00016478 -0.92654356
vn -0.38246437 0.00527280 -0.92395520
vn 0.37484604 0.01163642 -0.92701404
vn 0.38029335 0.00737655 -0.92483650
vn 0.38838922 0.00101563 -0.92149486
vn 0.38342469 0.00492051 -0.92355904
vn 0.92498387 -0.00057006 -0.38000594
vn 0.92386062 -0.00413586 -0.38270674
vn 0.92468773 -0.00151627 -0.38072340
vn 0.92584424 0.00220440 -0.37789892
vn 0.00934854 -0.99995500 -0.00161524
vn 0.00771470 -0.99997024 -0.00000000
vn 0.00934854 -0.99995500 0.00161524
vn 0.00198076 -0.99999750 -0.00103628
vn 0.00002970 -0.99999688 -0.00249720
vn -0.00158660 -0.99999053 -0.00405213
vn -0.00946283 -0.99995392 0.00161837
vn -0.00375058 -0.99999297 0.00000000
vn -0.00946283 -0.99995392 -0.00161837
vn -0.00158660 -0.99999053 0.00405213
vn 0.00002970 -0.99999688 0.00249720
vn 0.00198076 -0.99999750 0.00103628
vn 0.92494212 -0.00152640 0.38010490
vn 0.92386616 0.00220036 0.38270940
vn 0.92466455 -0.00055828 0.38078229
vn 0.92568581 -0.00414404 0.37827056
vn 0.38464216 0.00521100 0.92305106
vn 0.39039461 0.00011697 0.92064762
vn 0.38261947 0.00699687 0.92387953
vn 0.37730686 0.01167443 0.92601471
vn 0.89283939 -0.25703186 -0.36982759
vn 0.89283788 -0.25704024 -0.36982540
vn 0.89285151 -0.25696450 -0.36984515
vn 0.89285323 -0.25695490 -0.36984765
vn -0.37701109 -0.25589310 -0.89015805
vn -0.37701950 -0.25593219 -0.89014325
vn -0.37705163 -0.25608167 -0.89008665
vn -0.37704381 -0.25604530 -0.89010043
vn 0.89285587 -0.25696480 0.36983441
vn 0.89285848 -0.25695641 0.36983393
vn 0.89283489 -0.25703215 0.36983826
vn 0.89283190 -0.25704175 0.36983881
vn -0.89283601 -0.25702507 0.36984048
vn -0.89283899 -0.25701550 0.36983993
vn -0.89286253 -0.25693993 0.36983561
vn -0.89285992 -0.25694830 0.36983609
vn 0.36281916 -0.25589333 -0.89603619
vn 0.36281086 -0.25591312 -0.89603390
vn 0.36277909 -0.25598882 -0.89602514
vn 0.36278682 -0.25597040 -0.89602727
vn 0.37705556 -0.25593234 0.89012794
vn 0.37707194 -0.25589297 0.89013232
vn 0.37700803 -0.25604661 0.89011520
vn 0.37699059 -0.25608854 0.89011053
vn -0.36279273 -0.25591444 0.89604087
vn -0.36278817 -0.25589326 0.89604876
vn -0.36280597 -0.25597590 0.89601795
vn -0.36281082 -0.25599846 0.89600954
vn -0.89285729 -0.25693843 -0.36984930
vn -0.89285557 -0.25694800 -0.36984680
vn -0.89284198 -0.25702357 -0.36982710
vn -0.89284349 -0.25701520 -0.36982928
vn -0.32762265 -0.53762650 -0.77693059
vn -0.32762769 -0.53769678 -0.77687983
vn -0.32765003 -0.53800903 -0.77665420
vn -0.32764563 -0.53794748 -0.77669869
vn -0.77546750 -0.54357605 0.32120902
vn -0.77558264 -0.54340291 0.32122400
vn -0.77653788 -0.54196350 0.32134791
vn -0.77645108 -0.54209452 0.32133668
vn 0.77645108 -0.54209452 0.32133668
vn 0.77653788 -0.54196350 0.32134791
vn 0.77558264 -0.54340291 0.32122400
vn 0.77546750 -0.54357605 0.32120902
vn 0.31771371 -0.53760409 -0.78105047
vn 0.31774791 -0.53754321 -0.78107846
vn 0.31789866 -0.53727477 -0.78120181
vn 0.31786902 -0.53732757 -0.78117756
vn -0.77646188 -0.54191046 -0.32162090
vn -0.77636989 -0.54208437 -0.32154988
vn -0.77560602 -0.54352513 -0.32096065
vn -0.77567618 -0.54339304 -0.32101474
vn -0.31783145 -0.53772675 0.78091812
vn -0.31783888 -0.53782748 0.78084573
vn -0.31780503 -0.53736871 0.78117529
vn -0.31779637 -0.53725148 0.78125944
vn 0.32778426 -0.53800380 0.77660118
vn 0.32788379 -0.53782603 0.77668229
vn 0.32742927 -0.53863739 0.77631169
vn 0.32731379 -0.53884336 0.77621745
vn 0.77567618 -0.54339304 -0.32101474
vn 0.77560602 -0.54352513 -0.32096065
vn 0.77636989 -0.54208437 -0.32154988
vn 0.77646188 -0.54191046 -0.32162090
vn 0.26830653 -0.70950076 0.65162894
vn 0.26266717 -0.71284672 0.65027342
vn 0.26727587 -0.71011518 0.65138317
vn 0.27421358 -0.70595407 0.65302049
vn 0.53210413 -0.81746775 -0.22048055
vn 0.53231316 -0.81725250 -0.22077377
vn 0.53179666 -0.81778394 -0.22004942
vn 0.53148031 -0.81810871 -0.21960604
vn -0.25084848 -0.69039120 -0.67855363
vn -0.21495742 -0.71146060 -0.66904195
vn -0.24473731 -0.69408699 -0.67701322
vn -0.28909408 -0.66622500 -0.68743644
vn -0.53210413 -0.81746775 0.22048055
vn -0.53231316 -0.81725250 0.22077377
vn -0.53179666 -0.81778394 0.22004942
vn -0.53148031 -0.81810871 0.21960604
vn 0.53173638 -0.81774804 0.22032832
vn 0.53138415 -0.81796070 0.22038869
vn 0.53225758 -0.81743299 0.22023889
vn 0.53278653 -0.81711283 0.22014800
vn 0.17999533 -0.75736347 -0.62769599
vn 0.14390017 -0.70588345 -0.69355699
vn 0.17577282 -0.75155907 -0.63581670
vn 0.22264642 -0.81243280 -0.53887059
vn -0.53173638 -0.81774804 -0.22032832
vn -0.53138415 -0.81796070 -0.22038869
vn -0.53225758 -0.81743299 -0.22023889
vn -0.53278653 -0.81711283 -0.22014800
vn -0.17991247 -0.75728198 0.62781805
vn -0.14385408 -0.70577832 0.69367353
vn -0.17573369 -0.75152920 0.63586282
vn -0.22253771 -0.81240496 0.53895746
vn -0.46153834 -0.81942428 0.33989146
vn -0.55290383 -0.81740519 0.16169761
vn -0.47821496 -0.82138916 0.31085416
vn -0.34198100 -0.78462984 0.51711219
vn 0.84928970 -0.45029129 0.27558076
vn 0.87360038 -0.40609319 0.26816172
vn 0.78086420 -0.55297386 0.29063897
vn 0.72139679 -0.62464169 0.29901409
vn 0.46144513 -0.81951040 -0.33981038
vn 0.55284412 -0.81749031 -0.16147129
vn 0.47811521 -0.82147742 -0.31077436
vn 0.34182238 -0.78465831 -0.51717386
vn -0.14992512 -0.97417465 -0.16883779
vn -0.25360188 -0.94197052 -0.21994916
vn -0.18480249 -0.96497849 -0.18618419
vn -0.06180040 -0.99031216 -0.12434847
vn -0.72139679 -0.62464169 0.29901409
vn -0.78086420 -0.55297386 0.29063897
vn -0.87360038 -0.40609319 0.26816172
vn -0.84928970 -0.45029129 0.27558076
vn 0.13785826 -0.97697428 0.16283845
vn 0.25360207 -0.94195160 0.22002993
vn 0.18015147 -0.96628887 0.18393280
vn 0.04873397 -0.99185547 0.11767640
vn 0.79911877 -0.54227615 -0.25951063
vn 0.78620701 -0.56934195 -0.24026709
vn 0.83482935 -0.44701638 -0.32130407
vn 0.84882274 -0.39457530 -0.35186686
vn -0.84882274 -0.39457530 -0.35186686
vn -0.83482935 -0.44701638 -0.32130407
vn -0.78620701 -0.56934195 -0.24026709
vn -0.79911877 -0.54227615 -0.25951063
vn -0.14351204 -0.97074985 0.19248124
vn -0.22693633 -0.96712670 0.11474251
vn -0.17711881 -0.97081924 0.16167536
vn -0.08931435 -0.96646444 0.24076841
vn 0.24894397 -0.69629770 -0.67319864
vn 0.22542537 -0.67802799 -0.69961521
vn 0.24479780 -0.69313506 -0.67796595
vn 0.27144903 -0.71301507 -0.64647114
vn 0.32751910 -0.53803488 -0.77669151
vn 0.32756519 -0.53795234 -0.77672925
vn 0.32774711 -0.53762639 -0.77687817
vn 0.32770756 -0.53769727 -0.77684580
vn 0.37699059 -0.25608854 -0.89011053
vn 0.37700803 -0.25604661 -0.89011520
vn 0.37707194 -0.25589297 -0.89013232
vn 0.37705556 -0.25593234 -0.89012794
vn 0.39039461 0.00011697 -0.92064762
vn 0.38464216 0.00521100 -0.92305106
vn 0.37730686 0.01167443 -0.92601471
vn 0.38261947 0.00699687 -0.92387953
vn 0.45894614 -0.83644877 0.29953612
vn 0.63822650 -0.67943895 0.36198018
vn 0.48646300 -0.81699109 0.30964383
vn 0.25430579 -0.94178623 0.21992556
vn -0.18474749 -0.74671838 -0.63896793
vn -0.10495207 -0.77371954 -0.62477447
vn -0.17512482 -0.75028974 -0.63749243
vn -0.26603190 -0.71298010 -0.64875758
vn -0.31779637 -0.53725148 -0.78125944
vn -0.31780167 -0.53732324 -0.78120793
vn -0.31782245 -0.53760467 -0.78100583
vn -0.31781788 -0.53754281 -0.78105027
vn -0.36281082 -0.25599846 -0.89600954
vn -0.36280597 -0.25597590 -0.89601795
vn -0.36278817 -0.25589326 -0.89604876
vn -0.36279273 -0.25591444 -0.89604087
vn -0.37489204 0.00106271 -0.92706787
vn -0.38035385 0.00499025 -0.92482758
vn -0.38969672 0.01174017 -0.92086841
vn -0.38358120 0.00731738 -0.92347816
vn 0.15645371 -0.96859024 -0.19327490
vn 0.22868170 -0.96591644 -0.12128523
vn 0.18305693 -0.96878300 -0.16718149
vn 0.10899658 -0.96496982 -0.23864827
vn -0.26805029 -0.71044901 0.65070058
vn -0.26461535 -0.70792528 0.65484389
vn -0.26737214 -0.70995220 0.65152131
vn -0.27143200 -0.71291585 0.64658770
vn -0.32762949 -0.53862529 0.77623560
vn -0.32764055 -0.53877877 0.77612441
vn -0.32758453 -0.53800266 0.77668624
vn -0.32757182 -0.53782703 0.77681322
vn -0.37704381 -0.25604530 0.89010043
vn -0.37705163 -0.25608167 0.89008665
vn -0.37701950 -0.25593219 0.89014325
vn -0.37701109 -0.25589310 0.89015805
vn -0.38456691 0.00698876 0.92307066
vn -0.39038517 0.01175034 0.92057664
vn -0.38246437 0.00527280 0.92395520
vn -0.37618745 0.00016478 0.92654356
vn -0.45886726 -0.83651578 -0.29946984
vn -0.63829476 -0.67939992 -0.36193307
vn -0.48638225 -0.81706620 -0.30957250
vn -0.25416308 -0.94183875 -0.21986565
vn 0.18465095 -0.74668089 0.63903965
vn 0.10488569 -0.77369301 0.62481847
vn 0.17511953 -0.75022127 0.63757447
vn 0.26602284 -0.71288077 0.64887044
vn 0.31791504 -0.53737579 0.78112565
vn 0.31796351 -0.53728953 0.78116526
vn 0.31771736 -0.53772747 0.78096405
vn 0.31766143 -0.53782693 0.78091831
vn 0.36278682 -0.25597040 0.89602727
vn 0.36277909 -0.25598882 0.89602514
vn 0.36281086 -0.25591312 0.89603390
vn 0.36281916 -0.25589333 0.89603619
vn 0.38029335 0.00737655 0.92483650
vn 0.37484604 0.01163642 0.92701404
vn 0.38342469 0.00492051 0.92355904
vn 0.38838922 0.00101563 0.92149486
vn -0.33940390 -0.26786737 0.90169400
vn -0.33344560 -0.25663929 0.90716609
vn -0.34170058 -0.27221454 0.89952207
vn -0.34822318 -0.28462037 0.89315836
vn -0.82847695 -0.45058898 0.33255903
vn -0.81600117 -0.46865681 0.33838275
vn -0.78039405 -0.51600365 0.35316478
vn -0.79182315 -0.50142849 0.34869121
vn -0.78943434 -0.52198117 -0.32300011
vn -0.79695786 -0.50329869 -0.33398891
vn -0.81539588 -0.45083147 -0.36315361
vn -0.80971575 -0.46819829 -0.35376654
vn -0.35593624 -0.34269928 -0.86940589
vn -0.34431905 -0.31461387 -0.88456911
vn -0.33068422 -0.28237194 -0.90050765
vn -0.34141631 -0.30768723 -0.88812357
vn 0.35668421 -0.25443318 -0.89891052
vn 0.34360495 -0.26750789 -0.90020840
vn 0.32852283 -0.28232790 -0.90131222
vn 0.33960584 -0.27146400 -0.90054160
vn 0.80930187 -0.46838184 -0.35446993
vn 0.81498850 -0.45105800 -0.36378622
vn 0.79648185 -0.50354203 -0.33475675
vn 0.78895506 -0.52218150 -0.32384626
vn 0.79134806 -0.50164769 0.34945363
vn 0.77991392 -0.51619749 0.35394129
vn 0.81558655 -0.46886568 0.33909225
vn 0.82807750 -0.45081522 0.33324659
vn 0.33879056 -0.31231224 0.88751452
vn 0.31635564 -0.32911993 0.88971860
vn 0.34532060 -0.30733520 0.88673489
vn 0.37069719 -0.28761930 0.88309611
vn 0.37069719 -0.28761930 -0.88309611
vn 0.34532060 -0.30733520 -0.88673489
vn 0.31635564 -0.32911993 -0.88971860
vn 0.33879056 -0.31231224 -0.88751452
vn -0.34822318 -0.28462037 -0.89315836
vn -0.34170058 -0.27221454 -0.89952207
vn -0.33344560 -0.25663929 -0.90716609
vn -0.33940390 -0.26786737 -0.90169400
vn -0.34141631 -0.30768723 0.88812357
vn -0.33068422 -0.28237194 0.90050765
vn -0.34431905 -0.31461387 0.88456911
vn -0.35593624 -0.34269928 0.86940589
vn 0.33960584 -0.27146400 0.90054160
vn 0.32852283 -0.28232790 0.90131222
vn 0.34360495 -0.26750789 0.90020840
vn 0.35668421 -0.25443318 0.89891052
vn 0.21403229 -0.90840985 -0.35914025
vn 0.27546628 -0.91657713 -0.28983565
vn 0.24105501 -0.91293891 -0.32929474
vn 0.16719194 -0.89725986 -0.40862158
vn 0.63188736 -0.74743471 -0.20508465
vn 0.61685515 -0.76741580 -0.17482198
vn 0.64318205 -0.73066740 -0.22900217
vn 0.66344585 -0.69580577 -0.27512532
vn 0.64474016 -0.73485709 0.21046421
vn 0.67608900 -0.70906559 0.20032386
vn 0.62009318 -0.75364763 0.21794423
vn 0.56414781 -0.79197208 0.23348977
vn 0.25000439 -0.87413632 0.41639345
vn 0.35239937 -0.83458520 0.42341733
vn 0.29470370 -0.85831501 0.42005366
vn 0.17000149 -0.89716583 0.40766770
vn -0.21106240 -0.90984972 0.35724803
vn -0.27039082 -0.91793691 0.29031126
vn -0.23708999 -0.91427209 0.32847356
vn -0.16577931 -0.89906274 0.40522021
vn -0.63390243 -0.74588838 0.20449508
vn -0.61852209 -0.76639741 0.17339385
vn -0.64535343 -0.72878471 0.22889256
vn -0.66594428 -0.69300007 0.27616862
vn -0.64691568 -0.73307682 -0.20999639
vn -0.67895437 -0.70653874 -0.19955945
vn -0.62184621 -0.75228772 -0.21764762
vn -0.56452277 -0.79166250 -0.23363331
vn -0.25137090 -0.87519781 -0.41332974
vn -0.35686502 -0.83413040 -0.42056372
vn -0.29738097 -0.85882629 -0.41711146
vn -0.16868536 -0.89896677 -0.40423259
vn -0.26589794 -0.85549990 0.44431768
vn -0.32819321 -0.88010289 0.34308618
vn -0.29212063 -0.86719985 0.40327405
vn -0.21394305 -0.82717299 0.51962796
vn 0.20645711 -0.92166825 0.32848606
vn 0.30055423 -0.88375074 0.35868062
vn 0.24475343 -0.90759389 0.34112914
vn 0.12273691 -0.94625322 0.29923318
vn 0.26404553 -0.85498591 -0.44640682
vn 0.32451316 -0.87927883 -0.34865449
vn 0.28954738 -0.86648803 -0.40664580
vn 0.21376409 -0.82749410 -0.51919016
vn -0.20374943 -0.92257642 -0.32762618
vn -0.29488611 -0.88632847 -0.35702104
vn -0.24069991 -0.90914725 -0.33987474
vn -0.12270562 -0.94625101 -0.29925298
vn 0.49983310 0.30462252 -0.81078480
vn 0.30456014 0.56843609 -0.76427975
vn 0.29821752 0.57535122 -0.76160179
vn 0.49331654 0.31542644 -0.81064478
vn 0.70090502 0.68031277 -0.21425846
vn 0.50981009 0.84488058 -0.16208172
vn 0.50711008 0.84664664 -0.16133454
vn 0.69823195 0.68328077 -0.21354048
vn 0.50761754 0.84749387 0.15517274
vn 0.69646408 0.68336354 0.21897959
vn 0.69871553 0.68081385 0.21974782
vn 0.51129822 0.84505092 0.15640677
vn 0.23187314 0.25560437 0.93856340
vn 0.27253169 0.12160696 0.95443084
vn 0.27071579 0.12805154 0.95410469
vn 0.23014035 0.26089121 0.93753464
vn -0.48357459 0.30753722 0.81949769
vn -0.30931948 0.58095590 0.75286898
vn -0.31499584 0.57373758 0.75604418
vn -0.48743525 0.29990727 0.82003812
vn -0.70090502 0.68031277 0.21425846
vn -0.50981009 0.84488058 0.16208172
vn -0.50711008 0.84664664 0.16133454
vn -0.69823195 0.68328077 0.21354048
vn -0.50761754 0.84749387 -0.15517274
vn -0.69646408 0.68336354 -0.21897959
vn -0.69871553 0.68081385 -0.21974782
vn -0.51129822 0.84505092 -0.15640677
vn -0.23775919 0.26497812 -0.93448230
vn -0.26218323 0.12988307 -0.95623760
vn -0.26297152 0.12495104 -0.95667822
vn -0.23882632 0.25966287 -0.93570144
vn -0.26282646 0.12687180 0.95646526
vn -0.23843746 0.26242756 0.93502907
vn -0.23950232 0.25710156 0.93623578
vn -0.26361324 0.12192062 0.95689259
vn 0.30451447 0.56831750 0.76438613
vn 0.50156269 0.30146641 0.81089634
vn 0.49499286 0.31241029 0.81079090
vn 0.29811307 0.57529803 0.76168286
vn 0.27186668 0.12463132 -0.95423034
vn 0.23122223 0.25816563 -0.93802281
vn 0.22949456 0.26342203 -0.93698510
vn 0.27004954 0.13105806 -0.95388523
vn -0.30931948 0.58095590 -0.75286898
vn -0.48201392 0.31059554 -0.81926369
vn -0.48585476 0.30304207 -0.81982355
vn -0.31494296 0.57380526 -0.75601485
vn -0.17090398 0.98527705 0.00457829
vn -0.03794460 0.99728001 -0.06318856
vn -0.00185318 0.94971320 -0.31311565
vn 0.02842134 0.99093584 -0.13129502
vn 0.17675239 0.98424495 0.00452546
vn 0.07553036 0.99714350 -0.00000000
vn 0.17675239 0.98424495 -0.00452546
vn 0.02842134 0.99093584 0.13129502
vn -0.00185318 0.94971320 0.31311565
vn -0.03794460 0.99728001 0.06318856
vn -0.17090398 0.98527705 -0.00457829
vn -0.16622703 0.98608751 -0.00000000
f 2//2 4//4 1//1
f 4//4 2//2 3//3
f 7//7 8//8 5//5
f 5//5 6//6 7//7
f 11//11 12//12 9//9
f 9//9 10//10 11//11
f 15//15 16//16 13//13
f 13//13 14//14 15//15
f 19//19 20//20 17//17
f 17//17 18//18 19//19
f 22//22 24//24 21//21
f 24//24 22//22 23//23
f 26//26 36//36 25//25
f 36//36 34//34 35//35
f 34//34 32//32 33//33
f 32//32 30//30 31//31
f 30//30 28//28 29//29
f 28//28 26//26 27//27
f 26//26 34//34 36//36
f 34//34 30//30 32//32
f 30//30 26//26 28//28
f 26//26 30//30 34//34
f 38//38 40//40 37//37
f 40//40 38//38 39//39
f 42//42 44//44 41//41
f 44//44 42//42 43//43
f 46//46 48//48 45//45
f 48//48 46//46 47//47
f 51//51 52//52 49//49
f 49//49 50//50 51//51
f 54//54 56//56 53//53
f 56//56 54//54 55//55
f 59//59 60//60 57//57
f 57//57 58//58 59//59
f 63//63 64//64 61//61
f 61//61 62//62 63//63
f 66//66 68//68 65//65
f 68//68 66//66 67//67
f 70//70 72//72 69//69
f 72//72 70//70 71//71
f 75//75 76//76 73//73
f 73//73 74//74 75//75
f 79//79 80//80 77//77
f 77//77 78//78 79//79
f 83//83 84//84 81//81
f 81//81 82//82 83//83
f 86//86 88//88 85//85
f 88//88 86//86 87//87
f 91//91 92//92 89//89
f 89//89 90//90 91//91
f 95//95 96//96 93//93
f 93//93 94//94 95//95
f 98//98 100//100 97//97
f 100//100 98//98 99//99
f 102//102 104//104 101//101
f 104//104 102//102 103//103
f 106//106 108//108 105//105
f 108//108 106//106 107//107
f 110//110 112//112 109//109
f 112//112 110//110 111//111
f 114//114 116//116 113//113
f 116//116 114//114 115//115
f 118//118 120//120 117//117
f 120//120 118//118 119//119
f 122//122 124//124 121//121
f 124//124 122//122 123//123
f 126//126 128//128 125//125
f 128//128 126//126 127//127
f 130//130 132//132 129//129
f 132//132 130//130 131//131
f 134//134 136//136 133//133
f 136//136 134//134 135//135
f 138//138 140//140 137//137
f 140//140 138//138 139//139
f 142//142 144//144 141//141
f 144//144 142//142 143//143
f 146//146 148//148 145//145
f 148//148 146//146 147//147
f 150//150 152//152 149//149
f 152//152 150//150 151//151
f 154//154 156//156 153//153
f 156//156 154//154 155//155
f 159//159 160//160 157//157
f 157//157 158//158 159//159
f 162//162 164//164 161//161
f 164//164 162//162 163//163
f 166//166 168//168 165//165
f 168//168 166//166 167//167
f 171//171 172//172 169//169
f 169//169 170//170 171//171
f 174//174 176//176 173//173
f 176//176 174//174 175//175
f 178//178 180//180 177//177
f 180//180 178//178 179//179
f 92//92 182//182 181//181
f 181//181 89//89 92//92
f 64//64 184//184 183//183
f 183//183 61//61 64//64
f 187//187 188//188 185//185
f 185//185 186//186 187//187
f 190//190 192//192 189//189
f 192//192 190//190 191//191
f 194//194 196//196 193//193
f 196//196 194//194 195//195
f 80//80 198//198 197//197
f 197//197 77//77 80//80
f 52//52 200//200 199//199
f 199//199 49//49 52//52
f 203//203 204//204 201//201
f 201//201 202//202 203//203
f 206//206 208//208 205//205
f 208//208 206//206 207//207
f 210//210 212//212 209//209
f 212//212 210//210 211//211
f 97//97 214//214 213//213
f 214//214 97//97 100//100
f 69//69 216//216 215//215
f 216//216 69//69 72//72
f 218//218 220//220 217//217
f 220//220 218//218 219//219
f 222//222 224//224 221//221
f 224//224 222//222 223//223
f 226//226 228//228 225//225
f 228//228 226//226 227//227
f 101//101 230//230 229//229
f 230//230 101//101 104//104
f 65//65 232//232 231//231
f 232//232 65//65 68//68
f 234//234 236//236 233//233
f 236//236 234//234 235//235
f 238//238 240//240 237//237
f 240//240 238//238 239//239
f 242//242 244//244 241//241
f 244//244 242//242 243//243
f 246//246 248//248 245//245
f 248//248 246//246 247//247
f 250//250 252//252 249//249
f 252//252 250//250 251//251
f 254//254 256//256 253//253
f 256//256 254//254 255//255
f 258//258 260//260 257//257
f 260//260 258//258 259//259
f 262//262 264//264 261//261
f 264//264 262//262 263//263
f 266//266 268//268 265//265
f 268//268 266//266 267//267
f 270//270 272//272 269//269
f 272//272 270//270 271//271
f 274//274 276//276 273//273
f 276//276 274//274 275//275
f 278//278 280//280 277//277
f 280//280 278//278 279//279
f 282//282 284//284 281//281
f 284//284 282//282 283//283
f 286//286 288//288 285//285
f 288//288 286//286 287//287
f 290//290 292//292 289//289
f 292//292 290//290 291//291
f 294//294 296//296 293//293
f 296//296 294//294 295//295
f 298//298 300//300 297//297
f 300//300 298//298 299//299
f 302//302 304//304 301//301
f 304//304 302//302 303//303
f 306//306 308//308 305//305
f 308//308 306//306 307//307
f 310//310 312//312 309//309
f 312//312 310//310 311//311
f 314//314 316//316 313//313
f 316//316 314//314 315//315
f 318//318 320//320 317//317
f 320//320 318//318 319//319
f 322//322 324//324 321//321
f 324//324 322//322 323//323
f 326//326 328//328 325//325
f 328//328 326//326 327//327
f 330//330 332//332 329//329
f 332//332 330//330 331//331
f 335//335 336//336 333//333
f 333//333 334//334 335//335
f 338//338 340//340 337//337
f 340//340 338//338 339//339
f 342//342 344//344 341//341
f 344//344 342//342 343//343
f 346//346 348//348 345//345
f 348//348 346//346 347//347
f 350//350 352//352 349//349
f 352//352 350//350 351//351
f 355//355 356//356 353//353
f 353//353 354//354 355//355
f 368//368 357//357 358//358
f 358//358 359//359 360//360
f 360//360 361//361 362//362
f 362//362 363//363 364//364
f 364//364 365//365 366//366
f 366//366 367//367 368//368
f 368//368 358//358 360//360
f 360//360 362//362 364//364
f 364//364 366//366 368//368
f 368//368 360//360 364//364
f 371//371 372//372 369//369
f 369//369 370//370 371//371
f 375//375 376//376 373//373
f 373//373 374//374 375//375
f 379//379 380//380 377//377
f 377//377 378//378 379//379
f 382//382 384//384 381//381
f 384//384 382//382 383//383
f 387//387 388//388 385//385
f 385//385 386//386 387//387
f 390//390 392//392 389//389
f 392//392 390//390 391//391
f 394//394 396//396 393//393
f 396//396 394//394 395//395
f 399//399 400//400 397//397
f 397//397 398//398 399//399
f 403//403 404//404 401//401
f 401//401 402//402 403//403
f 406//406 408//408 405//405
f 408//408 406//406 407//407
f 410//410 412//412 409//409
f 412//412 410//410 411//411
f 414//414 416//416 413//413
f 416//416 414//414 415//415
f 419//419 420//420 417//417
f 417//417 418//418 419//419
f 422//422 424//424 421//421
f 424//424 422//422 423//423
f 426//426 428//428 425//425
f 428//428 426//426 427//427
f 431//431 432//432 429//429
f 429//429 430//430 431//431
f 435//435 436//436 433//433
f 433//433 434//434 435//435
f 439//439 440//440 437//437
f 437//437 438//438 439//439
f 443//443 444//444 441//441
f 441//441 442//442 443//443
f 447//447 448//448 445//445
f 445//445 446//446 447//447
f 451//451 452//452 449//449
f 449//449 450//450 451//451
f 455//455 456//456 453//453
f 453//453 454//454 455//455
f 459//459 460//460 457//457
f 457//457 458//458 459//459
f 463//463 464//464 461//461
f 461//461 462//462 463//463
f 467//467 468//468 465//465
f 465//465 466//466 467//467
f 471//471 472//472 469//469
f 469//469 470//470 471//471
f 475//475 476//476 473//473
f 473//473 474//474 475//475
f 479//479 480//480 477//477
f 477//477 478//478 479//479
f 483//483 484//484 481//481
f 481//481 482//482 483//483
f 487//487 488//488 485//485
f 485//485 486//486 487//487
f 490//490 492//492 489//489
f 492//492 490//490 491//491
f 495//495 496//496 493//493
f 493//493 494//494 495//495
f 499//499 500//500 497//497
f 497//497 498//498 499//499
f 502//502 504//504 501//501
f 504//504 502//502 503//503
f 507//507 508//508 505//505
f 505//505 506//506 507//507
f 511//511 512//512 509//509
f 509//509 510//510 511//511
f 514//514 516//516 513//513
f 516//516 514//514 515//515
f 518//518 520//520 517//517
f 520//520 518//518 519//519
f 522//522 524//524 521//521
f 524//524 522//522 523//523
f 527//527 528//528 525//525
f 525//525 526//526 527//527
f 531//531 532//532 529//529
f 529//529 530//530 531//531
f 534//534 536//536 533//533
f 536//536 534//534 535//535
f 538//538 540//540 537//537
f 540//540 538//538 539//539
f 542//542 544//544 541//541
f 544//544 542//542 543//543
f 547//547 548//548 545//545
f 545//545 546//546 547//547
f 551//551 552//552 549//549
f 549//549 550//550 551//551
f 555//555 556//556 553//553
f 553//553 554//554 555//555
f 559//559 560//560 557//557
f 557//557 558//558 559//559
f 563//563 564//564 561//561
f 561//561 562//562 563//563
f 567//567 568//568 565//565
f 565//565 566//566 567//567
f 571//571 572//572 569//569
f 569//569 570//570 571//571
f 575//575 576//576 573//573
f 573//573 574//574 575//575
f 579//579 580//580 577//577
f 577//577 578//578 579//579
f 583//583 584//584 581//581
f 581//581 582//582 583//583
f 587//587 588//588 585//585
f 585//585 586//586 587//587
f 590//590 592//592 589//589
f 592//592 590//590 591//591
f 594//594 596//596 593//593
f 596//596 594//594 595//595
f 598//598 600//600 597//597
f 600//600 598//598 599//599
f 602//602 604//604 601//601
f 604//604 602//602 603//603
f 607//607 608//608 605//605
f 605//605 606//606 607//607
f 611//611 612//612 609//609
f 609//609 610//610 611//611
f 615//615 616//616 613//613
f 613//613 614//614 615//615
f 618//618 620//620 617//617
f 620//620 618//618 619//619
f 622//622 624//624 621//621
f 624//624 622//622 623//623
f 627//627 628//628 625//625
f 625//625 626//626 627//627
f 631//631 632//632 629//629
f 629//629 630//630 631//631
f 635//635 636//636 633//633
f 633//633 634//634 635//635
f 639//639 640//640 637//637
f 637//637 638//638 639//639
f 643//643 644//644 641//641
f 641//641 642//642 643//643
f 647//647 648//648 645//645
f 645//645 646//646 647//647
f 651//651 652//652 649//649
f 649//649 650//650 651//651
f 655//655 656//656 653//653
f 653//653 654//654 655//655
f 659//659 660//660 657//657
f 657//657 658//658 659//659
f 663//663 664//664 661//661
f 661//661 662//662 663//663
f 667//667 668//668 665//665
f 665//665 666//666 667//667
f 671//671 672//672 669//669
f 669//669 670//670 671//671
f 675//675 676//676 673//673
f 673//673 674//674 675//675
f 679//679 680//680 677//677
f 677//677 678//678 679//679
f 682//682 684//684 681//681
f 684//684 682//682 683//683
f 686//686 688//688 685//685
f 688//688 686//686 687//687
f 690//690 692//692 689//689
f 692//692 690//690 691//691
f 695//695 696//696 693//693
f 693//693 694//694 695//695
f 699//699 700//700 697//697
f 697//697 698//698 699//699
f 702//702 704//704 701//701
f 704//704 702//702 703//703
f 706//706 708//708 705//705
f 708//708 706//706 707//707
f 710//710 712//712 709//709
f 712//712 710//710 711//711
f 715//715 716//716 713//713
f 713//713 714//714 715//715
f 719//719 720//720 717//717
f 717//717 718//718 719//719
f 722//722 724//724 721//721
f 724//724 722//722 723//723
f 726//726 728//728 725//725
f 728//728 726//726 727//727
f 730//730 740//740 729//729
f 740//740 738//738 739//739
f 738//738 736//736 737//737
f 736//736 734//734 735//735
f 734//734 732//732 733//733
f 732//732 730//730 731//731
f 730//730 738//738 740//740
f 738//738 734//734 736//736
f 734//734 730//730 732//732
f 730//730 734//734 738//738

