# https://github.com/mikedh/trimesh
mtllib tophat.mtl

o D_Dark_Gray_0
usemtl D_Dark_Gray_0f0f0f
v 0.00000000 0.03010217 -0.43075412
v 0.00000000 0.09729228 -0.43075412
v 0.35355328 0.04265220 -0.30458946
v 0.35355328 0.00000000 -0.30458946
v 0.35355328 0.00000000 -0.30458946
v 0.35355328 0.04265220 -0.30458946
v 0.50000000 0.05049407 0.00000000
v 0.50000000 0.00000000 0.00000000
v 0.50000000 0.00000000 0.00000000
v 0.50000000 0.05049407 0.00000000
v 0.35355328 0.04265220 0.30458946
v 0.35355328 0.00000000 0.30458946
v 0.35355328 0.00000000 0.30458946
v 0.35355328 0.04265220 0.30458946
v 0.00000000 0.09729228 0.43075412
v 0.00000000 0.03010217 0.43075412
v 0.00000000 0.03010217 0.43075412
v 0.00000000 0.09729228 0.43075412
v -0.35355328 0.04186176 0.30458946
v -0.35355328 0.00000000 0.30458946
v -0.35355328 0.00000000 0.30458946
v -0.35355328 0.04186176 0.30458946
v -0.50000000 0.05049407 0.00000000
v -0.50000000 0.00000000 0.00000000
v 0.27904790 0.16522759 0.21124397
v 0.38061432 0.16522759 0.00000000
v 0.38061432 0.58730633 0.00000000
v 0.27904790 0.58730633 0.21124397
v -0.50000000 0.00000000 0.00000000
v -0.50000000 0.05049407 0.00000000
v -0.35355328 0.04186176 -0.30458946
v -0.35355328 0.00000000 -0.30458946
v -0.35355328 0.00000000 -0.30458946
v -0.35355328 0.04186176 -0.30458946
v 0.00000000 0.09729228 -0.43075412
v 0.00000000 0.03010217 -0.43075412
v -0.36906904 0.00000000 0.00000000
v -0.27184354 0.00000000 -0.20221644
v -0.18854538 0.14289191 -0.14025353
v -0.25597994 0.14289191 0.00000000
v 0.00000000 0.09729228 -0.38393008
v 0.32446447 0.04265220 -0.26814551
v 0.35355328 0.04265220 -0.30458946
v 0.00000000 0.09729228 -0.43075412
v 0.32446447 0.04265220 -0.26814551
v 0.45338916 0.05049407 0.00000000
v 0.50000000 0.05049407 0.00000000
v 0.35355328 0.04265220 -0.30458946
v 0.45338916 0.05049407 0.00000000
v 0.32446447 0.04265220 0.26814551
v 0.35355328 0.04265220 0.30458946
v 0.50000000 0.05049407 0.00000000
v 0.32446447 0.04265220 0.26814551
v 0.00000000 0.09729228 0.38393008
v 0.00000000 0.09729228 0.43075412
v 0.35355328 0.04265220 0.30458946
v 0.00000000 0.09729228 0.38393008
v -0.32446447 0.04186176 0.26814551
v -0.35355328 0.04186176 0.30458946
v 0.00000000 0.09729228 0.43075412
v -0.32446447 0.04186176 0.26814551
v -0.45338916 0.05049407 0.00000000
v -0.50000000 0.05049407 0.00000000
v -0.35355328 0.04186176 0.30458946
v -0.45338916 0.05049407 0.00000000
v -0.32446447 0.04186176 -0.26814551
v -0.35355328 0.04186176 -0.30458946
v -0.50000000 0.05049407 0.00000000
v -0.32446447 0.04186176 -0.26814551
v 0.00000000 0.09729228 -0.38393008
v 0.00000000 0.09729228 -0.43075412
v -0.35355328 0.04186176 -0.30458946
v 0.00000000 0.05049407 -0.31082141
v 0.27904790 0.05049407 -0.21124397
v 0.32446447 0.04265220 -0.26814551
v 0.00000000 0.09729228 -0.38393008
v 0.27904790 0.05049407 -0.21124397
v 0.38061432 0.05049407 0.00000000
v 0.45338916 0.05049407 0.00000000
v 0.32446447 0.04265220 -0.26814551
v 0.38061432 0.05049407 0.00000000
v 0.27904790 0.05049407 0.21124397
v 0.32446447 0.04265220 0.26814551
v 0.45338916 0.05049407 0.00000000
v 0.27904790 0.05049407 0.21124397
v 0.00000000 0.05049407 0.31082141
v 0.00000000 0.09729228 0.38393008
v 0.32446447 0.04265220 0.26814551
v 0.00000000 0.05049407 0.31082141
v -0.27904790 0.05049407 0.21124397
v -0.32446447 0.04186176 0.26814551
v 0.00000000 0.09729228 0.38393008
v -0.27904790 0.05049407 0.21124397
v -0.38061432 0.05049407 0.00000000
v -0.45338916 0.05049407 0.00000000
v -0.32446447 0.04186176 0.26814551
v -0.38061432 0.05049407 0.00000000
v -0.27904790 0.05049407 -0.21124397
v -0.32446447 0.04186176 -0.26814551
v -0.45338916 0.05049407 0.00000000
v -0.27904790 0.05049407 -0.21124397
v 0.00000000 0.05049407 -0.31082141
v 0.00000000 0.09729228 -0.38393008
v -0.32446447 0.04186176 -0.26814551
v 0.38061432 0.16522759 0.00000000
v 0.27904790 0.16522759 -0.21124397
v 0.27904790 0.58730633 -0.21124397
v 0.38061432 0.58730633 0.00000000
v -0.27904790 0.16522759 -0.21124397
v -0.38061432 0.16522759 0.00000000
v -0.38061432 0.58730633 0.00000000
v -0.27904790 0.58730633 -0.21124397
v -0.27904790 0.16522759 0.21124397
v 0.00000000 0.16522759 0.31082141
v 0.00000000 0.58730633 0.31082141
v -0.27904790 0.58730633 0.21124397
v 0.00000000 0.16522759 -0.31082141
v -0.27904790 0.16522759 -0.21124397
v -0.27904790 0.58730633 -0.21124397
v 0.00000000 0.58730633 -0.31082141
v -0.38061432 0.16522759 0.00000000
v -0.27904790 0.16522759 0.21124397
v -0.27904790 0.58730633 0.21124397
v -0.38061432 0.58730633 0.00000000
v 0.00000000 0.16522759 0.31082141
v 0.27904790 0.16522759 0.21124397
v 0.27904790 0.58730633 0.21124397
v 0.00000000 0.58730633 0.31082141
v 0.26145805 0.61417356 -0.18920551
v 0.00000000 0.61417356 -0.28250577
v -0.26145805 0.61417356 -0.18920551
v -0.35242795 0.61417356 0.00000000
v -0.26145805 0.61417356 0.18920551
v 0.00000000 0.61417356 0.28250577
v 0.26145805 0.61417356 0.18920551
v 0.35242795 0.61417356 0.00000000
v 0.27904790 0.58730633 -0.21124397
v 0.00000000 0.58730633 -0.31082141
v 0.00000000 0.61417356 -0.28250577
v 0.26145805 0.61417356 -0.18920551
v 0.38061432 0.58730633 0.00000000
v 0.27904790 0.58730633 -0.21124397
v 0.26145805 0.61417356 -0.18920551
v 0.35242795 0.61417356 0.00000000
v 0.27904790 0.58730633 0.21124397
v 0.38061432 0.58730633 0.00000000
v 0.35242795 0.61417356 0.00000000
v 0.26145805 0.61417356 0.18920551
v 0.00000000 0.58730633 0.31082141
v 0.27904790 0.58730633 0.21124397
v 0.26145805 0.61417356 0.18920551
v 0.00000000 0.61417356 0.28250577
v -0.27904790 0.58730633 0.21124397
v 0.00000000 0.58730633 0.31082141
v 0.00000000 0.61417356 0.28250577
v -0.26145805 0.61417356 0.18920551
v -0.38061432 0.58730633 0.00000000
v -0.27904790 0.58730633 0.21124397
v -0.26145805 0.61417356 0.18920551
v -0.35242795 0.61417356 0.00000000
v -0.27904790 0.58730633 -0.21124397
v -0.38061432 0.58730633 0.00000000
v -0.35242795 0.61417356 0.00000000
v -0.26145805 0.61417356 -0.18920551
v 0.00000000 0.58730633 -0.31082141
v -0.27904790 0.58730633 -0.21124397
v -0.26145805 0.61417356 -0.18920551
v 0.00000000 0.61417356 -0.28250577
v 0.27904790 0.16522759 -0.21124397
v 0.00000000 0.16522759 -0.31082141
v 0.00000000 0.58730633 -0.31082141
v 0.27904790 0.58730633 -0.21124397
v 0.27184245 0.00000000 -0.20221644
v 0.00000000 0.00000000 -0.29922333
v 0.00000000 0.03010217 -0.43075412
v 0.35355328 0.00000000 -0.30458946
v 0.36906904 0.00000000 0.00000000
v 0.27184245 0.00000000 -0.20221644
v 0.35355328 0.00000000 -0.30458946
v 0.50000000 0.00000000 0.00000000
v 0.27184245 0.00000000 0.20221644
v 0.35355328 0.00000000 0.30458946
v 0.00000000 0.00000000 0.29922333
v 0.27184245 0.00000000 0.20221644
v 0.35355328 0.00000000 0.30458946
v 0.00000000 0.03010217 0.43075412
v -0.27184245 0.00000000 0.20221644
v 0.00000000 0.00000000 0.29922333
v 0.00000000 0.03010217 0.43075412
v -0.35355328 0.00000000 0.30458946
v -0.36906904 0.00000000 0.00000000
v -0.27184245 0.00000000 0.20221644
v -0.35355328 0.00000000 0.30458946
v -0.50000000 0.00000000 0.00000000
v -0.27184354 0.00000000 -0.20221644
v -0.35355328 0.00000000 -0.30458946
v 0.00000000 0.00000000 -0.29922333
v -0.27184354 0.00000000 -0.20221644
v -0.35355328 0.00000000 -0.30458946
v 0.00000000 0.03010217 -0.43075412
v 0.00000000 0.14289191 -0.20753625
v 0.18854538 0.14289191 -0.14025353
v 0.25597994 0.14289191 0.00000000
v 0.18854538 0.14289191 0.14025353
v 0.00000000 0.14289191 0.20753625
v -0.18854538 0.14289191 0.14025353
v -0.25597994 0.14289191 0.00000000
v -0.18854538 0.14289191 -0.14025353
v 0.00000000 0.00000000 0.29922333
v -0.27184245 0.00000000 0.20221644
v -0.18854538 0.14289191 0.14025353
v 0.00000000 0.14289191 0.20753625
v 0.36906904 0.00000000 0.00000000
v 0.27184245 0.00000000 0.20221644
v 0.18854538 0.14289191 0.14025353
v 0.25597994 0.14289191 0.00000000
v 0.00000000 0.00000000 -0.29922333
v 0.27184245 0.00000000 -0.20221644
v 0.18854538 0.14289191 -0.14025353
v 0.00000000 0.14289191 -0.20753625
v -0.27184354 0.00000000 -0.20221644
v 0.00000000 0.00000000 -0.29922333
v 0.00000000 0.14289191 -0.20753625
v -0.18854538 0.14289191 -0.14025353
v -0.27184245 0.00000000 0.20221644
v -0.36906904 0.00000000 0.00000000
v -0.25597994 0.14289191 0.00000000
v -0.18854538 0.14289191 0.14025353
v 0.27184245 0.00000000 0.20221644
v 0.00000000 0.00000000 0.29922333
v 0.00000000 0.14289191 0.20753625
v 0.18854538 0.14289191 0.14025353
v 0.27184245 0.00000000 -0.20221644
v 0.36906904 0.00000000 0.00000000
v 0.25597994 0.14289191 0.00000000
v 0.18854538 0.14289191 -0.14025353
vn 0.33608981 0.00000000 -0.94182994
vn 0.33608981 0.00000000 -0.94182994
vn 0.33608981 0.00000000 -0.94182994
vn 0.33608981 0.00000000 -0.94182994
vn 0.90124148 0.00000000 -0.43331721
vn 0.90124148 0.00000000 -0.43331721
vn 0.90124148 0.00000000 -0.43331721
vn 0.90124148 0.00000000 -0.43331721
vn 0.90124148 0.00000000 0.43331721
vn 0.90124148 0.00000000 0.43331721
vn 0.90124148 0.00000000 0.43331721
vn 0.90124148 0.00000000 0.43331721
vn 0.33608981 0.00000000 0.94182994
vn 0.33608981 0.00000000 0.94182994
vn 0.33608981 0.00000000 0.94182994
vn 0.33608981 0.00000000 0.94182994
vn -0.33608981 0.00000000 0.94182994
vn -0.33608981 0.00000000 0.94182994
vn -0.33608981 0.00000000 0.94182994
vn -0.33608981 0.00000000 0.94182994
vn -0.90124148 0.00000000 0.43331721
vn -0.90124148 0.00000000 0.43331721
vn -0.90124148 0.00000000 0.43331721
vn -0.90124148 0.00000000 0.43331721
vn 0.90124105 0.00000000 0.43331809
vn 0.90124105 0.00000000 0.43331809
vn 0.90124105 0.00000000 0.43331809
vn 0.90124105 0.00000000 0.43331809
vn -0.90124148 0.00000000 -0.43331721
vn -0.90124148 0.00000000 -0.43331721
vn -0.90124148 0.00000000 -0.43331721
vn -0.90124148 0.00000000 -0.43331721
vn -0.33608981 0.00000000 -0.94182994
vn -0.33608981 0.00000000 -0.94182994
vn -0.33608981 0.00000000 -0.94182994
vn -0.33608981 0.00000000 -0.94182994
vn 0.73372131 -0.58069202 0.35277445
vn 0.73372102 -0.58069359 0.35277248
vn 0.73372129 -0.58069213 0.35277431
vn 0.73372166 -0.58069014 0.35277681
vn 0.16606261 0.98611521 0.00000000
vn 0.12192441 0.98855092 0.08889053
vn 0.11888522 0.98836322 0.09489176
vn 0.16152615 0.98682470 0.00929032
vn -0.02285598 0.99957230 -0.01824317
vn -0.00148771 0.99968006 -0.02524987
vn 0.00000000 0.99966874 -0.02573720
vn -0.02017974 0.99961350 -0.01912143
vn 0.00000000 0.99957264 0.02923237
vn -0.01881411 0.99967983 0.01691926
vn -0.02012322 0.99966848 0.01606194
vn -0.00235545 0.99961374 0.02769162
vn 0.12926359 0.98622803 -0.10317556
vn 0.15129796 0.98846664 -0.00652893
vn 0.15273235 0.98826759 0.00000000
vn 0.13160689 0.98691069 -0.09320361
vn -0.16839725 0.98571921 0.00000000
vn -0.12364629 0.98822309 -0.09014829
vn -0.12056440 0.98803017 -0.09623204
vn -0.16380189 0.98644830 -0.00941799
vn 0.02515750 0.99948181 0.02008020
vn 0.00163747 0.99961236 0.02779311
vn 0.00000000 0.99959864 0.02832944
vn 0.02221216 0.99953171 0.02104702
vn 0.00000000 0.99948222 -0.03217597
vn 0.02070918 0.99961208 -0.01862335
vn 0.02215002 0.99959832 -0.01767969
vn 0.00259249 0.99953200 -0.03048046
vn -0.13108131 0.98583518 0.10462642
vn -0.15343581 0.98813645 0.00661929
vn -0.15488916 0.98793185 0.00000000
vn -0.13345939 0.98653670 0.09451946
vn -0.18892060 0.82705963 0.52941607
vn 0.12389074 0.98995755 0.06808182
vn 0.16696841 0.98595878 -0.00261216
vn -0.13286243 0.88128452 0.45352527
vn 0.10699320 0.99292806 -0.05144249
vn 0.01289734 0.99940695 -0.03192823
vn 0.00000000 0.99957264 -0.02923237
vn 0.08404954 0.99536622 -0.04670938
vn 0.00000000 1.00000000 0.00000000
vn 0.07431864 0.99534651 0.06133574
vn 0.08437960 0.99399722 0.06963913
vn 0.01827654 0.99971918 0.01508377
vn 0.03803095 0.99357709 0.10657490
vn -0.04152103 0.87791905 -0.47700539
vn -0.05048955 0.84115195 -0.53843682
vn 0.02151701 0.99956679 -0.02008107
vn 0.18892060 0.82705963 -0.52941607
vn -0.12893047 0.98984247 -0.05990680
vn -0.17246443 0.98494545 0.01176793
vn 0.13200246 0.88202456 -0.45233618
vn -0.11760237 0.99144971 0.05654340
vn -0.01419609 0.99928149 0.03514218
vn 0.00000000 0.99948222 0.03217597
vn -0.09240987 0.99439543 0.05136291
vn 0.00000000 1.00000000 0.00000000
vn -0.08171567 0.99437132 -0.06744056
vn -0.09276727 0.99273993 -0.07656154
vn -0.02011678 0.99965978 -0.01660253
vn -0.04180769 0.99223283 -0.11715855
vn 0.03925500 0.87848632 0.47615211
vn 0.04844532 0.84123722 0.53849140
vn -0.02512146 0.99962165 0.01120129
vn 0.90124105 0.00000000 -0.43331809
vn 0.90124105 0.00000000 -0.43331809
vn 0.90124105 0.00000000 -0.43331809
vn 0.90124105 0.00000000 -0.43331809
vn -0.90124105 0.00000000 -0.43331809
vn -0.90124105 0.00000000 -0.43331809
vn -0.90124105 0.00000000 -0.43331809
vn -0.90124105 0.00000000 -0.43331809
vn -0.33608936 0.00000000 0.94183010
vn -0.33608936 0.00000000 0.94183010
vn -0.33608936 0.00000000 0.94183010
vn -0.33608936 0.00000000 0.94183010
vn -0.33608936 0.00000000 -0.94183010
vn -0.33608936 0.00000000 -0.94183010
vn -0.33608936 0.00000000 -0.94183010
vn -0.33608936 0.00000000 -0.94183010
vn -0.90124105 0.00000000 0.43331809
vn -0.90124105 0.00000000 0.43331809
vn -0.90124105 0.00000000 0.43331809
vn -0.90124105 0.00000000 0.43331809
vn 0.33608936 0.00000000 0.94183010
vn 0.33608936 0.00000000 0.94183010
vn 0.33608936 0.00000000 0.94183010
vn 0.33608936 0.00000000 0.94183010
vn 0.00000000 1.00000000 0.00000000
vn 0.00000000 1.00000000 0.00000000
vn 0.00000000 1.00000000 0.00000000
vn 0.00000000 1.00000000 0.00000000
vn 0.00000000 1.00000000 0.00000000
vn 0.00000000 1.00000000 0.00000000
vn 0.00000000 1.00000000 0.00000000
vn 0.00000000 1.00000000 0.00000000
vn 0.23853273 0.70447370 -0.66844517
vn 0.23853093 0.70447724 -0.66844208
vn 0.23853074 0.70447763 -0.66844174
vn 0.23853259 0.70447398 -0.66844492
vn 0.65487277 0.68702488 -0.31486262
vn 0.65487639 0.68702008 -0.31486558
vn 0.65487602 0.68702056 -0.31486528
vn 0.65487222 0.68702561 -0.31486217
vn 0.65487650 0.68702050 0.31486441
vn 0.65487193 0.68702531 0.31486343
vn 0.65487239 0.68702482 0.31486353
vn 0.65487720 0.68701977 0.31486456
vn 0.23853093 0.70447724 0.66844208
vn 0.23853273 0.70447370 0.66844517
vn 0.23853259 0.70447398 0.66844492
vn 0.23853074 0.70447763 0.66844174
vn -0.23853203 0.70447396 0.66844514
vn -0.23853147 0.70447750 0.66844162
vn -0.23853151 0.70447721 0.66844190
vn -0.23853209 0.70447357 0.66844553
vn -0.65487193 0.68702531 0.31486343
vn -0.65487650 0.68702050 0.31486441
vn -0.65487720 0.68701977 0.31486456
vn -0.65487239 0.68702482 0.31486353
vn -0.65487639 0.68702008 -0.31486558
vn -0.65487277 0.68702488 -0.31486262
vn -0.65487222 0.68702561 -0.31486217
vn -0.65487602 0.68702056 -0.31486528
vn -0.23853147 0.70447750 -0.66844162
vn -0.23853203 0.70447396 -0.66844514
vn -0.23853209 0.70447357 -0.66844553
vn -0.23853151 0.70447721 -0.66844190
vn 0.33608936 0.00000000 -0.94183010
vn 0.33608936 0.00000000 -0.94183010
vn 0.33608936 0.00000000 -0.94183010
vn 0.33608936 0.00000000 -0.94183010
vn -0.03835488 -0.99559843 -0.08551409
vn 0.07935937 -0.97172286 -0.22238877
vn 0.03745348 -0.98400484 -0.17416003
vn -0.06603038 -0.99642478 -0.05270331
vn 0.00000000 -1.00000000 0.00000000
vn 0.00000000 -1.00000000 0.00000000
vn 0.00000000 -1.00000000 0.00000000
vn 0.00000000 -1.00000000 0.00000000
vn 0.00000000 -1.00000000 0.00000000
vn 0.00000000 -1.00000000 0.00000000
vn -0.00276338 -0.98328199 0.18206837
vn 0.00000000 -1.00000000 0.00000000
vn -0.00099901 -0.99783094 0.06582105
vn -0.00338601 -0.97479172 0.22309111
vn 0.03835488 -0.99559843 0.08551409
vn -0.07935937 -0.97172286 0.22238877
vn -0.03745348 -0.98400484 0.17416003
vn 0.06603038 -0.99642478 0.05270331
vn 0.00000000 -1.00000000 0.00000000
vn 0.00000000 -1.00000000 0.00000000
vn 0.00000000 -1.00000000 0.00000000
vn 0.00000000 -1.00000000 0.00000000
vn 0.00000000 -1.00000000 0.00000000
vn 0.00000000 -1.00000000 0.00000000
vn 0.00276338 -0.98328197 -0.18206848
vn 0.00000000 -1.00000000 0.00000000
vn 0.00099901 -0.99783097 -0.06582070
vn 0.00338601 -0.97479172 -0.22309111
vn 0.00000000 -1.00000000 0.00000000
vn 0.00000000 -1.00000000 0.00000000
vn 0.00000000 -1.00000000 0.00000000
vn 0.00000000 -1.00000000 0.00000000
vn 0.00000000 -1.00000000 0.00000000
vn 0.00000000 -1.00000000 0.00000000
vn 0.00000000 -1.00000000 0.00000000
vn 0.00000000 -1.00000000 0.00000000
vn 0.28764541 -0.51721677 -0.80606881
vn 0.28764593 -0.51721780 -0.80606797
vn 0.28764639 -0.51721868 -0.80606724
vn 0.28764573 -0.51721740 -0.80606829
vn -0.73372168 -0.58069015 -0.35277675
vn -0.73372165 -0.58069018 -0.35277677
vn -0.73372162 -0.58069020 -0.35277679
vn -0.73372166 -0.58069018 -0.35277677
vn -0.28764605 -0.51721732 0.80606823
vn -0.28764511 -0.51721826 0.80606797
vn -0.28764567 -0.51721769 0.80606813
vn -0.28764682 -0.51721654 0.80606845
vn 0.28764527 -0.51721874 0.80606760
vn 0.28764435 -0.51721694 0.80606908
vn 0.28764491 -0.51721804 0.80606817
vn 0.28764606 -0.51722029 0.80606632
vn 0.73372165 -0.58069018 -0.35277677
vn 0.73372168 -0.58069015 -0.35277675
vn 0.73372166 -0.58069018 -0.35277677
vn 0.73372162 -0.58069020 -0.35277679
vn -0.28764511 -0.51721826 -0.80606797
vn -0.28764605 -0.51721732 -0.80606823
vn -0.28764682 -0.51721654 -0.80606845
vn -0.28764567 -0.51721769 -0.80606813
vn -0.73372165 -0.58069020 0.35277674
vn -0.73372166 -0.58069017 0.35277677
vn -0.73372166 -0.58069014 0.35277681
vn -0.73372166 -0.58069017 0.35277677
f 2//2 4//4 1//1
f 4//4 2//2 3//3
f 7//7 8//8 5//5
f 5//5 6//6 7//7
f 11//11 12//12 9//9
f 9//9 10//10 11//11
f 15//15 16//16 13//13
f 13//13 14//14 15//15
f 19//19 20//20 17//17
f 17//17 18//18 19//19
f 22//22 24//24 21//21
f 24//24 22//22 23//23
f 27//27 28//28 25//25
f 25//25 26//26 27//27
f 30//30 32//32 29//29
f 32//32 30//30 31//31
f 34//34 36//36 33//33
f 36//36 34//34 35//35
f 39//39 40//40 37//37
f 37//37 38//38 39//39
f 42//42 44//44 41//41
f 44//44 42//42 43//43
f 46//46 48//48 45//45
f 48//48 46//46 47//47
f 50//50 52//52 49//49
f 52//52 50//50 51//51
f 54//54 56//56 53//53
f 56//56 54//54 55//55
f 58//58 60//60 57//57
f 60//60 58//58 59//59
f 62//62 64//64 61//61
f 64//64 62//62 63//63
f 66//66 68//68 65//65
f 68//68 66//66 67//67
f 70//70 72//72 69//69
f 72//72 70//70 71//71
f 74//74 76//76 73//73
f 76//76 74//74 75//75
f 78//78 80//80 77//77
f 80//80 78//78 79//79
f 82//82 84//84 81//81
f 84//84 82//82 83//83
f 86//86 88//88 85//85
f 88//88 86//86 87//87
f 90//90 92//92 89//89
f 92//92 90//90 91//91
f 94//94 96//96 93//93
f 96//96 94//94 95//95
f 98//98 100//100 97//97
f 100//100 98//98 99//99
f 102//102 104//104 101//101
f 104//104 102//102 103//103
f 107//107 108//108 105//105
f 105//105 106//106 107//107
f 110//110 112//112 109//109
f 112//112 110//110 111//111
f 115//115 116//116 113//113
f 113//113 114//114 115//115
f 118//118 120//120 117//117
f 120//120 118//118 119//119
f 122//122 124//124 121//121
f 124//124 122//122 123//123
f 127//127 128//128 125//125
f 125//125 126//126 127//127
f 130//130 136//136 129//129
f 136//136 134//134 135//135
f 134//134 132//132 133//133
f 132//132 130//130 131//131
f 130//130 134//134 136//136
f 134//134 130//130 132//132
f 138//138 140//140 137//137
f 140//140 138//138 139//139
f 143//143 144//144 141//141
f 141//141 142//142 143//143
f 147//147 148//148 145//145
f 145//145 146//146 147//147
f 151//151 152//152 149//149
f 149//149 150//150 151//151
f 155//155 156//156 153//153
f 153//153 154//154 155//155
f 158//158 160//160 157//157
f 160//160 158//158 159//159
f 162//162 164//164 161//161
f 164//164 162//162 163//163
f 166//166 168//168 165//165
f 168//168 166//166 167//167
f 170//170 172//172 169//169
f 172//172 170//170 171//171
f 175//175 176//176 173//173
f 173//173 174//174 175//175
f 179//179 180//180 177//177
f 177//177 178//178 179//179
f 180//180 182//182 181//181
f 181//181 177//177 180//180
f 185//185 186//186 183//183
f 183//183 184//184 185//185
f 189//189 190//190 187//187
f 187//187 188//188 189//189
f 193//193 194//194 191//191
f 191//191 192//192 193//193
f 194//194 196//196 195//195
f 195//195 191//191 194//194
f 199//199 200//200 197//197
f 197//197 198//198 199//199
f 207//207 208//208 201//201
f 201//201 202//202 203//203
f 203//203 204//204 205//205
f 205//205 206//206 207//207
f 207//207 201//201 203//203
f 203//203 205//205 207//207
f 210//210 212//212 209//209
f 212//212 210//210 211//211
f 214//214 216//216 213//213
f 216//216 214//214 215//215
f 219//219 220//220 217//217
f 217//217 218//218 219//219
f 223//223 224//224 221//221
f 221//221 222//222 223//223
f 227//227 228//228 225//225
f 225//225 226//226 227//227
f 230//230 232//232 229//229
f 232//232 230//230 231//231
f 234//234 236//236 233//233
f 236//236 234//234 235//235

o ED_Dark_Gray_1
usemtl ED_Dark_Gray_0c0c0c
v 0.00000000 0.16522759 0.31082141
v -0.27904790 0.16522759 0.21124397
v -0.28551782 0.16522759 0.21934968
v 0.00000000 0.16522759 0.32149227
v -0.27904790 0.16522759 -0.21124397
v 0.00000000 0.16522759 -0.31082141
v 0.00000000 0.16522759 -0.32149227
v -0.28551782 0.16522759 -0.21934968
v -0.38061432 0.16522759 0.00000000
v -0.39056369 0.16522759 0.00000000
v 0.27904790 0.16522759 0.21124397
v 0.28551782 0.16522759 0.21934968
v 0.28551782 0.05049407 -0.21934968
v 0.00000000 0.05049407 -0.32149227
v 0.00000000 0.16522759 -0.32149227
v 0.28551782 0.16522759 -0.21934968
v 0.00000000 0.05049407 0.32149227
v 0.28551782 0.05049407 0.21934968
v 0.28551782 0.16522759 0.21934968
v 0.00000000 0.16522759 0.32149227
v -0.39056369 0.05049407 0.00000000
v -0.28551782 0.05049407 0.21934968
v -0.28551782 0.16522759 0.21934968
v -0.39056369 0.16522759 0.00000000
v 0.00000000 0.05049407 -0.32149227
v -0.28551782 0.05049407 -0.21934968
v -0.28551782 0.16522759 -0.21934968
v 0.00000000 0.16522759 -0.32149227
v -0.28551782 0.05049407 0.21934968
v 0.00000000 0.05049407 0.32149227
v 0.00000000 0.16522759 0.32149227
v -0.28551782 0.16522759 0.21934968
v -0.28551782 0.05049407 -0.21934968
v -0.39056369 0.05049407 0.00000000
v -0.39056369 0.16522759 0.00000000
v -0.28551782 0.16522759 -0.21934968
v 0.39056369 0.05049407 0.00000000
v 0.28551782 0.05049407 -0.21934968
v 0.28551782 0.16522759 -0.21934968
v 0.39056369 0.16522759 0.00000000
v 0.28551782 0.05049407 0.21934968
v 0.39056369 0.05049407 0.00000000
v 0.39056369 0.16522759 0.00000000
v 0.28551782 0.16522759 0.21934968
v 0.27904790 0.16522759 -0.21124397
v 0.38061432 0.16522759 0.00000000
v 0.39056369 0.16522759 0.00000000
v 0.28551782 0.16522759 -0.21934968
vn 0.00000000 1.00000000 0.00000000
vn 0.00000000 1.00000000 0.00000000
vn 0.00000000 1.00000000 0.00000000
vn 0.00000000 1.00000000 0.00000000
vn 0.00000000 1.00000000 0.00000000
vn 0.00000000 1.00000000 0.00000000
vn 0.00000000 1.00000000 0.00000000
vn 0.00000000 1.00000000 0.00000000
vn 0.00000000 1.00000000 0.00000000
vn 0.00000000 1.00000000 0.00000000
vn 0.00000000 1.00000000 0.00000000
vn 0.00000000 1.00000000 0.00000000
vn 0.33683922 0.00000000 -0.94156218
vn 0.33683922 0.00000000 -0.94156218
vn 0.33683922 0.00000000 -0.94156218
vn 0.33683922 0.00000000 -0.94156218
vn 0.33683922 0.00000000 0.94156218
vn 0.33683922 0.00000000 0.94156218
vn 0.33683922 0.00000000 0.94156218
vn 0.33683922 0.00000000 0.94156218
vn -0.90191085 0.00000000 0.43192224
vn -0.90191085 0.00000000 0.43192224
vn -0.90191085 0.00000000 0.43192224
vn -0.90191085 0.00000000 0.43192224
vn -0.33683922 0.00000000 -0.94156218
vn -0.33683922 0.00000000 -0.94156218
vn -0.33683922 0.00000000 -0.94156218
vn -0.33683922 0.00000000 -0.94156218
vn -0.33683922 0.00000000 0.94156218
vn -0.33683922 0.00000000 0.94156218
vn -0.33683922 0.00000000 0.94156218
vn -0.33683922 0.00000000 0.94156218
vn -0.90191085 0.00000000 -0.43192224
vn -0.90191085 0.00000000 -0.43192224
vn -0.90191085 0.00000000 -0.43192224
vn -0.90191085 0.00000000 -0.43192224
vn 0.90191085 0.00000000 -0.43192224
vn 0.90191085 0.00000000 -0.43192224
vn 0.90191085 0.00000000 -0.43192224
vn 0.90191085 0.00000000 -0.43192224
vn 0.90191085 0.00000000 0.43192224
vn 0.90191085 0.00000000 0.43192224
vn 0.90191085 0.00000000 0.43192224
vn 0.90191085 0.00000000 0.43192224
vn 0.00000000 1.00000000 0.00000000
vn 0.00000000 1.00000000 0.00000000
vn 0.00000000 1.00000000 0.00000000
vn 0.00000000 1.00000000 0.00000000
f 238//238 240//240 237//237
f 240//240 238//238 239//239
f 242//242 244//244 241//241
f 244//244 242//242 243//243
f 245//245 239//239 238//238
f 239//239 245//245 246//246
f 237//237 248//248 247//247
f 248//248 237//237 240//240
f 250//250 252//252 249//249
f 252//252 250//250 251//251
f 255//255 256//256 253//253
f 253//253 254//254 255//255
f 258//258 260//260 257//257
f 260//260 258//258 259//259
f 262//262 264//264 261//261
f 264//264 262//262 263//263
f 267//267 268//268 265//265
f 265//265 266//266 267//267
f 270//270 272//272 269//269
f 272//272 270//270 271//271
f 275//275 276//276 273//273
f 273//273 274//274 275//275
f 279//279 280//280 277//277
f 277//277 278//278 279//279
f 241//241 246//246 245//245
f 246//246 241//241 244//244
f 282//282 284//284 281//281
f 284//284 282//282 283//283
f 247//247 283//283 282//282
f 283//283 247//247 248//248
f 281//281 243//243 242//242
f 243//243 281//281 284//284

