# https://github.com/mikedh/trimesh
mtllib wizard.mtl

o lambert3SG_0
usemtl lambert3SG_030303
v 0.18257097 0.06776428 -0.10302194
v 0.10539562 0.06760776 -0.18022087
v 0.10041790 0.12277558 -0.17482917
v 0.17394907 0.12293209 -0.10154825
v -0.00004512 0.06755649 -0.20847848
v -0.00004512 0.12272433 -0.20165245
v -0.10548587 0.06760776 -0.18022087
v -0.10050814 0.12277558 -0.17482917
v -0.18266122 0.06776428 -0.10302194
v -0.17403931 0.12293209 -0.10154825
v -0.21087770 0.06801570 0.00241588
v -0.20092204 0.12318372 -0.00146277
v -0.18258579 0.06830825 0.10780965
v -0.17396388 0.12347627 0.09857867
v -0.10540927 0.06854643 0.18491834
v -0.10043135 0.12371424 0.17176914
v -0.00004512 0.06863823 0.21312956
v -0.00004512 0.12380625 0.19854622
v 0.10531903 0.06854643 0.18491834
v 0.10034111 0.12371424 0.17176914
v 0.18249554 0.06830825 0.10780965
v 0.17387364 0.12347627 0.09857867
v 0.21078746 0.06801570 0.00241588
v 0.20083180 0.12318372 -0.00146277
v 0.17562390 0.06656734 -0.09899985
v 0.16700201 0.12173516 -0.09752635
v 0.09639950 0.12173516 -0.16785462
v 0.10137742 0.06656734 -0.17324632
v -0.00004512 0.12173516 -0.19359655
v -0.00004512 0.06656734 -0.20042238
v -0.09648974 0.12173516 -0.16785462
v -0.10146766 0.06656734 -0.17324632
v -0.16709225 0.12173516 -0.09752635
v -0.17571414 0.06656734 -0.09899985
v -0.19293436 0.12173516 -0.00145614
v -0.20289021 0.06656734 0.00242251
v -0.16709225 0.12173516 0.09461407
v -0.17571414 0.06656734 0.10384505
v -0.09648974 0.12173516 0.16494233
v -0.10146766 0.06656734 0.17809153
v -0.00004512 0.12173516 0.19068427
v -0.00004512 0.06656734 0.20526761
v 0.09639950 0.12173516 0.16494233
v 0.10137742 0.06656734 0.17809153
v 0.16700201 0.12173516 0.09461407
v 0.17562390 0.06656734 0.10384505
v 0.19284412 0.12173516 -0.00145614
v 0.20279996 0.06656734 0.00242251
v 0.17562390 0.06656734 -0.09899985
v 0.10137742 0.06656734 -0.17324632
v 0.09639950 0.12173516 -0.16785462
v 0.16700201 0.12173516 -0.09752635
v -0.00004512 0.06656734 -0.20042238
v -0.00004512 0.12173516 -0.19359655
v -0.10146766 0.06656734 -0.17324632
v -0.09648974 0.12173516 -0.16785462
v -0.17571414 0.06656734 -0.09899985
v -0.16709225 0.12173516 -0.09752635
v -0.20289021 0.06656734 0.00242251
v -0.19293436 0.12173516 -0.00145614
v -0.17571414 0.06656734 0.10384505
v -0.16709225 0.12173516 0.09461407
v -0.10146766 0.06656734 0.17809153
v -0.09648974 0.12173516 0.16494233
v -0.00004512 0.06656734 0.20526761
v -0.00004512 0.12173516 0.19068427
v 0.10137742 0.06656734 0.17809153
v 0.09639950 0.12173516 0.16494233
v 0.17562390 0.06656734 0.10384505
v 0.16700201 0.12173516 0.09461407
v 0.20279996 0.06656734 0.00242251
v 0.19284412 0.12173516 -0.00145614
vn 0.72961056 -0.54477442 -0.41338755
vn 0.41703607 -0.55969827 -0.71611365
vn 0.33312863 0.73847887 -0.58623738
vn 0.56890261 0.75002937 -0.33735111
vn -0.00035468 -0.56439745 -0.82550311
vn -0.00012918 0.73452636 -0.67858014
vn -0.41748515 -0.55963901 -0.71589827
vn -0.33335902 0.73802570 -0.58667694
vn -0.72934182 -0.54506987 -0.41347231
vn -0.56909373 0.74943736 -0.33834297
vn -0.85345929 -0.52108921 0.00856002
vn -0.64019236 0.76814836 -0.01009154
vn -0.74963900 -0.49231202 0.44234630
vn -0.53543217 0.78989051 0.29897387
vn -0.43720692 -0.46804453 0.76797423
vn -0.29907812 0.80726903 0.50879170
vn -0.00044199 -0.45842821 0.88873133
vn -0.00003008 0.81398920 0.58088000
vn 0.43716828 -0.46774561 0.76817832
vn 0.29935339 0.80763399 0.50805009
vn 0.74989224 -0.49166887 0.44263230
vn 0.53494069 0.79039356 0.29852383
vn 0.85385410 -0.52044384 0.00844876
vn 0.63954763 0.76868643 -0.00999984
vn -0.86030665 -0.14775764 0.48789357
vn -0.85128984 -0.14650064 0.50382852
vn -0.49095360 -0.12794171 0.86173980
vn -0.49952729 -0.12908384 0.85662702
vn -0.00034243 -0.12250417 0.99246794
vn -0.00031637 -0.12250316 0.99246807
vn 0.49061849 -0.12879223 0.86180396
vn 0.49929562 -0.12820370 0.85689421
vn 0.85157339 -0.14712703 0.50316638
vn 0.86067368 -0.14722749 0.48740628
vn 0.98412684 -0.17710078 0.01138729
vn 0.98385383 -0.17863180 -0.01105969
vn 0.85108614 -0.21300719 -0.47987532
vn 0.84039086 -0.21517965 -0.49743434
vn 0.49041349 -0.24339716 -0.83681087
vn 0.47966069 -0.24416141 -0.84279940
vn -0.00034169 -0.25529606 -0.96686287
vn -0.00029571 -0.25529214 -0.96686392
vn -0.49015919 -0.24314283 -0.83703377
vn -0.47935920 -0.24445370 -0.84288620
vn -0.85108614 -0.21300719 -0.47987532
vn -0.84039086 -0.21517965 -0.49743434
vn -0.98412684 -0.17710078 0.01138729
vn -0.98385383 -0.17863180 -0.01105969
vn 0.12781461 -0.98912218 -0.07280614
vn 0.06428598 -0.99176578 -0.11076075
vn -0.06409852 0.99176685 0.11085979
vn -0.12768960 0.98912553 0.07297975
vn -0.00026777 -0.99253092 -0.12199304
vn 0.00028298 0.99252924 0.12200663
vn -0.06501906 -0.99169943 -0.11092682
vn 0.06487211 0.99169660 0.11103811
vn -0.12893445 -0.98897206 -0.07287098
vn 0.12887052 0.98896675 0.07305583
vn -0.17914071 -0.98382220 0.00157488
vn 0.17919832 0.98381158 -0.00165133
vn -0.18549698 -0.97662873 0.10856889
vn 0.18532361 0.97661702 -0.10896947
vn -0.12144070 -0.96984379 0.21131773
vn 0.12105650 0.96984110 -0.21155038
vn -0.00048682 -0.96707463 0.25449248
vn 0.00050532 0.96707078 -0.25450707
vn 0.12036857 -0.97004610 0.21100228
vn -0.11994266 0.97005175 -0.21121876
vn 0.18423018 -0.97691416 0.10815715
vn -0.18399446 0.97691590 -0.10854195
vn 0.17780429 -0.98406495 0.00134789
vn -0.17779009 0.98406741 -0.00142136
f 2//2 4//4 1//1
f 4//4 2//2 3//3
f 5//5 3//3 2//2
f 3//3 5//5 6//6
f 7//7 6//6 5//5
f 6//6 7//7 8//8
f 9//9 8//8 7//7
f 8//8 9//9 10//10
f 11//11 10//10 9//9
f 10//10 11//11 12//12
f 13//13 12//12 11//11
f 12//12 13//13 14//14
f 15//15 14//14 13//13
f 14//14 15//15 16//16
f 18//18 16//16 15//15
f 15//15 17//17 18//18
f 20//20 18//18 17//17
f 17//17 19//19 20//20
f 22//22 20//20 19//19
f 19//19 21//21 22//22
f 24//24 22//22 21//21
f 21//21 23//23 24//24
f 4//4 24//24 23//23
f 23//23 1//1 4//4
f 27//27 28//28 25//25
f 25//25 26//26 27//27
f 29//29 30//30 28//28
f 28//28 27//27 29//29
f 31//31 32//32 30//30
f 30//30 29//29 31//31
f 33//33 34//34 32//32
f 32//32 31//31 33//33
f 35//35 36//36 34//34
f 34//34 33//33 35//35
f 37//37 38//38 36//36
f 36//36 35//35 37//37
f 39//39 40//40 38//38
f 38//38 37//37 39//39
f 39//39 42//42 40//40
f 42//42 39//39 41//41
f 41//41 44//44 42//42
f 44//44 41//41 43//43
f 43//43 46//46 44//44
f 46//46 43//43 45//45
f 45//45 48//48 46//46
f 48//48 45//45 47//47
f 47//47 25//25 48//48
f 25//25 47//47 26//26
f 2//2 1//1 49//49
f 49//49 50//50 2//2
f 52//52 3//3 51//51
f 3//3 52//52 4//4
f 5//5 2//2 50//50
f 50//50 53//53 5//5
f 51//51 6//6 54//54
f 6//6 51//51 3//3
f 7//7 5//5 53//53
f 53//53 55//55 7//7
f 54//54 8//8 56//56
f 8//8 54//54 6//6
f 9//9 7//7 55//55
f 55//55 57//57 9//9
f 56//56 10//10 58//58
f 10//10 56//56 8//8
f 11//11 9//9 57//57
f 57//57 59//59 11//11
f 58//58 12//12 60//60
f 12//12 58//58 10//10
f 13//13 11//11 59//59
f 59//59 61//61 13//13
f 60//60 14//14 62//62
f 14//14 60//60 12//12
f 15//15 13//13 61//61
f 61//61 63//63 15//15
f 62//62 16//16 64//64
f 16//16 62//62 14//14
f 17//17 15//15 63//63
f 63//63 65//65 17//17
f 64//64 18//18 66//66
f 18//18 64//64 16//16
f 19//19 17//17 65//65
f 65//65 67//67 19//19
f 66//66 20//20 68//68
f 20//20 66//66 18//18
f 21//21 19//19 67//67
f 67//67 69//69 21//21
f 68//68 22//22 70//70
f 22//22 68//68 20//20
f 23//23 21//21 69//69
f 69//69 71//71 23//23
f 70//70 24//24 72//72
f 24//24 70//70 22//22
f 1//1 23//23 71//71
f 71//71 49//49 1//1
f 72//72 4//4 52//52
f 4//4 72//72 24//24

o lambert2SG_1
usemtl lambert2SG_140f12
v 0.00956379 0.24983054 -0.46971359
v 0.00549589 0.24687905 -0.46692896
v -0.00004512 0.22689818 -0.50000000
v -0.00004512 0.24580259 -0.46591565
v -0.00558613 0.24687905 -0.46692896
v -0.00965403 0.24983054 -0.46971359
v -0.01113143 0.25386959 -0.47353533
v -0.00960784 0.25788857 -0.47734243
v -0.00553838 0.26079795 -0.48009552
v -0.00004512 0.26185257 -0.48109187
v 0.00544813 0.26079795 -0.48009552
v 0.00951760 0.25788857 -0.47734243
v 0.01104118 0.25386959 -0.47353533
v 0.09929309 0.07145405 -0.16963860
v 0.17215612 0.07137219 -0.09682390
v 0.26181407 0.03704830 -0.13673558
v 0.15188112 0.04849909 -0.27071811
v -0.00007767 0.07135660 -0.19635098
v 0.09929309 0.07145405 -0.16963860
v 0.15188112 0.04849909 -0.27071811
v -0.00007182 0.03204562 -0.30374937
v -0.09931648 0.07145502 -0.16967485
v -0.00007767 0.07135660 -0.19635098
v -0.00007182 0.03204562 -0.30374937
v -0.15505577 0.04859458 -0.25738219
v -0.17216723 0.07146262 -0.09678376
v -0.09931648 0.07145502 -0.16967485
v -0.15505577 0.04859458 -0.25738219
v -0.27082210 0.04194066 -0.14586774
v -0.19878898 0.07138214 0.00253809
v -0.17216723 0.07146262 -0.09678376
v -0.27082210 0.04194066 -0.14586774
v -0.30618699 0.03205128 0.00250554
v -0.17213955 0.07145990 0.10167866
v -0.19878898 0.07138214 0.00253809
v -0.30618699 0.03205128 0.00250554
v -0.26523197 0.03204991 0.15539268
v -0.09928179 0.07161330 0.17434269
v -0.17213955 0.07145990 0.10167866
v -0.26523197 0.03204991 0.15539268
v -0.15487158 0.04668937 0.26574664
v 0.00006325 0.07152909 0.20101570
v -0.09928179 0.07161330 0.17434269
v -0.15487158 0.04668937 0.26574664
v 0.00006461 0.03205011 0.30856397
v 0.09913132 0.07151759 0.17449140
v 0.00006325 0.07152909 0.20101570
v 0.00006461 0.03205011 0.30856397
v 0.15291939 0.03204875 0.26761560
v 0.17186317 0.07159868 0.10171355
v 0.09913132 0.07151759 0.17449140
v 0.15291939 0.03204875 0.26761560
v 0.27901227 0.04698622 0.15314306
v 0.19866365 0.07141859 0.00231765
v 0.17186317 0.07159868 0.10171355
v 0.27901227 0.04698622 0.15314306
v 0.30610785 0.03204815 0.00230030
v 0.17215612 0.07137219 -0.09682390
v 0.19866365 0.07141859 0.00231765
v 0.30610785 0.03204815 0.00230030
v 0.26181407 0.03704830 -0.13673558
v 0.17215612 0.07137219 -0.09682390
v 0.09929309 0.07145405 -0.16963860
v 0.09525169 0.12154319 -0.16575235
v 0.16499290 0.12168158 -0.09624775
v -0.00007767 0.07135660 -0.19635098
v -0.00004512 0.12149191 -0.19119744
v -0.09931648 0.07145502 -0.16967485
v -0.09534194 0.12154319 -0.16575235
v -0.17216723 0.07146262 -0.09678376
v -0.16508314 0.12168158 -0.09624775
v -0.19878898 0.07138214 0.00253809
v -0.19058301 0.12186985 -0.00132867
v -0.17213955 0.07145990 0.10167866
v -0.16502565 0.12206163 0.09355923
v -0.09928179 0.07161330 0.17434269
v -0.09528171 0.12220529 0.16299717
v 0.00006325 0.07152909 0.20101570
v -0.00004512 0.12225868 0.18840679
v 0.09913132 0.07151759 0.17449140
v 0.09519147 0.12220529 0.16299717
v 0.17186317 0.07159868 0.10171355
v 0.16493541 0.12206163 0.09355923
v 0.19866365 0.07141859 0.00231765
v 0.19049277 0.12186985 -0.00132867
v 0.14145535 0.20680716 -0.09702660
v 0.08159048 0.19746177 -0.15606236
v 0.06343158 0.35449731 -0.14363704
v 0.10903551 0.37546362 -0.10407932
v -0.00004512 0.19405616 -0.17763465
v -0.00004512 0.34640359 -0.15786914
v -0.08168072 0.19746177 -0.15606236
v -0.06352183 0.35449731 -0.14363704
v -0.14154560 0.20680716 -0.09702660
v -0.10912576 0.37546362 -0.10407932
v -0.16349757 0.21964063 -0.01628486
v -0.12540574 0.40286678 -0.04910737
v -0.14159842 0.23251559 0.06445846
v -0.10837829 0.42968011 0.00647988
v -0.08175985 0.24195336 0.12353708
v -0.06253813 0.44913240 0.04742223
v -0.00004512 0.24540925 0.14515265
v -0.00004512 0.45622977 0.06244779
v 0.08166961 0.24195336 0.12353708
v 0.06244789 0.44913240 0.04742223
v 0.14150818 0.23251559 0.06445846
v 0.10828804 0.42968011 0.00647988
v 0.16340733 0.21964063 -0.01628486
v 0.12531550 0.40286678 -0.04910737
v 0.04456576 0.50190718 -0.19143835
v 0.07704446 0.52228895 -0.16587338
v -0.00004512 0.49437810 -0.20080169
v -0.04465600 0.50190718 -0.19143835
v -0.07713471 0.52228895 -0.16587338
v -0.08886031 0.54984648 -0.13100746
v -0.07684839 0.57721763 -0.09618655
v -0.04435702 0.59719014 -0.07070462
v -0.00004512 0.60449230 -0.06137677
v 0.04426677 0.59719014 -0.07070462
v 0.07675814 0.57721763 -0.09618655
v 0.08877007 0.54984648 -0.13100746
v 0.03342001 0.53411337 -0.24218646
v 0.05777304 0.55799067 -0.23619190
v -0.00004512 0.52535347 -0.24433160
v -0.03351025 0.53411337 -0.24218646
v -0.05786328 0.55799067 -0.23619190
v -0.06652105 0.59029900 -0.22775340
v -0.05739843 0.62226942 -0.21913715
v -0.03308204 0.64551886 -0.21277442
v -0.00004512 0.65400353 -0.21044042
v 0.03299180 0.64551886 -0.21277442
v 0.05730819 0.62226942 -0.21913715
v 0.06643081 0.59029900 -0.22775340
v 0.02463302 0.52765240 -0.27878141
v 0.04274669 0.54259400 -0.28439004
v -0.00004512 0.52234978 -0.27677990
v -0.02472326 0.52765240 -0.27878141
v -0.04283694 0.54259400 -0.28439004
v -0.04923651 0.56342406 -0.29227521
v -0.04231790 0.58414422 -0.30031686
v -0.02430655 0.59910120 -0.30632779
v -0.00004512 0.60452878 -0.30856065
v 0.02421631 0.59910120 -0.30632779
v 0.04222766 0.58414422 -0.30031686
v 0.04914627 0.56342406 -0.29227521
v 0.04075319 0.50220128 -0.31392761
v 0.02346163 0.49692746 -0.29739716
v 0.01949781 0.40185617 -0.30393376
v 0.03403689 0.40714067 -0.31831477
v -0.00004512 0.49511623 -0.29136578
v -0.00004512 0.39980282 -0.29841184
v -0.02355187 0.49692746 -0.29739716
v -0.01958805 0.40185617 -0.30393376
v -0.04084343 0.50220128 -0.31392761
v -0.03412713 0.40714067 -0.31831477
v -0.04707304 0.50977478 -0.33640369
v -0.03980984 0.41400746 -0.33734995
v -0.04060311 0.51737164 -0.35863671
v -0.03484614 0.42080970 -0.35628438
v -0.02337840 0.52285109 -0.37476058
v -0.02028523 0.42585623 -0.37016994
v -0.00004512 0.52483640 -0.38063255
v -0.00004512 0.42772988 -0.37525430
v 0.02328816 0.52285109 -0.37476058
v 0.02019499 0.42585623 -0.37016994
v 0.04051286 0.51737164 -0.35863671
v 0.03475590 0.42080970 -0.35628438
v 0.04698280 0.50977478 -0.33640369
v 0.03971959 0.41400746 -0.33734995
v 0.02455291 0.34807296 -0.36026379
v 0.01411487 0.34433194 -0.35079562
v 0.00764591 0.29559117 -0.42380677
v 0.01338026 0.29979122 -0.42757530
v -0.00004512 0.34296369 -0.34733465
v -0.00004512 0.29408491 -0.42244828
v -0.01420511 0.34433194 -0.35079562
v -0.00773615 0.29559117 -0.42380677
v -0.02464315 0.34807296 -0.36026379
v -0.01347051 0.29979122 -0.42757530
v -0.02865570 0.35334250 -0.37333699
v -0.01561526 0.30568814 -0.43279609
v -0.02497352 0.35886460 -0.38655734
v -0.01346290 0.31165305 -0.43796912
v -0.01445576 0.36301767 -0.39623836
v -0.00771432 0.31596225 -0.44163082
v -0.00004512 0.36454084 -0.39975995
v -0.00004512 0.31751099 -0.44293145
v 0.01436552 0.36301767 -0.39623836
v 0.00762408 0.31596225 -0.44163082
v 0.02488328 0.35886460 -0.38655734
v 0.01337266 0.31165305 -0.43796912
v 0.02856546 0.35334250 -0.37333699
v 0.01552502 0.30568814 -0.43279609
v 0.49759727 0.00524554 0.00236033
v 0.43096504 0.00524319 -0.24632823
v 0.43096504 0.00524319 -0.24632823
v 0.24876955 0.00522429 -0.42857848
v 0.24876955 0.00522429 -0.42857848
v -0.00005565 0.00522975 -0.49532123
v -0.00005565 0.00522975 -0.49532123
v -0.24886290 0.00522059 -0.42862565
v -0.24886290 0.00522059 -0.42862565
v -0.43110342 0.00522740 -0.24636643
v -0.43110342 0.00522740 -0.24636643
v -0.49759727 0.00525996 0.00246539
v -0.49759727 0.00525996 0.00246539
v -0.43099756 0.00525450 0.25115610
v -0.43099756 0.00525450 0.25115610
v -0.24885198 0.00523677 0.43335861
v -0.24885198 0.00523677 0.43335861
v 0.00001666 0.00525509 0.50000000
v 0.00001666 0.00525509 0.50000000
v 0.24869255 0.00525256 0.43338333
v 0.24869255 0.00525256 0.43338333
v 0.43092233 0.00522975 0.25122353
v 0.43092233 0.00522975 0.25122353
v 0.49759727 0.00524554 0.00236033
v 0.00497393 0.25204330 -0.47127032
v -0.00004512 0.23068852 -0.49625563
v 0.00285256 0.25038778 -0.46994376
v -0.00004512 0.24978200 -0.46945824
v -0.00294280 0.25038778 -0.46994376
v -0.00506417 0.25204330 -0.47127032
v -0.00584068 0.25430461 -0.47308216
v -0.00506417 0.25656612 -0.47489424
v -0.00294280 0.25822148 -0.47622076
v -0.00004512 0.25882744 -0.47670627
v 0.00285256 0.25822148 -0.47622076
v 0.00497393 0.25656612 -0.47489424
v 0.00575044 0.25430461 -0.47308216
v 0.09740834 0.06768728 -0.16637546
v 0.15135799 0.04328941 -0.26973168
v 0.26065634 0.03187059 -0.13624832
v 0.16874914 0.06768728 -0.09503466
v -0.00004512 0.06768728 -0.19248812
v -0.00004512 0.02686715 -0.30249690
v 0.15135799 0.04328941 -0.26973168
v 0.09740834 0.06768728 -0.16637546
v -0.09749858 0.06768728 -0.16637546
v -0.15453517 0.04339311 -0.25635210
v -0.00004512 0.02686715 -0.30249690
v -0.00004512 0.06768728 -0.19248812
v -0.16883938 0.06768728 -0.09503466
v -0.26973491 0.03674541 -0.14540426
v -0.15453517 0.04339311 -0.25635210
v -0.09749858 0.06768728 -0.16637546
v -0.19495204 0.06768728 0.00241880
v -0.30496083 0.02686715 0.00241880
v -0.26973491 0.03674541 -0.14540426
v -0.16883938 0.06768728 -0.09503466
v -0.16883938 0.06768728 0.09987226
v -0.26410990 0.02686715 0.15487675
v -0.30496083 0.02686715 0.00241880
v -0.19495204 0.06768728 0.00241880
v -0.09749858 0.06768728 0.17121307
v -0.15429056 0.04148595 0.26475982
v -0.26410990 0.02686715 0.15487675
v -0.16883938 0.06768728 0.09987226
v -0.00004512 0.06768728 0.19732573
v -0.00004512 0.02686715 0.30733451
v -0.15429056 0.04148595 0.26475982
v -0.09749858 0.06768728 0.17121307
v 0.09740834 0.06768728 0.17121307
v 0.15241282 0.02686715 0.26648358
v -0.00004512 0.02686715 0.30733451
v -0.00004512 0.06768728 0.19732573
v 0.16874914 0.06768728 0.09987226
v 0.27803481 0.04177480 0.15262110
v 0.15241282 0.02686715 0.26648358
v 0.09740834 0.06768728 0.17121307
v 0.19486180 0.06768728 0.00241880
v 0.30487058 0.02686715 0.00241880
v 0.27803481 0.04177480 0.15262110
v 0.16874914 0.06768728 0.09987226
v 0.16874914 0.06768728 -0.09503466
v 0.26065634 0.03187059 -0.13624832
v 0.30487058 0.02686715 0.00241880
v 0.19486180 0.06768728 0.00241880
v 0.16874914 0.06768728 -0.09503466
v 0.16046483 0.12069612 -0.09361866
v 0.09262532 0.12069612 -0.16119464
v 0.09740834 0.06768728 -0.16637546
v -0.00004512 0.12069612 -0.18592931
v -0.00004512 0.06768728 -0.19248812
v -0.09271557 0.12069612 -0.16119464
v -0.09749858 0.06768728 -0.16637546
v -0.16055507 0.12069612 -0.09361866
v -0.16883938 0.06768728 -0.09503466
v -0.18538601 0.12069631 -0.00130821
v -0.19495204 0.06768728 0.00241880
v -0.16055507 0.12069631 0.09100244
v -0.16883938 0.06768728 0.09987226
v -0.09271557 0.12069631 0.15857842
v -0.09749858 0.06768728 0.17121307
v -0.00004512 0.12069631 0.18331309
v -0.00004512 0.06768728 0.19732573
v 0.09262532 0.12069631 0.15857842
v 0.09740834 0.06768728 0.17121307
v 0.16046483 0.12069631 0.09100244
v 0.16874914 0.06768728 0.09987226
v 0.18529577 0.12069631 -0.00130821
v 0.19486180 0.06768728 0.00241880
v 0.13702356 0.20583342 -0.09423418
v 0.10451270 0.37518708 -0.10127675
v 0.06084477 0.35471404 -0.13898421
v 0.07909157 0.19663108 -0.15143078
v -0.00004512 0.34677432 -0.15255403
v -0.00004512 0.19326269 -0.17236612
v -0.06093502 0.35471404 -0.13898421
v -0.07918181 0.19663108 -0.15143078
v -0.10460295 0.37518708 -0.10127675
v -0.13711381 0.20583342 -0.09423418
v -0.12018848 0.40182498 -0.04882125
v -0.15831851 0.21840412 -0.01610242
v -0.10388392 0.42782208 0.00430375
v -0.13711381 0.23097466 0.06202953
v -0.05995424 0.44665553 0.04347556
v -0.07918181 0.24017698 0.11922593
v -0.00004512 0.45352288 0.05785871
v -0.00004512 0.24354536 0.14016129
v 0.05986400 0.44665553 0.04347556
v 0.07909157 0.24017698 0.11922593
v 0.10379368 0.42782208 0.00430375
v 0.13702356 0.23097466 0.06202953
v 0.12009824 0.40182498 -0.04882125
v 0.15822826 0.21840412 -0.01610242
v 0.07237508 0.52312591 -0.16344815
v 0.04176670 0.50433706 -0.18761116
v -0.00004512 0.49745996 -0.19645545
v -0.04185695 0.50433706 -0.18761116
v -0.07246532 0.52312591 -0.16344815
v -0.08366857 0.54879144 -0.13044067
v -0.07246532 0.57445716 -0.09743318
v -0.04185695 0.59324600 -0.07326998
v -0.00004512 0.60012292 -0.06442570
v 0.04176670 0.59324600 -0.07326998
v 0.07237508 0.57445716 -0.09743318
v 0.08357833 0.54879144 -0.13044067
v 0.05306741 0.56005628 -0.23478604
v 0.03061939 0.53842922 -0.24080185
v -0.00004512 0.53051325 -0.24300371
v -0.03070963 0.53842922 -0.24080185
v -0.05315765 0.56005628 -0.23478604
v -0.06137414 0.58959890 -0.22656799
v -0.05315765 0.61914174 -0.21835012
v -0.03070963 0.64076880 -0.21233433
v -0.00004512 0.64868455 -0.21013265
v 0.03061939 0.64076880 -0.21233433
v 0.05306741 0.61914174 -0.21835012
v 0.06128390 0.58959890 -0.22656799
v 0.03803716 0.54495158 -0.28519559
v 0.02195519 0.53161118 -0.28113627
v -0.00004512 0.52677455 -0.27974774
v -0.02204544 0.53161118 -0.28113627
v -0.03812740 0.54495158 -0.28519559
v -0.04399507 0.56331397 -0.29132542
v -0.03811941 0.58176169 -0.29806237
v -0.02204466 0.59531143 -0.30334318
v -0.00004512 0.60028041 -0.30534527
v 0.02195441 0.59531143 -0.30334318
v 0.03802917 0.58176169 -0.29806237
v 0.04390483 0.56331397 -0.29132542
v 0.03608107 0.50331125 -0.31623531
v 0.02951602 0.40845808 -0.32080723
v 0.01685955 0.40368265 -0.30818720
v 0.02081226 0.49849023 -0.30174767
v -0.00004512 0.40183456 -0.30333714
v -0.00004512 0.49672574 -0.29644465
v -0.01694979 0.40368265 -0.30818720
v -0.02090250 0.49849023 -0.30174767
v -0.02960626 0.40845808 -0.32080723
v -0.03617131 0.50331125 -0.31623531
v -0.03452162 0.41465492 -0.33739635
v -0.04176008 0.50989699 -0.33602557
v -0.03017305 0.42075747 -0.35372566
v -0.03617131 0.51648268 -0.35581602
v -0.01756024 0.42526900 -0.36562939
v -0.02090250 0.52130370 -0.37030384
v -0.00004512 0.42694325 -0.36998478
v -0.00004512 0.52306819 -0.37560649
v 0.01746999 0.42526900 -0.36562939
v 0.02081226 0.52130370 -0.37030384
v 0.03008281 0.42075747 -0.35372566
v 0.03608107 0.51648268 -0.35581602
v 0.03443138 0.41465492 -0.33739635
v 0.04166983 0.50989699 -0.33602557
v 0.02020239 0.35062799 -0.36197626
v 0.00886057 0.30215154 -0.42912050
v 0.00509652 0.29921411 -0.42676682
v 0.01164481 0.34792602 -0.35385624
v -0.00004512 0.29813900 -0.42590551
v -0.00004512 0.34693706 -0.35088410
v -0.00518677 0.29921411 -0.42676682
v -0.01173505 0.34792602 -0.35385624
v -0.00895081 0.30215154 -0.42912050
v -0.02029264 0.35062799 -0.36197626
v -0.01032861 0.30616390 -0.43233572
v -0.02342499 0.35431896 -0.37306803
v -0.00895081 0.31017644 -0.43555089
v -0.02029264 0.35801012 -0.38415998
v -0.00518677 0.31311386 -0.43790439
v -0.01173505 0.36071208 -0.39227981
v -0.00004512 0.31418898 -0.43876588
v -0.00004512 0.36170105 -0.39525195
v 0.00509652 0.31311386 -0.43790439
v 0.01164481 0.36071208 -0.39227981
v 0.00886057 0.31017644 -0.43555089
v 0.02020239 0.35801012 -0.38415998
v 0.01023836 0.30616390 -0.43233572
v 0.02333474 0.35431896 -0.37306803
v 0.43013044 0.00000000 -0.24594309
v 0.49667885 0.00000000 0.00241880
v 0.24831677 0.00000000 -0.42775676
v 0.43013044 0.00000000 -0.24594309
v -0.00004512 0.00000000 -0.49430517
v 0.24831677 0.00000000 -0.42775676
v -0.24840702 0.00000000 -0.42775676
v -0.00004512 0.00000000 -0.49430517
v -0.43022069 0.00000000 -0.24594309
v -0.24840702 0.00000000 -0.42775676
v -0.49676910 0.00000000 0.00241880
v -0.43022069 0.00000000 -0.24594309
v -0.43022069 0.00000000 0.25078070
v -0.49676910 0.00000000 0.00241880
v -0.24840702 0.00000000 0.43259437
v -0.43022069 0.00000000 0.25078070
v -0.00004512 0.00000000 0.49914278
v -0.24840702 0.00000000 0.43259437
v 0.24831677 0.00000000 0.43259437
v -0.00004512 0.00000000 0.49914278
v 0.43013044 0.00000000 0.25078070
v 0.24831677 0.00000000 0.43259437
v 0.49667885 0.00000000 0.00241880
v 0.43013044 0.00000000 0.25078070
v 0.49667885 0.00000000 0.00241880
v 0.43013044 0.00000000 -0.24594309
v 0.43013044 0.00000000 -0.24594309
v 0.24831677 0.00000000 -0.42775676
v 0.24831677 0.00000000 -0.42775676
v -0.00004512 0.00000000 -0.49430517
v -0.00004512 0.00000000 -0.49430517
v -0.24840702 0.00000000 -0.42775676
v -0.24840702 0.00000000 -0.42775676
v -0.43022069 0.00000000 -0.24594309
v -0.43022069 0.00000000 -0.24594309
v -0.49676910 0.00000000 0.00241880
v -0.49676910 0.00000000 0.00241880
v -0.43022069 0.00000000 0.25078070
v -0.43022069 0.00000000 0.25078070
v -0.24840702 0.00000000 0.43259437
v -0.24840702 0.00000000 0.43259437
v -0.00004512 0.00000000 0.49914278
v -0.00004512 0.00000000 0.49914278
v 0.24831677 0.00000000 0.43259437
v 0.24831677 0.00000000 0.43259437
v 0.43013044 0.00000000 0.25078070
v 0.43013044 0.00000000 0.25078070
v 0.49667885 0.00000000 0.00241880
vn 0.85488241 -0.45281139 0.25325465
vn 0.49257842 -0.69375418 0.52542520
vn -0.00000000 -0.71095618 -0.70323632
vn -0.00006537 -0.78122072 0.62425491
vn -0.49266648 -0.69353177 0.52563621
vn -0.85483381 -0.45273980 0.25354651
vn -0.98512419 -0.12230199 -0.12071685
vn -0.84644422 0.20498375 -0.49144059
vn -0.48398409 0.43919166 -0.75688182
vn -0.00007841 0.52314522 -0.85224355
vn 0.48387727 0.43893999 -0.75709608
vn 0.84648406 0.20475453 -0.49146751
vn 0.98512419 -0.12230199 -0.12071685
vn 0.14680744 0.97836009 -0.14580504
vn 0.24053692 0.95832959 -0.15409862
vn 0.21925274 0.96649095 -0.13350459
vn 0.23329371 0.96366919 -0.13006049
vn 0.09109671 0.93516655 -0.34229360
vn 0.00463442 0.95849072 -0.28508605
vn -0.01796121 0.97637715 -0.21532549
vn -0.03794950 0.97811071 -0.20459537
vn -0.05748212 0.97438047 -0.21743621
vn -0.02220149 0.95387624 -0.29937803
vn -0.00766883 0.96769276 -0.25201570
vn 0.00239543 0.96280181 -0.27019795
vn -0.19229652 0.96231307 -0.19229041
vn -0.18857896 0.96948991 -0.15661190
vn -0.17083181 0.97575318 -0.13682916
vn -0.17095997 0.97680535 -0.12893407
vn -0.34242955 0.93512373 -0.09102538
vn -0.30822002 0.95052614 -0.03873593
vn -0.21925707 0.97559519 -0.01184784
vn -0.21303235 0.97704514 0.00009139
vn -0.34299628 0.93487304 0.09146561
vn -0.34266563 0.93497757 0.09163624
vn -0.22548127 0.97237273 0.06041088
vn -0.22560335 0.97234764 0.06035893
vn -0.16587425 0.97236986 0.16426379
vn -0.24789386 0.95374011 0.17008360
vn -0.21507578 0.96751657 0.13286875
vn -0.23564072 0.96258872 0.13377746
vn -0.09134180 0.93482564 0.34315842
vn -0.02500994 0.95372669 0.29963294
vn -0.00012291 0.97541040 0.22039631
vn 0.01791569 0.97785731 0.20850445
vn 0.09196324 0.93479470 0.34307673
vn 0.09194396 0.93478292 0.34311399
vn 0.06049617 0.97229553 0.22579107
vn 0.06049796 0.97230190 0.22576320
vn 0.15126783 0.97669586 0.15226045
vn 0.15971198 0.95559198 0.24766116
vn 0.13008609 0.96669181 0.22041906
vn 0.12802868 0.96224673 0.24018720
vn 0.34265104 0.93507460 0.09069601
vn 0.28623113 0.95814578 0.00532963
vn 0.21463599 0.97654776 -0.01690757
vn 0.20606786 0.97788969 -0.03560606
vn 0.32232030 0.94265931 -0.08662014
vn 0.33489817 0.93885483 -0.07996759
vn 0.23055446 0.97184957 -0.04850819
vn 0.24530127 0.96829987 -0.04714501
vn 0.86368677 0.12855588 -0.48735875
vn 0.50111719 0.10656306 -0.85879326
vn 0.49419820 0.14751495 -0.85674237
vn 0.85431310 0.17813357 -0.48828021
vn -0.00065578 0.10175624 -0.99480915
vn -0.00143313 0.14067350 -0.99005500
vn -0.50102148 0.10750059 -0.85873227
vn -0.49602619 0.15192825 -0.85491276
vn -0.86347676 0.12764693 -0.48796942
vn -0.85249428 0.17968211 -0.49088476
vn -0.98678896 0.16157567 0.01186835
vn -0.97627742 0.21652335 0.00021211
vn -0.84319077 0.19861595 0.49958085
vn -0.84034212 0.24814456 0.48192260
vn -0.48041247 0.22802754 0.84688092
vn -0.48018945 0.27272919 0.83368872
vn -0.00007002 0.24099045 0.97052748
vn 0.00047532 0.28540535 0.95840678
vn 0.48021927 0.22874039 0.84679826
vn 0.48115074 0.27735593 0.83160547
vn 0.84351898 0.19665624 0.49980202
vn 0.83860365 0.25083590 0.48355482
vn 0.98687773 0.16106805 0.01137634
vn 0.97634556 0.21621484 0.00069298
vn 0.83986007 0.18356472 -0.51082194
vn 0.47331726 0.15612266 -0.86694665
vn 0.46943105 -0.03348012 -0.88233416
vn 0.84627627 0.05448658 -0.52995065
vn -0.00421296 0.15269482 -0.98826441
vn -0.00477410 -0.06729572 -0.99772165
vn -0.47665941 0.16107116 -0.86420593
vn -0.47662819 -0.04582862 -0.87790962
vn -0.83494999 0.18491747 -0.51832813
vn -0.84371938 0.04749833 -0.53467889
vn -0.97254231 0.23037877 -0.03297093
vn -0.97902464 0.19529828 -0.05804593
vn -0.84536378 0.28804705 0.44987663
vn -0.84419238 0.34951923 0.40641793
vn -0.48431882 0.33461890 0.80837211
vn -0.48297740 0.46552627 0.74163207
vn 0.00138272 0.34922141 0.93703922
vn 0.00052386 0.50828477 0.86118890
vn 0.48702006 0.33081509 0.80831481
vn 0.48409025 0.46579210 0.74073905
vn 0.84377549 0.28582339 0.45425534
vn 0.84317001 0.35023331 0.40792274
vn 0.97254231 0.23037877 -0.03297093
vn 0.97902464 0.19529828 -0.05804593
vn 0.52859502 -0.44618125 -0.72215622
vn 0.87880613 -0.13482610 -0.45773542
vn 0.00061947 -0.57686698 -0.81683787
vn -0.53050184 -0.44784206 -0.71972584
vn -0.87837519 -0.13693527 -0.45793642
vn -0.96908948 0.22117644 -0.10930031
vn -0.81355935 0.53456805 0.22881911
vn -0.46131052 0.74750820 0.47793734
vn -0.00071527 0.82065375 0.57142533
vn 0.46159873 0.74259620 0.48526024
vn 0.81728529 0.52583243 0.23567989
vn 0.96908948 0.22117644 -0.10930031
vn 0.53461658 -0.79885874 -0.27569878
vn 0.88244913 -0.37244179 -0.28735107
vn 0.00453710 -0.96645394 -0.25679992
vn -0.53047568 -0.80708413 -0.25925038
vn -0.88469811 -0.36961741 -0.28406375
vn -0.95972001 0.13427883 -0.24679284
vn -0.79758246 0.58054327 -0.16380392
vn -0.45259819 0.88741385 -0.08747302
vn -0.00347510 0.99830195 -0.05814752
vn 0.44697195 0.89007541 -0.08934115
vn 0.80339357 0.57236426 -0.16418870
vn 0.95972001 0.13427883 -0.24679284
vn 0.47828801 -0.74000175 0.47290377
vn 0.87412840 -0.45253186 0.17639290
vn -0.00657467 -0.82753133 0.56138105
vn -0.48353552 -0.76005696 0.43417372
vn -0.87468665 -0.45740368 0.16032821
vn -0.98556936 0.00349087 -0.16923611
vn -0.79875960 0.43171804 -0.41904967
vn -0.43596935 0.70609064 -0.55800244
vn -0.00300236 0.79704491 -0.60391258
vn 0.43019526 0.70464125 -0.56428074
vn 0.80319941 0.42332023 -0.41913088
vn 0.98556936 0.00349087 -0.16923611
vn 0.88691685 -0.20317438 0.41484778
vn 0.50963834 -0.29240889 0.80917601
vn 0.50314996 -0.34314699 0.79315211
vn 0.84946921 -0.24765602 0.46590617
vn -0.00989550 -0.28939515 0.95715857
vn -0.00007774 -0.38051461 0.92477491
vn -0.51196139 -0.27075870 0.81522099
vn -0.50237409 -0.33918967 0.79534309
vn -0.88323386 -0.19828770 0.42494697
vn -0.85009073 -0.24576921 0.46577167
vn -0.99686627 -0.02345500 -0.07554803
vn -0.99237420 -0.12213343 0.01663939
vn -0.83641303 0.16244792 -0.52347293
vn -0.88079547 0.01004248 -0.47339042
vn -0.47225829 0.28898842 -0.83274114
vn -0.51367537 0.11183953 -0.85066417
vn -0.00086809 0.33160406 -0.94341825
vn 0.00008830 0.14975354 -0.98872335
vn 0.47069106 0.28562562 -0.83478616
vn 0.51323631 0.11131631 -0.85099775
vn 0.83789276 0.15684694 -0.52281427
vn 0.88089708 0.00967042 -0.47320906
vn 0.99686627 -0.02345500 -0.07554803
vn 0.99237420 -0.12213343 0.01663939
vn 0.80456773 -0.48902246 0.33693887
vn 0.44582430 -0.67786833 0.58458124
vn 0.49837305 -0.67382810 0.54550892
vn 0.86582938 -0.42270154 0.26769926
vn 0.00108495 -0.74531153 0.66671549
vn -0.00124257 -0.76161548 0.64802802
vn -0.44502855 -0.68262838 0.57962753
vn -0.50013150 -0.66939714 0.54934138
vn -0.80316075 -0.49342374 0.33386498
vn -0.86456636 -0.42212766 0.27264125
vn -0.98057979 -0.19218157 -0.03910909
vn -0.99197439 -0.06972466 -0.10547649
vn -0.88177151 0.15593347 -0.44515588
vn -0.84225889 0.28286976 -0.45889505
vn -0.51249460 0.43092055 -0.74273600
vn -0.47642601 0.53417074 -0.69834081
vn -0.00013317 0.53186142 -0.84683139
vn -0.00040161 0.62374376 -0.78162879
vn 0.51260662 0.43109853 -0.74255539
vn 0.47672323 0.53386493 -0.69837182
vn 0.88175902 0.15592213 -0.44518459
vn 0.84231634 0.28302812 -0.45869190
vn 0.98057979 -0.19218157 -0.03910909
vn 0.99197439 -0.06972466 -0.10547649
vn 0.82490667 0.52026585 -0.22102585
vn 0.83960085 0.49761639 -0.21782641
vn 0.59449914 0.54155992 -0.59437667
vn 0.62534310 0.51202667 -0.58887579
vn 0.22712517 0.47986764 -0.84743212
vn 0.19259088 0.50297200 -0.84257221
vn -0.22166911 0.51642138 -0.82714676
vn -0.19652559 0.50766208 -0.83884260
vn -0.61788432 0.48623366 -0.61789627
vn -0.61443552 0.51313684 -0.59929924
vn -0.84571022 0.48314572 -0.22659312
vn -0.82608180 0.52649078 -0.20098837
vn -0.82020912 0.52816330 0.21977381
vn -0.82250996 0.52436060 0.22028013
vn -0.59784699 0.53395696 0.59788706
vn -0.62714775 0.50756876 0.59081270
vn -0.22333462 0.50472315 0.83389219
vn -0.19609226 0.52221319 0.82996459
vn 0.22027019 0.52479590 0.82223495
vn 0.22057832 0.52313684 0.82320900
vn 0.59792399 0.53364687 0.59808689
vn 0.58104160 0.52375436 0.62295427
vn 0.84939147 0.47616542 0.22759752
vn 0.83579116 0.51458431 0.19145789
vn -0.86147190 0.41533265 -0.29217283
vn 0.00000000 0.71140267 0.70278464
vn -0.49608898 0.65856068 -0.56585648
vn 0.00000004 0.74688845 -0.66494935
vn 0.49608879 0.65856087 -0.56585642
vn 0.86147198 0.41533275 -0.29217245
vn 0.99302506 0.08165664 0.08504956
vn 0.85277731 -0.24822104 0.45951842
vn 0.48714408 -0.48354755 0.72723615
vn -0.00000014 -0.56781290 0.82315764
vn -0.48714407 -0.48354781 0.72723598
vn -0.85277729 -0.24822116 0.45951840
vn -0.99302506 0.08165664 0.08504956
vn -0.23912033 -0.95830795 0.15642042
vn -0.18918697 -0.97559852 0.11142631
vn -0.19429758 -0.97576812 0.10062322
vn -0.25146543 -0.93462842 0.25146543
vn -0.00654119 -0.95715498 0.28950227
vn 0.00767160 -0.96489635 0.26251892
vn 0.01990184 -0.95816019 0.28553977
vn -0.05425719 -0.97778013 0.20248994
vn 0.02274426 -0.95301337 0.30207318
vn -0.00400092 -0.97474350 0.22329152
vn -0.02515933 -0.97777896 0.20812332
vn 0.09281341 -0.93349039 0.34638326
vn 0.19372399 -0.96744167 0.16287304
vn 0.18176062 -0.97194176 0.14930605
vn 0.19057866 -0.97010168 0.15027478
vn 0.16091571 -0.97376192 0.16091571
vn 0.31226149 -0.94912410 0.04069639
vn 0.24896865 -0.96832071 0.01922518
vn 0.26290971 -0.96474401 0.01214376
vn 0.26046967 -0.96295613 0.06979286
vn 0.34638307 -0.93349049 -0.09281311
vn 0.22727423 -0.97192483 -0.06089789
vn 0.22727431 -0.97192481 -0.06089797
vn 0.34638326 -0.93349039 -0.09281341
vn 0.25035463 -0.95253921 -0.17318089
vn 0.19351115 -0.97509887 -0.10833110
vn 0.19222367 -0.97756482 -0.08612245
vn 0.25356985 -0.93349058 -0.25356985
vn 0.02820035 -0.95182994 -0.30532687
vn 0.01056875 -0.96745738 -0.25281320
vn 0.00109696 -0.96260924 -0.27089157
vn 0.06263086 -0.97027966 -0.23374080
vn -0.09281311 -0.93349049 -0.34638307
vn -0.06089789 -0.97192483 -0.22727423
vn -0.06089797 -0.97192481 -0.22727431
vn -0.09281341 -0.93349039 -0.34638326
vn -0.16433035 -0.95422512 -0.24989988
vn -0.10674716 -0.97524651 -0.19364731
vn -0.08544913 -0.97736944 -0.19351337
vn -0.25356985 -0.93349058 -0.25356985
vn -0.28790232 -0.95764230 -0.00578677
vn -0.26381768 -0.96452302 0.00977656
vn -0.28771017 -0.95746250 0.02210012
vn -0.20516353 -0.97718260 -0.05497358
vn -0.33907514 -0.93726356 0.08102509
vn -0.23339101 -0.97117030 0.04854767
vn -0.22103892 -0.97450826 0.03841150
vn -0.34638326 -0.93349039 0.09281341
vn -0.86030615 -0.14775605 0.48789495
vn -0.84966086 -0.18453029 0.49398887
vn -0.49500422 -0.16295747 0.85347272
vn -0.49952727 -0.12908480 0.85662688
vn -0.00132218 -0.15122637 0.98849827
vn -0.00031643 -0.12250517 0.99246782
vn 0.49329119 -0.15850196 0.85530166
vn 0.49929564 -0.12820458 0.85689407
vn 0.85154373 -0.18238329 0.49153801
vn 0.86067319 -0.14722586 0.48740763
vn 0.97626118 -0.21659606 -0.00050426
vn 0.98385453 -0.17862790 -0.01106042
vn 0.83532220 -0.25631064 -0.48635551
vn 0.84039083 -0.21517736 -0.49743538
vn 0.47995842 -0.28477570 -0.82978474
vn 0.47966099 -0.24416027 -0.84279956
vn 0.00070742 -0.29281979 -0.95616739
vn -0.00029570 -0.25529148 -0.96686409
vn -0.47908613 -0.28082704 -0.83163253
vn -0.47935949 -0.24445256 -0.84288636
vn -0.83750507 -0.25266229 -0.48450699
vn -0.84039083 -0.21517736 -0.49743538
vn -0.97626118 -0.21659606 -0.00050426
vn -0.98385453 -0.17862790 -0.01106042
vn -0.83049746 -0.18457157 0.52555429
vn -0.83753971 -0.05015941 0.54406918
vn -0.47533869 0.04666801 0.87856430
vn -0.47694818 -0.16096088 0.86406715
vn -0.00476944 0.06781900 0.99768624
vn -0.00414696 -0.15241853 0.98830734
vn 0.46803328 0.03393780 0.88305893
vn 0.47367969 -0.15595324 0.86677917
vn 0.84004451 -0.05724989 0.53948834
vn 0.83542319 -0.18313818 0.51819736
vn 0.97823282 -0.19891034 0.05912041
vn 0.97168536 -0.23410821 0.03195167
vn 0.84167084 -0.35114239 -0.41023068
vn 0.84008556 -0.28915621 -0.45896071
vn 0.48447555 -0.46543874 -0.74070927
vn 0.48717130 -0.33068254 -0.80827791
vn 0.00050432 -0.50797679 -0.86137061
vn 0.00137211 -0.34909929 -0.93708474
vn -0.48338774 -0.46517164 -0.74158724
vn -0.48448786 -0.33453606 -0.80830510
vn -0.84266603 -0.35046356 -0.40876553
vn -0.84166543 -0.29142915 -0.45460790
vn -0.97823282 -0.19891034 0.05912041
vn -0.97168536 -0.23410821 0.03195167
vn -0.87628032 0.15364574 0.45664624
vn -0.52559851 0.45672953 0.71773557
vn 0.00027079 0.57813489 0.81594116
vn 0.52406110 0.45534006 0.71973980
vn 0.87671224 0.15167484 0.45647605
vn 0.97218524 -0.20965472 0.10440670
vn 0.81466167 -0.52756426 -0.24083671
vn 0.46222301 -0.74196076 -0.48563785
vn -0.00069734 -0.82010336 -0.57221499
vn -0.46190757 -0.74683099 -0.47841913
vn -0.81101619 -0.53613523 -0.23411910
vn -0.97218524 -0.20965472 0.10440670
vn -0.87916986 0.38788237 0.27678082
vn -0.52435952 0.80994687 0.26274162
vn 0.00269386 0.96785771 0.25148398
vn 0.52774663 0.80372581 0.27478778
vn 0.87743299 0.38994998 0.27937495
vn 0.96125743 -0.12702292 0.24464123
vn 0.79715317 -0.58028943 0.16676627
vn 0.44855867 -0.88917550 0.09034409
vn -0.00341873 -0.99826231 0.05882742
vn -0.45410917 -0.88656988 0.08819695
vn -0.79153122 -0.58816862 0.16593976
vn -0.96125743 -0.12702292 0.24464123
vn -0.86376321 0.47934045 -0.15538936
vn -0.47362646 0.76323154 -0.43949471
vn -0.00792815 0.82741346 -0.56153728
vn 0.46639811 0.74516056 -0.47666397
vn 0.86433788 0.47358997 -0.16921159
vn 0.98343288 0.01349008 0.18076998
vn 0.79753183 -0.42433597 0.42881460
vn 0.43242288 -0.70367204 0.56378730
vn -0.00291605 -0.79709545 0.60384630
vn -0.43806617 -0.70528313 0.55738115
vn -0.79334162 -0.43252043 0.42841003
vn -0.98343288 0.01349008 0.18076998
vn -0.88188211 0.19775997 -0.42798942
vn -0.85204651 0.24384347 -0.46320309
vn -0.50743640 0.33814499 -0.79256941
vn -0.51275141 0.27554381 -0.81311844
vn -0.00015923 0.38177077 -0.92425703
vn -0.00962396 0.29559395 -0.95526520
vn 0.50831029 0.34235576 -0.79019819
vn 0.51052795 0.29785057 -0.80662646
vn 0.85142356 0.24578474 -0.46332255
vn 0.88575153 0.20307467 -0.41737861
vn 0.99235971 0.12279879 -0.01194429
vn 0.99728023 0.03052884 0.06708297
vn 0.87822538 -0.00838212 0.47817354
vn 0.83924339 -0.15476689 0.52126552
vn 0.51063307 -0.11031723 0.85269219
vn 0.47373214 -0.28496523 0.83329027
vn 0.00020786 -0.14757335 0.98905109
vn -0.00067134 -0.33156026 0.94343380
vn -0.51058646 -0.10974851 0.85279349
vn -0.47497858 -0.28877936 0.83126520
vn -0.87827545 -0.00819485 0.47808480
vn -0.83809722 -0.16063440 0.52133448
vn -0.99235971 0.12279879 -0.01194429
vn -0.99728023 0.03052884 0.06708297
vn -0.80216239 0.49575702 -0.33280696
vn -0.87069846 0.41177979 -0.26892674
vn -0.50583516 0.66650322 -0.54763514
vn -0.44258425 0.68361771 -0.58033268
vn -0.00119433 0.76090297 -0.64886458
vn 0.00131956 0.74538488 -0.66663307
vn 0.50436236 0.67098546 -0.54350448
vn 0.44375244 0.67884230 -0.58502727
vn 0.87194569 0.41249537 -0.26373905
vn 0.80332244 0.49185209 -0.33578947
vn 0.99263240 0.06389870 0.10294603
vn 0.97943975 0.19726095 0.04225993
vn 0.84438776 -0.28133996 0.45591352
vn 0.87995075 -0.15656011 0.44852605
vn 0.47956895 -0.53169164 0.69808139
vn 0.50806014 -0.43439124 0.74376014
vn -0.00058443 -0.62324059 0.78202994
vn -0.00033129 -0.53324299 0.84596206
vn -0.47964235 -0.53286122 0.69713854
vn -0.50807712 -0.43376357 0.74411478
vn -0.84424560 -0.28215232 0.45567471
vn -0.87985897 -0.15646608 0.44873886
vn -0.99263240 0.06389870 0.10294603
vn -0.97943975 0.19726095 0.04225993
vn -0.15809977 -0.98651399 0.04236273
vn -0.15033579 -0.98821669 0.02875647
vn -0.16508167 -0.97236623 0.16508167
vn -0.16151425 -0.98098854 0.10758545
vn -0.03714394 -0.98964842 0.13862297
vn -0.00305520 -0.97898169 0.20392528
vn 0.05766696 -0.97486237 0.21521589
vn 0.00482929 -0.98320645 0.18243287
vn 0.13806428 -0.98075303 0.13806428
vn 0.16194534 -0.97690855 0.13936784
vn 0.13862297 -0.98964842 0.03714394
vn 0.17757368 -0.98396266 0.01688430
vn 0.13862303 -0.98964841 -0.03714395
vn 0.13862300 -0.98964842 -0.03714391
vn 0.15454407 -0.97582389 -0.15454407
vn 0.15273709 -0.98361781 -0.09574647
vn 0.03714394 -0.98964842 -0.13862297
vn 0.01054456 -0.98178975 -0.18967788
vn -0.03714395 -0.98964841 -0.13862303
vn -0.03714391 -0.98964842 -0.13862300
vn -0.16246308 -0.97324791 -0.16246308
vn -0.09439603 -0.98312303 -0.15671150
vn -0.13862297 -0.98964842 -0.03714394
vn -0.20361926 -0.97904487 -0.00321637
vn 0.95194861 -0.16952589 -0.25505845
vn 0.95182549 -0.17024192 -0.25504102
vn 0.69782943 -0.16242007 -0.69760577
vn 0.69681518 -0.16999181 -0.69681518
vn 0.25497245 -0.17176836 -0.95156959
vn 0.25465372 -0.18378183 -0.94940809
vn -0.25435460 -0.18493813 -0.94926373
vn -0.25466363 -0.18042039 -0.95004996
vn -0.69599114 -0.17661446 -0.69599114
vn -0.69635716 -0.17401333 -0.69628017
vn -0.94996611 -0.18103134 -0.25454280
vn -0.95537809 -0.14859303 -0.25528968
vn -0.95461745 -0.15256947 0.25578913
vn -0.95364950 -0.15915434 0.25538700
vn -0.69875592 -0.15323295 0.69875592
vn -0.69799362 -0.16103378 0.69776287
vn -0.25529248 -0.16072323 0.95341166
vn -0.25578356 -0.15270859 0.95459670
vn 0.25548518 -0.15861380 0.95371326
vn 0.25542344 -0.16145627 0.95325271
vn 0.69841452 -0.15504007 0.69869860
vn 0.69745443 -0.16466523 0.69745443
vn 0.95256333 -0.16582105 0.25519891
vn 0.95284990 -0.16398492 0.25531551
f 73//73 74//74 75//75
f 74//74 76//76 75//75
f 76//76 77//77 75//75
f 77//77 78//78 75//75
f 78//78 79//79 75//75
f 79//79 80//80 75//75
f 80//80 81//81 75//75
f 81//81 82//82 75//75
f 82//82 83//83 75//75
f 83//83 84//84 75//75
f 84//84 85//85 75//75
f 85//85 73//73 75//75
f 87//87 89//89 86//86
f 89//89 87//87 88//88
f 91//91 93//93 90//90
f 93//93 91//91 92//92
f 95//95 97//97 94//94
f 97//97 95//95 96//96
f 99//99 101//101 98//98
f 101//101 99//99 100//100
f 103//103 105//105 102//102
f 105//105 103//103 104//104
f 107//107 109//109 106//106
f 109//109 107//107 108//108
f 111//111 113//113 110//110
f 113//113 111//111 112//112
f 115//115 117//117 114//114
f 117//117 115//115 116//116
f 119//119 121//121 118//118
f 121//121 119//119 120//120
f 123//123 125//125 122//122
f 125//125 123//123 124//124
f 127//127 129//129 126//126
f 129//129 127//127 128//128
f 131//131 133//133 130//130
f 133//133 131//131 132//132
f 135//135 137//137 134//134
f 137//137 135//135 136//136
f 138//138 136//136 135//135
f 136//136 138//138 139//139
f 140//140 139//139 138//138
f 139//139 140//140 141//141
f 142//142 141//141 140//140
f 141//141 142//142 143//143
f 144//144 143//143 142//142
f 143//143 144//144 145//145
f 146//146 145//145 144//144
f 145//145 146//146 147//147
f 148//148 147//147 146//146
f 147//147 148//148 149//149
f 151//151 149//149 148//148
f 148//148 150//150 151//151
f 153//153 151//151 150//150
f 150//150 152//152 153//153
f 155//155 153//153 152//152
f 152//152 154//154 155//155
f 157//157 155//155 154//154
f 154//154 156//156 157//157
f 137//137 157//157 156//156
f 156//156 134//134 137//137
f 159//159 161//161 158//158
f 161//161 159//159 160//160
f 162//162 160//160 159//159
f 160//160 162//162 163//163
f 164//164 163//163 162//162
f 163//163 164//164 165//165
f 166//166 165//165 164//164
f 165//165 166//166 167//167
f 168//168 167//167 166//166
f 167//167 168//168 169//169
f 170//170 169//169 168//168
f 169//169 170//170 171//171
f 173//173 171//171 170//170
f 170//170 172//172 173//173
f 175//175 173//173 172//172
f 172//172 174//174 175//175
f 177//177 175//175 174//174
f 174//174 176//176 177//177
f 179//179 177//177 176//176
f 176//176 178//178 179//179
f 181//181 179//179 178//178
f 178//178 180//180 181//181
f 161//161 181//181 180//180
f 180//180 158//158 161//161
f 160//160 183//183 161//161
f 183//183 160//160 182//182
f 163//163 182//182 160//160
f 182//182 163//163 184//184
f 165//165 184//184 163//163
f 184//184 165//165 185//185
f 167//167 185//185 165//165
f 185//185 167//167 186//186
f 169//169 186//186 167//167
f 186//186 169//169 187//187
f 171//171 187//187 169//169
f 187//187 171//171 188//188
f 189//189 188//188 171//171
f 171//171 173//173 189//189
f 190//190 189//189 173//173
f 173//173 175//175 190//190
f 191//191 190//190 175//175
f 175//175 177//177 191//191
f 192//192 191//191 177//177
f 177//177 179//179 192//192
f 193//193 192//192 179//179
f 179//179 181//181 193//193
f 183//183 193//193 181//181
f 181//181 161//161 183//183
f 194//194 195//195 183//183
f 183//183 182//182 194//194
f 196//196 194//194 182//182
f 182//182 184//184 196//196
f 197//197 196//196 184//184
f 184//184 185//185 197//197
f 186//186 197//197 185//185
f 197//197 186//186 198//198
f 187//187 198//198 186//186
f 198//198 187//187 199//199
f 188//188 199//199 187//187
f 199//199 188//188 200//200
f 189//189 200//200 188//188
f 200//200 189//189 201//201
f 190//190 201//201 189//189
f 201//201 190//190 202//202
f 191//191 202//202 190//190
f 202//202 191//191 203//203
f 192//192 203//203 191//191
f 203//203 192//192 204//204
f 205//205 204//204 192//192
f 192//192 193//193 205//205
f 195//195 205//205 193//193
f 193//193 183//183 195//195
f 206//206 207//207 195//195
f 195//195 194//194 206//206
f 208//208 206//206 194//194
f 194//194 196//196 208//208
f 209//209 208//208 196//196
f 196//196 197//197 209//209
f 210//210 209//209 197//197
f 197//197 198//198 210//210
f 199//199 210//210 198//198
f 210//210 199//199 211//211
f 200//200 211//211 199//199
f 211//211 200//200 212//212
f 201//201 212//212 200//200
f 212//212 201//201 213//213
f 202//202 213//213 201//201
f 213//213 202//202 214//214
f 203//203 214//214 202//202
f 214//214 203//203 215//215
f 204//204 215//215 203//203
f 215//215 204//204 216//216
f 217//217 216//216 204//204
f 204//204 205//205 217//217
f 207//207 217//217 205//205
f 205//205 195//195 207//207
f 220//220 221//221 218//218
f 218//218 219//219 220//220
f 223//223 220//220 219//219
f 219//219 222//222 223//223
f 225//225 223//223 222//222
f 222//222 224//224 225//225
f 226//226 225//225 224//224
f 225//225 226//226 227//227
f 228//228 227//227 226//226
f 227//227 228//228 229//229
f 230//230 229//229 228//228
f 229//229 230//230 231//231
f 232//232 231//231 230//230
f 231//231 232//232 233//233
f 234//234 233//233 232//232
f 233//233 234//234 235//235
f 236//236 235//235 234//234
f 235//235 236//236 237//237
f 238//238 237//237 236//236
f 237//237 238//238 239//239
f 241//241 239//239 238//238
f 238//238 240//240 241//241
f 221//221 241//241 240//240
f 240//240 218//218 221//221
f 244//244 245//245 242//242
f 242//242 243//243 244//244
f 247//247 244//244 243//243
f 243//243 246//246 247//247
f 249//249 247//247 246//246
f 246//246 248//248 249//249
f 251//251 249//249 248//248
f 248//248 250//250 251//251
f 252//252 251//251 250//250
f 251//251 252//252 253//253
f 254//254 253//253 252//252
f 253//253 254//254 255//255
f 256//256 255//255 254//254
f 255//255 256//256 257//257
f 258//258 257//257 256//256
f 257//257 258//258 259//259
f 260//260 259//259 258//258
f 259//259 260//260 261//261
f 262//262 261//261 260//260
f 261//261 262//262 263//263
f 265//265 263//263 262//262
f 262//262 264//264 265//265
f 245//245 265//265 264//264
f 264//264 242//242 245//245
f 74//74 73//73 245//245
f 245//245 244//244 74//74
f 76//76 74//74 244//244
f 244//244 247//247 76//76
f 77//77 76//76 247//247
f 247//247 249//249 77//77
f 78//78 77//77 249//249
f 249//249 251//251 78//78
f 253//253 78//78 251//251
f 78//78 253//253 79//79
f 255//255 79//79 253//253
f 79//79 255//255 80//80
f 257//257 80//80 255//255
f 80//80 257//257 81//81
f 259//259 81//81 257//257
f 81//81 259//259 82//82
f 261//261 82//82 259//259
f 82//82 261//261 83//83
f 263//263 83//83 261//261
f 83//83 263//263 84//84
f 85//85 84//84 263//263
f 263//263 265//265 85//85
f 73//73 85//85 265//265
f 265//265 245//245 73//73
f 240//240 238//238 216//216
f 216//216 217//217 240//240
f 216//216 236//236 215//215
f 236//236 216//216 238//238
f 215//215 234//234 214//214
f 234//234 215//215 236//236
f 214//214 232//232 213//213
f 232//232 214//214 234//234
f 213//213 230//230 212//212
f 230//230 213//213 232//232
f 212//212 228//228 211//211
f 228//228 212//212 230//230
f 211//211 226//226 210//210
f 226//226 211//211 228//228
f 226//226 224//224 209//209
f 209//209 210//210 226//226
f 224//224 222//222 208//208
f 208//208 209//209 224//224
f 222//222 219//219 206//206
f 206//206 208//208 222//222
f 219//219 218//218 207//207
f 207//207 206//206 219//219
f 218//218 240//240 217//217
f 217//217 207//207 218//218
f 264//264 262//262 239//239
f 239//239 241//241 264//264
f 262//262 260//260 237//237
f 237//237 239//239 262//262
f 237//237 258//258 235//235
f 258//258 237//237 260//260
f 235//235 256//256 233//233
f 256//256 235//235 258//258
f 233//233 254//254 231//231
f 254//254 233//233 256//256
f 231//231 252//252 229//229
f 252//252 231//231 254//254
f 229//229 250//250 227//227
f 250//250 229//229 252//252
f 250//250 248//248 225//225
f 225//225 227//227 250//250
f 248//248 246//246 223//223
f 223//223 225//225 248//248
f 246//246 243//243 220//220
f 220//220 223//223 246//246
f 243//243 242//242 221//221
f 221//221 220//220 243//243
f 242//242 264//264 241//241
f 241//241 221//221 242//242
f 132//132 267//267 133//133
f 267//267 132//132 266//266
f 88//88 269//269 89//89
f 269//269 88//88 268//268
f 92//92 271//271 93//93
f 271//271 92//92 270//270
f 96//96 273//273 97//97
f 273//273 96//96 272//272
f 100//100 275//275 101//101
f 275//275 100//100 274//274
f 104//104 277//277 105//105
f 277//277 104//104 276//276
f 108//108 279//279 109//109
f 279//279 108//108 278//278
f 112//112 281//281 113//113
f 281//281 112//112 280//280
f 116//116 283//283 117//117
f 283//283 116//116 282//282
f 120//120 285//285 121//121
f 285//285 120//120 284//284
f 124//124 287//287 125//125
f 287//287 124//124 286//286
f 128//128 289//289 129//129
f 289//289 128//128 288//288
f 176//176 174//174 151//151
f 151//151 153//153 176//176
f 174//174 172//172 149//149
f 149//149 151//151 174//174
f 172//172 170//170 147//147
f 147//147 149//149 172//172
f 147//147 168//168 145//145
f 168//168 147//147 170//170
f 145//145 166//166 143//143
f 166//166 145//145 168//168
f 143//143 164//164 141//141
f 164//164 143//143 166//166
f 141//141 162//162 139//139
f 162//162 141//141 164//164
f 139//139 159//159 136//136
f 159//159 139//139 162//162
f 136//136 158//158 137//137
f 158//158 136//136 159//159
f 158//158 180//180 157//157
f 157//157 137//137 158//158
f 180//180 178//178 155//155
f 155//155 157//157 180//180
f 178//178 176//176 153//153
f 153//153 155//155 178//178
f 290//290 291//291 292//292
f 292//292 291//291 293//293
f 293//293 291//291 294//294
f 294//294 291//291 295//295
f 295//295 291//291 296//296
f 296//296 291//291 297//297
f 297//297 291//291 298//298
f 298//298 291//291 299//299
f 299//299 291//291 300//300
f 300//300 291//291 301//301
f 301//301 291//291 302//302
f 302//302 291//291 290//290
f 305//305 306//306 303//303
f 303//303 304//304 305//305
f 309//309 310//310 307//307
f 307//307 308//308 309//309
f 313//313 314//314 311//311
f 311//311 312//312 313//313
f 317//317 318//318 315//315
f 315//315 316//316 317//317
f 321//321 322//322 319//319
f 319//319 320//320 321//321
f 325//325 326//326 323//323
f 323//323 324//324 325//325
f 329//329 330//330 327//327
f 327//327 328//328 329//329
f 333//333 334//334 331//331
f 331//331 332//332 333//333
f 337//337 338//338 335//335
f 335//335 336//336 337//337
f 341//341 342//342 339//339
f 339//339 340//340 341//341
f 345//345 346//346 343//343
f 343//343 344//344 345//345
f 349//349 350//350 347//347
f 347//347 348//348 349//349
f 353//353 354//354 351//351
f 351//351 352//352 353//353
f 355//355 356//356 354//354
f 354//354 353//353 355//355
f 357//357 358//358 356//356
f 356//356 355//355 357//357
f 359//359 360//360 358//358
f 358//358 357//357 359//359
f 361//361 362//362 360//360
f 360//360 359//359 361//361
f 363//363 364//364 362//362
f 362//362 361//361 363//363
f 365//365 366//366 364//364
f 364//364 363//363 365//365
f 365//365 368//368 366//366
f 368//368 365//365 367//367
f 367//367 370//370 368//368
f 370//370 367//367 369//369
f 369//369 372//372 370//370
f 372//372 369//369 371//371
f 371//371 374//374 372//372
f 374//374 371//371 373//373
f 373//373 351//351 374//374
f 351//351 373//373 352//352
f 377//377 378//378 375//375
f 375//375 376//376 377//377
f 379//379 380//380 378//378
f 378//378 377//377 379//379
f 381//381 382//382 380//380
f 380//380 379//379 381//381
f 383//383 384//384 382//382
f 382//382 381//381 383//383
f 385//385 386//386 384//384
f 384//384 383//383 385//385
f 387//387 388//388 386//386
f 386//386 385//385 387//387
f 387//387 390//390 388//388
f 390//390 387//387 389//389
f 389//389 392//392 390//390
f 392//392 389//389 391//391
f 391//391 394//394 392//392
f 394//394 391//391 393//393
f 393//393 396//396 394//394
f 396//396 393//393 395//395
f 395//395 398//398 396//396
f 398//398 395//395 397//397
f 397//397 375//375 398//398
f 375//375 397//397 376//376
f 400//400 377//377 376//376
f 376//376 399//399 400//400
f 401//401 379//379 377//377
f 377//377 400//400 401//401
f 402//402 381//381 379//379
f 379//379 401//401 402//402
f 403//403 383//383 381//381
f 381//381 402//402 403//403
f 404//404 385//385 383//383
f 383//383 403//403 404//404
f 405//405 387//387 385//385
f 385//385 404//404 405//405
f 405//405 389//389 387//387
f 389//389 405//405 406//406
f 406//406 391//391 389//389
f 391//391 406//406 407//407
f 407//407 393//393 391//391
f 393//393 407//407 408//408
f 408//408 395//395 393//393
f 395//395 408//408 409//409
f 409//409 397//397 395//395
f 397//397 409//409 410//410
f 410//410 376//376 397//397
f 376//376 410//410 399//399
f 411//411 400//400 399//399
f 400//400 411//411 412//412
f 412//412 401//401 400//400
f 401//401 412//412 413//413
f 413//413 402//402 401//401
f 402//402 413//413 414//414
f 415//415 403//403 402//402
f 402//402 414//414 415//415
f 416//416 404//404 403//403
f 403//403 415//415 416//416
f 417//417 405//405 404//404
f 404//404 416//416 417//417
f 418//418 406//406 405//405
f 405//405 417//417 418//418
f 419//419 407//407 406//406
f 406//406 418//418 419//419
f 420//420 408//408 407//407
f 407//407 419//419 420//420
f 421//421 409//409 408//408
f 408//408 420//420 421//421
f 421//421 410//410 409//409
f 410//410 421//421 422//422
f 422//422 399//399 410//410
f 399//399 422//422 411//411
f 423//423 412//412 411//411
f 412//412 423//423 424//424
f 424//424 413//413 412//412
f 413//413 424//424 425//425
f 425//425 414//414 413//413
f 414//414 425//425 426//426
f 426//426 415//415 414//414
f 415//415 426//426 427//427
f 428//428 416//416 415//415
f 415//415 427//427 428//428
f 429//429 417//417 416//416
f 416//416 428//428 429//429
f 430//430 418//418 417//417
f 417//417 429//429 430//430
f 431//431 419//419 418//418
f 418//418 430//430 431//431
f 432//432 420//420 419//419
f 419//419 431//431 432//432
f 433//433 421//421 420//420
f 420//420 432//432 433//433
f 433//433 422//422 421//421
f 422//422 433//433 434//434
f 434//434 411//411 422//422
f 411//411 434//434 423//423
f 436//436 438//438 435//435
f 438//438 436//436 437//437
f 437//437 440//440 438//438
f 440//440 437//437 439//439
f 439//439 442//442 440//440
f 442//442 439//439 441//441
f 443//443 444//444 442//442
f 442//442 441//441 443//443
f 445//445 446//446 444//444
f 444//444 443//443 445//445
f 447//447 448//448 446//446
f 446//446 445//445 447//447
f 449//449 450//450 448//448
f 448//448 447//447 449//449
f 451//451 452//452 450//450
f 450//450 449//449 451//451
f 453//453 454//454 452//452
f 452//452 451//451 453//453
f 455//455 456//456 454//454
f 454//454 453//453 455//455
f 455//455 458//458 456//456
f 458//458 455//455 457//457
f 457//457 435//435 458//458
f 435//435 457//457 436//436
f 460//460 462//462 459//459
f 462//462 460//460 461//461
f 461//461 464//464 462//462
f 464//464 461//461 463//463
f 463//463 466//466 464//464
f 466//466 463//463 465//465
f 465//465 468//468 466//466
f 468//468 465//465 467//467
f 469//469 470//470 468//468
f 468//468 467//467 469//469
f 471//471 472//472 470//470
f 470//470 469//469 471//471
f 473//473 474//474 472//472
f 472//472 471//471 473//473
f 475//475 476//476 474//474
f 474//474 473//473 475//475
f 477//477 478//478 476//476
f 476//476 475//475 477//477
f 479//479 480//480 478//478
f 478//478 477//477 479//479
f 479//479 482//482 480//480
f 482//482 479//479 481//481
f 481//481 459//459 482//482
f 459//459 481//481 460//460
f 290//290 461//461 460//460
f 461//461 290//290 292//292
f 292//292 463//463 461//461
f 463//463 292//292 293//293
f 293//293 465//465 463//463
f 465//465 293//293 294//294
f 294//294 467//467 465//465
f 467//467 294//294 295//295
f 296//296 469//469 467//467
f 467//467 295//295 296//296
f 297//297 471//471 469//469
f 469//469 296//296 297//297
f 298//298 473//473 471//471
f 471//471 297//297 298//298
f 299//299 475//475 473//473
f 473//473 298//298 299//299
f 300//300 477//477 475//475
f 475//475 299//299 300//300
f 301//301 479//479 477//477
f 477//477 300//300 301//301
f 301//301 481//481 479//479
f 481//481 301//301 302//302
f 302//302 460//460 481//481
f 460//460 302//302 290//290
f 456//456 434//434 433//433
f 434//434 456//456 458//458
f 456//456 433//433 432//432
f 432//432 454//454 456//456
f 454//454 432//432 431//431
f 431//431 452//452 454//454
f 452//452 431//431 430//430
f 430//430 450//450 452//452
f 450//450 430//430 429//429
f 429//429 448//448 450//450
f 448//448 429//429 428//428
f 428//428 446//446 448//448
f 446//446 428//428 427//427
f 427//427 444//444 446//446
f 442//442 427//427 426//426
f 427//427 442//442 444//444
f 440//440 426//426 425//425
f 426//426 440//440 442//442
f 438//438 425//425 424//424
f 425//425 438//438 440//440
f 435//435 424//424 423//423
f 424//424 435//435 438//438
f 458//458 423//423 434//434
f 423//423 458//458 435//435
f 480//480 457//457 455//455
f 457//457 480//480 482//482
f 478//478 455//455 453//453
f 455//455 478//478 480//480
f 478//478 453//453 451//451
f 451//451 476//476 478//478
f 476//476 451//451 449//449
f 449//449 474//474 476//476
f 474//474 449//449 447//447
f 447//447 472//472 474//474
f 472//472 447//447 445//445
f 445//445 470//470 472//472
f 470//470 445//445 443//443
f 443//443 468//468 470//470
f 466//466 443//443 441//441
f 443//443 466//466 468//468
f 464//464 441//441 439//439
f 441//441 464//464 466//466
f 462//462 439//439 437//437
f 439//439 462//462 464//464
f 459//459 437//437 436//436
f 437//437 459//459 462//462
f 482//482 436//436 457//457
f 436//436 482//482 459//459
f 484//484 349//349 348//348
f 348//348 483//483 484//484
f 486//486 305//305 304//304
f 304//304 485//485 486//486
f 488//488 309//309 308//308
f 308//308 487//487 488//488
f 490//490 313//313 312//312
f 312//312 489//489 490//490
f 492//492 317//317 316//316
f 316//316 491//491 492//492
f 494//494 321//321 320//320
f 320//320 493//493 494//494
f 496//496 325//325 324//324
f 324//324 495//495 496//496
f 498//498 329//329 328//328
f 328//328 497//497 498//498
f 500//500 333//333 332//332
f 332//332 499//499 500//500
f 502//502 337//337 336//336
f 336//336 501//501 502//502
f 504//504 341//341 340//340
f 340//340 503//503 504//504
f 506//506 345//345 344//344
f 344//344 505//505 506//506
f 392//392 369//369 367//367
f 369//369 392//392 394//394
f 390//390 367//367 365//365
f 367//367 390//390 392//392
f 388//388 365//365 363//363
f 365//365 388//388 390//390
f 388//388 363//363 361//361
f 361//361 386//386 388//388
f 386//386 361//361 359//359
f 359//359 384//384 386//386
f 384//384 359//359 357//357
f 357//357 382//382 384//384
f 382//382 357//357 355//355
f 355//355 380//380 382//382
f 380//380 355//355 353//353
f 353//353 378//378 380//380
f 378//378 353//353 352//352
f 352//352 375//375 378//378
f 398//398 352//352 373//373
f 352//352 398//398 375//375
f 396//396 373//373 371//371
f 373//373 396//396 398//398
f 394//394 371//371 369//369
f 371//371 394//394 396//396
f 267//267 266//266 507//507
f 507//507 508//508 267//267
f 269//269 268//268 509//509
f 509//509 510//510 269//269
f 512//512 270//270 511//511
f 270//270 512//512 271//271
f 514//514 272//272 513//513
f 272//272 514//514 273//273
f 516//516 274//274 515//515
f 274//274 516//516 275//275
f 518//518 276//276 517//517
f 276//276 518//518 277//277
f 520//520 278//278 519//519
f 278//278 520//520 279//279
f 522//522 280//280 521//521
f 280//280 522//522 281//281
f 283//283 282//282 523//523
f 523//523 524//524 283//283
f 285//285 284//284 525//525
f 525//525 526//526 285//285
f 287//287 286//286 527//527
f 527//527 528//528 287//287
f 289//289 288//288 529//529
f 529//529 530//530 289//289

